<?xml version="1.0" encoding="UTF-8" standalone="yes"?>
<!DOCTYPE svg PUBLIC "-//W3C//DTD SVG 1.1//EN" "http://www.w3.org/Graphics/SVG/1.1/DTD/svg11.dtd">

<svg width="230" height="230" viewBox="0 0 230 230" xmlns="http://www.w3.org/2000/svg" xmlns:xlink="http://www.w3.org/1999/xlink" version="1.1" baseProfile="full">
    <g transform="scale(1,-1) translate(0,-230)">
        <path d="M 30.036551 23.941706 C 26.983065 23.648101 21.815626 22.884730 18.585976 22.180079 C 12.596445 20.946940 1.909241 17.776011 1.087149 17.012640 C 0.852265 16.777756 1.909241 13.724269 3.435985 10.142295 C 6.606913 2.860903 7.017960 2.156252 7.663889 2.508578 C 7.898773 2.684741 9.131912 2.567299 10.306330 2.214973 L 12.479003 1.627764 L 22.285394 10.846945 C 35.732479 23.471939 36.848176 24.587635 36.202247 24.528914 C 35.849922 24.470193 33.090039 24.235310 30.036553 23.941705 Z" transform="scale(1.000000,1.000000) translate(76.000000,194.000000)" fill="#1b58a8" opacity="1.000000"></path>
        <path d="M 1.780731 24.294030 C 1.780731 24.235309 7.183054 19.126591 13.818515 12.960897 L 25.797579 1.627764 L 28.792344 2.391136 L 31.787110 3.154508 L 34.664434 9.907411 L 37.541758 16.660314 L 35.369085 17.658570 C 29.496995 20.301010 14.288281 23.589381 5.480147 24.176590 C 3.424915 24.294031 1.780730 24.352752 1.780730 24.294031 Z" transform="scale(1.000000,1.000000) translate(116.000000,194.000000)" fill="#1b58a8" opacity="1.000000"></path>
        <path d="M 13.513298 29.257993 C 3.530745 19.921370 1.181909 17.396371 1.416792 16.456837 C 1.592955 15.810907 1.769118 14.460327 1.769118 13.520792 C 1.769118 11.876607 2.297606 11.465561 11.105740 6.591726 L 20.501084 1.424287 L 22.732478 2.657426 C 25.492360 4.125448 26.784220 4.125448 29.544103 2.657426 L 31.716776 1.483008 L 41.112120 6.591726 C 50.037696 11.465560 50.507463 11.817886 50.507463 13.520792 C 50.507463 14.460326 50.683626 15.810907 50.859789 16.456837 C 51.094672 17.396371 48.863278 19.803928 39.820260 28.201017 C 33.654566 34.014385 27.958638 39.240545 27.253988 39.827754 C 25.962129 40.826009 25.844687 40.767288 13.513298 29.257992 Z" transform="scale(1.000000,1.000000) translate(89.000000,176.000000)" fill="#1b58a8" opacity="1.000000"></path>
        <path d="M 24.574363 18.667291 C 17.762738 15.085316 12.712741 11.738224 6.958093 7.040553 C -0.558182 0.933580 -1.556437 1.403347 17.410413 2.225440 C 26.512152 2.577765 34.145869 2.930090 34.439473 2.930090 C 34.674357 2.988811 34.850520 3.341137 34.850520 3.810904 C 34.850520 4.221950 35.379008 5.278926 36.024938 6.101019 L 37.258076 7.627762 L 34.204590 14.732991 C 32.560405 18.608570 31.033661 21.779499 30.798778 21.779499 C 30.622615 21.779499 27.804012 20.370197 24.574362 18.667291 Z" transform="scale(1.000000,1.000000) translate(43.000000,188.000000)" fill="#1b58a8" opacity="1.000000"></path>
        <path d="M 7.068502 19.606829 C 6.540014 18.373690 5.189433 15.202761 4.073736 12.560321 L 1.959784 7.686486 L 3.192923 6.159743 C 3.897573 5.278929 4.426061 4.221953 4.426061 3.810907 C 4.426061 3.341140 4.602224 2.988814 4.895829 2.930093 C 5.130712 2.930093 12.823150 2.577768 21.983610 2.225442 L 38.601624 1.520792 L 35.313254 4.574278 C 30.145815 9.213229 21.807447 14.909157 14.937102 18.549852 C 11.472569 20.311479 8.536524 21.779501 8.301640 21.779501 C 8.125477 21.779501 7.538268 20.781246 7.068501 19.606828 Z" transform="scale(1.000000,1.000000) translate(148.000000,188.000000)" fill="#1b58a8" opacity="1.000000"></path>
        <path d="M 12.246467 39.406834 C 6.667982 39.171950 1.911589 38.760904 1.676705 38.584741 C 1.030776 37.938812 0.854613 4.233016 1.500543 4.233016 C 1.852868 4.233016 2.909844 3.587086 3.849379 2.764993 L 5.552285 1.355692 L 15.769721 4.233016 C 21.406927 5.877201 26.045878 7.169061 26.104599 7.169061 C 26.163320 7.169061 26.515646 8.226037 26.867971 9.459176 C 27.572622 12.101616 29.862737 14.215569 31.917968 14.215569 C 32.681340 14.215569 33.503433 14.685336 33.855758 15.272545 C 34.501688 16.505684 39.786569 34.532999 39.786569 35.531255 C 39.786569 35.942301 39.081918 36.881836 38.318547 37.645207 C 37.496454 38.408579 36.850524 39.230672 36.850524 39.524276 C 36.850524 40.111485 27.044134 40.111485 12.246467 39.406834 Z" transform="scale(1.000000,1.000000) translate(41.000000,148.000000)" fill="#1b58a8" opacity="1.000000"></path>
        <path d="M 3.838852 38.819625 C 3.427806 38.056253 2.723155 37.175440 2.312109 36.940556 C 1.137691 36.294626 1.255133 35.355092 3.486527 27.780096 C 4.602224 24.021958 5.894084 19.441728 6.422572 17.621381 C 7.362106 14.450452 7.479548 14.215569 9.182454 14.215569 C 11.413848 14.215569 14.408614 11.279524 14.408614 9.165571 C 14.408614 7.403944 14.584777 7.345223 26.328956 3.939411 L 35.606858 1.238250 L 37.368485 2.764993 C 38.366740 3.587086 39.423716 4.233016 39.717321 4.233016 C 40.304530 4.233016 40.421972 25.313819 39.893484 33.417303 L 39.482437 38.702184 L 34.726044 39.113230 C 32.083604 39.289393 24.273725 39.641718 17.285937 39.817881 L 4.543501 40.228927 L 3.838851 38.819626 Z" transform="scale(1.000000,1.000000) translate(148.000000,148.000000)" fill="#1b58a8" opacity="1.000000"></path>
        <path d="M 11.539468 26.470789 C 10.599934 25.883580 9.308074 25.355092 8.779586 25.355092 C 7.722610 25.355092 7.663889 25.237650 3.142380 9.794054 C 1.556916 4.450452 1.498195 3.804522 2.320287 2.923709 C 2.790054 2.336500 3.494705 1.866733 3.847031 1.866733 C 4.199356 1.925454 10.717376 4.509173 18.292372 7.621381 C 31.798179 13.258587 32.091783 13.434750 32.267945 15.196377 C 32.444108 17.134166 33.559805 16.370795 16.237140 25.942301 C 13.301095 27.586486 13.301095 27.586486 11.539468 26.470789 Z" transform="scale(1.000000,1.000000) translate(76.000000,158.000000)" fill="#1b58a8" opacity="1.000000"></path>
        <path d="M 10.521418 21.419051 C 1.419679 16.369053 1.184795 16.192891 1.184795 14.313822 C 1.184795 12.199869 0.715028 12.434753 21.854552 3.802781 C 29.312106 0.808015 29.664432 0.690573 30.780128 1.688829 C 31.837105 2.687084 31.837105 2.804526 29.840594 9.557429 C 28.724897 13.315567 27.315595 18.189401 26.669666 20.420795 C 25.847573 23.298119 25.260364 24.355095 24.496992 24.355095 C 23.968504 24.355095 22.676644 24.824863 21.678389 25.470792 L 19.916762 26.527769 L 10.521418 21.419050 Z" transform="scale(1.000000,1.000000) translate(121.000000,159.000000)" fill="#1b58a8" opacity="1.000000"></path>
        <path d="M 16.923802 32.299864 C 12.402293 27.014983 7.176133 18.970220 3.829042 12.393479 C 2.419741 9.574875 1.304043 7.167319 1.421485 7.049877 C 1.538927 6.932435 4.768576 5.581854 8.644156 3.937669 C 15.631943 1.001624 15.690664 1.001624 17.099965 2.117321 C 17.863337 2.704530 18.802871 3.233018 19.213917 3.233018 C 20.270894 3.233018 20.799382 12.452199 20.564498 25.840564 L 20.388335 36.351605 L 16.923802 32.299863 Z" transform="scale(1.000000,1.000000) translate(19.000000,149.000000)" fill="#1b58a8" opacity="1.000000"></path>
        <path d="M 1.653370 22.023707 C 1.594649 6.814994 1.888254 3.233019 3.062672 3.233019 C 3.473718 3.233019 4.413252 2.704531 5.176624 2.117322 C 6.585926 1.001625 6.644646 1.001625 13.632433 3.937670 C 17.508012 5.581855 20.796383 6.991157 20.855104 7.049878 C 20.972546 7.167320 19.621965 10.103364 17.801617 13.626618 C 14.278363 20.320801 8.641157 28.600448 4.295810 33.474282 L 1.653370 36.410327 L 1.653370 22.023706 Z" transform="scale(1.000000,1.000000) translate(189.000000,149.000000)" fill="#1b58a8" opacity="1.000000"></path>
        <path d="M 35.114461 104.213826 L 20.904003 98.283015 L 20.610398 95.992900 C 20.199352 92.998134 18.085400 90.825460 15.149355 90.355693 L 12.859240 90.003368 L 7.456917 77.084770 C 4.462151 69.979541 1.878432 63.578963 1.643548 62.874312 C 1.408665 61.993499 1.702269 61.053964 2.524362 59.996988 C 4.168547 57.941756 4.168547 54.007456 2.583083 51.952225 C 1.937153 51.130132 1.408665 50.131877 1.467386 49.662110 C 1.467386 49.251064 4.051105 42.850485 7.163313 35.392932 L 12.859240 21.887125 L 15.090634 21.534800 C 18.085400 21.065033 20.199352 18.892359 20.610398 15.897593 L 20.904003 13.548757 L 35.349344 7.559226 C 43.511549 4.212135 49.912126 1.863299 50.029568 2.215624 C 50.381894 3.213879 53.435381 4.564460 55.314449 4.564460 C 56.253984 4.564460 57.898169 3.977251 59.013866 3.213879 L 61.010377 1.863298 L 75.279555 7.735388 L 89.490013 13.607478 L 89.490013 15.545268 C 89.490013 18.246429 92.132453 21.065032 95.068498 21.534799 L 97.358613 21.887125 L 103.113261 35.686536 C 108.750468 49.251064 109.337677 50.953970 108.398142 50.953970 C 107.517329 50.953970 106.519073 53.831294 106.519073 56.121409 C 106.519073 57.354548 107.047561 58.940012 107.693491 59.762104 C 108.339421 60.584197 108.867909 61.523731 108.867909 61.817336 C 108.867909 62.169661 106.284190 68.628960 103.113261 76.203956 L 97.358613 90.003367 L 95.068498 90.355693 C 92.132453 90.825460 89.490012 93.644063 89.490012 96.345224 L 89.490012 98.224293 L 75.044671 104.213824 C 60.658051 110.144635 60.599330 110.203356 59.366191 109.087659 C 57.545843 107.384753 54.727240 107.032428 52.260962 108.206846 C 51.086544 108.794055 50.147009 109.439985 50.147009 109.733589 C 50.147009 110.027194 49.970847 110.262077 49.735963 110.203356 C 49.442359 110.203356 42.865618 107.502195 35.114460 104.213825 Z M 60.540609 95.053365 C 66.471420 93.937668 74.868508 83.778952 76.923740 75.440584 C 77.276065 73.913841 77.217344 73.855120 75.749322 74.442329 C 73.928974 75.088259 71.286534 74.324887 71.286534 73.091748 C 71.286534 72.504539 72.108626 72.210935 73.987695 72.210935 C 76.806298 72.152214 78.333042 71.330121 78.333042 69.979541 C 78.333042 69.392332 77.980716 69.333611 76.630135 69.803378 C 75.690601 70.155703 74.163858 70.331866 73.341765 70.214424 L 71.756301 70.038261 L 73.283044 68.335355 C 74.516183 67.043496 75.279555 66.749891 76.571414 66.926054 C 78.215600 67.160937 78.333041 67.043496 78.685367 64.518497 C 79.801064 57.530710 78.978971 52.304550 75.631880 44.670834 C 73.635369 40.208045 72.402231 39.562116 67.469675 40.501650 C 65.238281 40.853975 62.654562 41.734789 61.656307 42.439440 C 59.483633 43.848741 57.193518 48.194088 56.782472 51.658621 L 56.488867 54.183619 L 58.544099 50.953970 C 61.891190 45.786531 62.478399 45.081880 63.417934 45.081880 C 64.122584 45.081880 64.005143 45.551647 63.065608 47.489437 C 62.360957 48.840017 61.949911 50.014436 62.067353 50.131877 C 62.184795 50.308040 63.006887 50.131877 63.887701 49.779552 C 65.766770 49.074901 68.350489 49.016180 68.350489 49.662110 C 68.350489 49.896994 67.645838 50.542923 66.765025 51.071412 C 65.120840 52.069667 65.179560 52.069667 69.818511 52.010946 C 75.162113 51.952225 75.749322 51.776062 74.751067 50.601644 C 74.222578 49.955715 74.281299 49.779552 75.044671 49.779552 C 76.042926 49.779552 76.219089 50.777807 75.631880 52.363271 C 74.574904 55.181875 66.999908 56.884781 61.010376 55.651642 C 59.190029 55.299316 57.545843 55.123154 57.310960 55.299316 C 57.134797 55.534200 57.428402 56.532455 58.015611 57.530710 C 58.837703 58.822570 58.896424 59.233617 58.309215 59.057454 C 57.134797 58.705128 54.844682 55.064433 54.433636 53.009201 L 54.081310 51.306295 L 53.317939 53.302806 C 52.202242 56.473734 52.319683 57.237106 54.551078 59.703383 C 55.666775 60.936522 56.606309 62.110940 56.606309 62.345824 C 56.606309 62.521986 55.784216 63.050475 54.844682 63.402800 C 53.141776 64.107451 53.083055 64.224892 53.963869 65.516752 C 54.492357 66.221403 55.314449 66.808612 55.842937 66.808612 C 56.371425 66.808612 56.606309 67.160937 56.371425 67.689425 C 56.195263 68.217914 56.430146 68.746402 56.899914 68.922564 C 57.369681 69.157448 57.604564 69.509773 57.428402 69.803378 C 57.252239 70.155703 57.722006 70.214424 58.602820 69.979540 C 59.424912 69.803378 60.951656 69.920820 61.949911 70.273145 C 64.357467 71.095237 64.827235 70.684191 62.713282 69.627215 C 60.247005 68.452797 60.364446 67.630704 63.065608 67.865588 C 64.885956 68.041751 65.414444 67.924309 65.414444 67.160937 C 65.414444 65.810357 67.528396 64.812101 67.998163 65.986519 C 68.526651 67.395821 68.409210 68.687681 67.410954 72.034772 C 65.708048 77.848141 62.713282 79.198721 56.665030 76.791165 C 54.844682 76.086514 53.552823 75.851631 53.376660 76.203956 C 53.141776 76.556281 53.435381 76.967328 53.905148 77.143490 C 54.433636 77.319653 54.844682 77.906862 54.844682 78.317908 C 54.844682 79.374884 50.147011 87.360927 49.501080 87.360927 C 48.444104 87.360927 48.209221 82.428371 48.855151 73.267911 C 50.205731 54.183619 52.906893 44.318508 58.426657 38.328976 C 61.421422 35.099327 63.417933 34.277234 67.587117 34.629559 C 70.816766 34.923164 70.992929 35.040606 74.340020 38.681301 C 76.219089 40.736533 78.626646 43.848741 79.566180 45.551647 C 81.680132 49.192342 82.678388 49.485947 82.091179 46.432460 C 81.445249 42.498160 79.507459 38.974906 76.688856 36.449907 L 73.928974 33.983630 L 76.688856 34.335955 C 79.859785 34.688280 80.740598 33.807467 79.624901 31.282468 C 78.920250 29.814446 76.806298 28.992353 72.167347 28.346423 C 67.822001 27.759214 70.346999 26.643517 75.044671 27.113285 L 78.626646 27.465610 L 76.336531 25.351658 C 74.222579 23.355147 73.928974 23.237705 71.169092 23.590031 C 63.887701 24.588286 56.488867 28.816191 51.791195 34.688280 C 48.913871 38.328976 47.387128 41.617347 44.979571 49.485947 C 43.981315 52.715597 42.748177 55.886525 42.278409 56.532455 C 41.397596 57.648152 41.397596 57.648152 41.338875 56.062688 C 41.338875 51.893504 45.860384 37.154558 48.385383 33.102817 C 49.559801 31.282470 49.853405 30.401656 49.324917 30.401656 C 48.326662 30.401656 45.508059 33.513864 42.689456 37.800490 C 41.515038 39.562117 40.516782 40.971418 40.399341 40.971418 C 40.281899 40.971418 40.164457 40.442930 40.164457 39.797000 C 40.164457 39.151070 42.160968 35.745258 44.509804 32.163283 C 48.913871 25.645263 49.148755 24.235962 45.390617 26.937124 C 43.452827 28.287704 43.335386 28.111542 44.568524 25.703985 C 45.097013 24.647009 46.682477 23.355149 48.385383 22.474335 C 50.029568 21.652243 51.321428 20.830150 51.321428 20.653988 C 51.321428 20.419104 50.323172 20.477825 49.148755 20.712709 C 41.515038 22.063289 33.705159 31.869679 29.418533 45.375486 C 27.245860 52.363273 26.482489 58.235363 26.776093 65.751638 C 27.363302 78.963840 31.415044 85.070815 43.863875 91.353949 C 51.145266 95.053366 55.490612 96.051621 60.540610 95.053366 Z M 62.360957 74.735935 C 63.417933 74.501052 64.533630 73.796401 64.885956 73.150471 C 65.473165 72.034774 65.414444 71.976053 64.474910 72.445820 C 63.828980 72.680704 62.067353 72.974308 60.423168 73.033029 C 56.371426 73.091750 56.019100 73.209192 56.019100 73.855122 C 56.019100 74.618493 58.367936 75.616749 59.542354 75.323144 C 60.012121 75.205702 61.303981 74.970819 62.360957 74.735935 Z" transform="scale(1.000000,1.000000) translate(60.000000,59.000000)" fill="#1b58a8" opacity="1.000000"></path>
        <path d="M 6.844686 6.409184 C 5.200501 5.763254 2.734223 3.825464 2.088293 2.592325 C 1.501084 1.535349 1.677247 1.594070 4.084804 2.944651 C 5.728989 3.942906 7.960383 4.588836 10.367940 4.882440 C 13.656310 5.176045 13.949915 5.352208 13.010380 6.056858 C 11.894683 6.820230 8.488871 6.996393 6.844686 6.409184 Z" transform="scale(1.000000,1.000000) translate(108.000000,146.000000)" fill="#1b58a8" opacity="1.000000"></path>
        <path d="M 1.654559 5.991757 C 1.184791 4.699897 3.063860 2.879549 5.647580 2.174898 C 7.115602 1.763852 8.818508 1.763852 10.932461 2.233619 C 15.277807 3.055712 15.688854 3.231874 15.277807 3.936525 C 14.984203 4.406292 14.631877 4.406292 14.162110 3.995246 C 13.633622 3.584200 12.811530 3.701642 11.284786 4.523734 C 10.051647 5.228385 7.996416 5.698152 6.469673 5.698152 C 5.001650 5.698152 3.827232 5.991757 3.827232 6.285361 C 3.827232 7.224895 2.065605 6.990012 1.654559 5.991757 Z" transform="scale(1.000000,1.000000) translate(121.000000,116.000000)" fill="#1b58a8" opacity="1.000000"></path>
        <path d="M 8.953457 36.996393 C 8.072644 35.469650 4.373227 22.785935 3.551134 18.558031 C 2.729042 13.977801 1.437182 2.116179 1.730787 1.763854 C 1.848228 1.646412 6.956946 6.990013 13.122641 13.625476 L 24.397054 25.604539 L 23.927287 28.599304 L 23.516240 31.652791 L 16.528454 34.530115 C 8.777295 37.759765 9.305783 37.583602 8.953458 36.996393 Z" transform="scale(1.000000,1.000000) translate(10.000000,116.000000)" fill="#1b58a8" opacity="1.000000"></path>
        <path d="M 9.513243 34.530117 C 2.760340 31.652793 2.760340 31.652793 2.408014 29.362678 C 2.231852 28.129539 1.938247 26.837679 1.820805 26.485354 C 1.644643 26.074307 23.899862 1.587692 24.487071 1.587692 C 24.839397 1.587692 23.899862 10.102222 22.960328 16.150474 C 21.727189 23.608028 17.851610 36.878951 16.853355 37.172555 C 16.501029 37.289997 13.212659 36.056858 9.513242 34.530115 Z" transform="scale(1.000000,1.000000) translate(194.000000,116.000000)" fill="#1b58a8" opacity="1.000000"></path>
        <path d="M 14.179019 29.942908 C 2.317397 26.478375 2.728444 26.654538 2.728444 25.127794 C 2.728444 24.481864 2.317398 23.190005 1.788909 22.309191 C 0.849375 20.782448 0.966817 20.547564 6.251698 10.917337 C 13.650531 -2.471027 12.828438 -2.764632 20.462156 15.615009 C 26.334245 29.825467 26.334245 29.825467 25.218549 31.293489 C 24.631340 32.115582 24.044131 32.761512 23.867968 32.761512 C 23.691805 32.761512 19.346459 31.469652 14.179020 29.942908 Z" transform="scale(1.000000,1.000000) translate(44.000000,120.000000)" fill="#1b58a8" opacity="1.000000"></path>
        <path d="M 1.940592 31.293481 C 0.942336 29.766738 1.001057 29.590575 5.816171 17.905117 C 13.097562 0.288847 12.686516 1.110940 14.271980 1.110940 C 15.446398 1.110940 16.385932 2.520241 21.024883 10.976050 C 25.722555 19.549302 26.309764 20.899882 25.663835 21.956859 C 25.252788 22.602789 24.783021 23.894648 24.548137 24.892904 C 24.195812 26.595810 23.960928 26.713251 14.859189 29.414413 C 9.691750 30.941156 4.876636 32.291737 4.230706 32.467899 C 3.291172 32.702783 2.703963 32.409178 1.940591 31.293481 Z" transform="scale(1.000000,1.000000) translate(159.000000,120.000000)" fill="#1b58a8" opacity="1.000000"></path>
        <path d="M 13.588920 40.333606 C 7.599389 33.991749 2.373228 28.354543 1.962183 27.767334 C 1.316253 26.827800 2.608113 25.301057 12.825549 14.378970 L 24.393567 1.988860 L 27.329612 2.341185 C 28.973797 2.576069 30.500540 2.869674 30.735424 3.104557 C 30.970307 3.280720 33.377864 7.508625 36.137746 12.499901 L 41.129023 21.601640 L 39.954605 23.010942 C 38.545303 24.831290 38.545303 28.178381 39.954605 30.527217 L 41.070302 32.347565 L 36.079025 41.390583 C 33.377864 46.381859 30.970307 50.609764 30.735423 50.785927 C 30.500540 51.020810 28.973796 51.314415 27.388332 51.549298 L 24.452287 51.901624 L 13.588921 40.333606 Z" transform="scale(1.000000,1.000000) translate(12.000000,88.000000)" fill="#1b58a8" opacity="1.000000"></path>
        <path d="M 6.432444 41.977802 L 1.206284 32.347575 L 2.321981 30.527227 C 3.731283 28.178391 3.731283 24.831300 2.321981 23.010952 L 1.206284 21.601651 L 6.491165 11.912702 C 11.541163 2.576080 11.776046 2.223754 13.420231 2.458637 C 14.301045 2.576079 15.592905 2.399917 16.180114 2.047591 C 17.237090 1.519103 18.587670 2.810963 28.159177 12.969679 C 34.089988 19.370256 39.433590 25.124905 39.962078 25.829555 C 41.019054 27.121415 40.901612 27.238857 29.568478 39.335362 L 18.059182 51.608029 L 14.888253 51.608029 L 11.717324 51.608029 L 6.432444 41.977802 Z" transform="scale(1.000000,1.000000) translate(176.000000,88.000000)" fill="#1b58a8" opacity="1.000000"></path>
        <path d="M 1.730789 34.953972 C 1.906952 33.485950 2.200556 30.608626 2.376719 28.494673 C 3.081370 20.978398 7.485437 3.655734 9.129622 1.894107 C 9.481948 1.483061 22.341825 6.356895 23.281359 7.296429 C 23.516243 7.472592 23.809847 8.940615 24.044731 10.467358 L 24.397056 13.285961 L 15.177875 23.092352 C 10.186599 28.494674 5.019160 33.955718 3.727300 35.247578 L 1.437185 37.596414 L 1.730789 34.953974 Z" transform="scale(1.000000,1.000000) translate(10.000000,75.000000)" fill="#1b58a8" opacity="1.000000"></path>
        <path d="M 12.977773 25.147575 C 6.694637 18.453393 1.703360 12.698744 1.820802 12.346420 C 1.938244 12.052815 2.231848 10.760955 2.408011 9.469096 L 2.760336 7.237701 L 9.748123 4.301657 C 13.564981 2.716192 16.912073 1.600495 17.146956 1.894100 C 17.969049 2.774913 21.198699 13.579558 22.431837 19.627812 C 23.430093 24.560367 24.839394 36.656872 24.487069 37.126639 C 24.428348 37.244081 19.260909 31.841758 12.977772 25.147576 Z" transform="scale(1.000000,1.000000) translate(194.000000,75.000000)" fill="#1b58a8" opacity="1.000000"></path>
        <path d="M 6.075533 22.620846 C 1.495303 14.223757 0.966815 12.990619 1.612745 11.933642 C 2.023791 11.287712 2.493559 9.995852 2.728442 8.997597 C 3.080768 7.294691 3.315651 7.177249 12.358669 4.534809 C 24.983662 0.776671 23.985407 0.894113 25.218546 2.597019 C 26.334243 4.065042 26.334243 4.065042 20.520874 18.099336 C 14.824947 32.074910 14.766226 32.133631 13.004599 32.133631 C 11.360414 32.133631 10.949367 31.663864 6.075533 22.620845 Z" transform="scale(1.000000,1.000000) translate(44.000000,76.000000)" fill="#1b58a8" opacity="1.000000"></path>
        <path d="M 6.755713 18.158054 C 1.059785 4.358643 0.942344 4.123760 1.940599 2.597016 C 2.703971 1.481319 3.291180 1.187714 4.230714 1.422598 C 4.876644 1.598761 9.691758 2.949341 14.859197 4.476085 C 23.960936 7.177246 24.195820 7.294688 24.548145 8.997594 C 24.783029 9.995849 25.252796 11.287709 25.663842 11.933639 C 26.251051 12.931894 25.722563 14.341196 21.201054 22.620843 C 16.327219 31.663861 15.916173 32.133629 14.271988 32.192349 C 12.510361 32.192349 12.451640 32.074907 6.755713 18.158054 Z" transform="scale(1.000000,1.000000) translate(159.000000,76.000000)" fill="#1b58a8" opacity="1.000000"></path>
        <path d="M 5.319146 39.712710 C 5.142983 39.242942 4.320891 38.479571 3.440077 38.127245 L 1.913334 37.422594 L 2.148217 20.569696 C 2.206938 11.291794 2.500543 3.540635 2.735426 3.305752 C 2.911589 3.070869 10.780189 2.601101 20.234254 2.248776 L 37.322035 1.544125 L 38.261570 3.012148 C 38.790058 3.834240 39.612150 4.773775 40.140639 5.126100 C 41.138894 5.889472 41.080173 6.006913 36.852268 20.510976 C 34.855758 27.381321 34.679595 27.674925 33.152852 27.674925 C 30.862737 27.674925 28.572621 29.730157 27.867971 32.431318 C 27.515645 33.664457 27.104599 34.721433 26.987157 34.721433 C 26.869715 34.721433 22.230764 36.072014 16.652279 37.657478 C 11.073794 39.301664 6.317401 40.593523 6.082517 40.593523 C 5.847634 40.593523 5.554029 40.182477 5.319145 39.712710 Z" transform="scale(1.000000,1.000000) translate(40.000000,40.000000)" fill="#1b58a8" opacity="1.000000"></path>
        <path d="M 25.448136 37.657478 C 20.045813 36.130735 15.348141 34.662712 14.995816 34.427829 C 14.702212 34.251666 14.408607 33.370853 14.408607 32.607481 C 14.408607 30.493529 11.413842 27.674926 9.182448 27.674926 C 7.655704 27.674926 7.362100 27.381321 6.833612 25.502252 C 6.481286 24.269114 5.071985 19.395279 3.662683 14.697607 L 1.137684 6.124356 L 3.075474 3.892962 L 5.013264 1.602847 L 22.101045 2.248776 C 31.496389 2.601102 39.306268 3.070869 39.541153 3.247032 C 39.717315 3.481915 40.010920 11.233074 40.128362 20.569697 C 40.363245 37.128991 40.363245 37.540036 39.247548 37.892362 C 38.601618 38.127246 37.603363 38.773175 37.016154 39.419105 C 36.428945 40.065035 35.783015 40.593523 35.606852 40.534802 C 35.430690 40.534802 30.850459 39.242943 25.448137 37.657478 Z" transform="scale(1.000000,1.000000) translate(148.000000,40.000000)" fill="#1b58a8" opacity="1.000000"></path>
        <path d="M 8.937756 34.011545 C 5.238340 32.426080 1.949970 31.075500 1.656365 30.958058 C 0.070901 30.370849 11.815080 11.169115 17.687170 4.709816 L 20.623215 1.480166 L 20.681936 13.576672 C 20.681936 27.963292 20.212169 34.657475 19.213913 34.657475 C 18.802867 34.657475 17.863333 35.185963 17.099961 35.773172 C 15.690659 36.888869 15.631939 36.888869 8.937756 34.011545 Z" transform="scale(1.000000,1.000000) translate(19.000000,43.000000)" fill="#1b58a8" opacity="1.000000"></path>
        <path d="M 5.176624 35.773172 C 4.413252 35.127242 3.473718 34.657475 3.062672 34.657475 C 1.888254 34.657475 1.594649 31.075500 1.653370 15.866787 L 1.653370 1.480167 L 4.589415 4.709816 C 8.582436 9.055163 15.217898 19.037715 18.388826 25.438293 C 19.856849 28.315617 20.972546 30.723174 20.855104 30.840616 C 20.737662 30.958057 17.508013 32.308638 13.573713 33.952823 C 6.585926 36.830147 6.527205 36.830147 5.176624 35.773171 Z" transform="scale(1.000000,1.000000) translate(189.000000,43.000000)" fill="#1b58a8" opacity="1.000000"></path>
        <path d="M 2.320289 26.025499 C 1.498197 25.027244 1.674359 24.146430 4.434241 14.457481 L 7.487728 4.005162 L 9.660401 3.241790 C 10.893540 2.830744 12.185400 2.243535 12.596446 1.891210 C 13.124934 1.480163 15.943537 2.772023 22.696441 6.471440 C 31.856902 11.462716 32.091785 11.697600 32.091785 13.517948 L 32.091785 15.455737 L 18.879583 20.916781 C 11.598192 23.970268 5.138893 26.612708 4.492963 26.788871 C 3.729591 26.965033 2.907498 26.671429 2.320289 26.025499 Z" transform="scale(1.000000,1.000000) translate(76.000000,43.000000)" fill="#1b58a8" opacity="1.000000"></path>
        <path d="M 14.984210 21.210396 L 1.184799 15.455748 L 1.184799 13.517958 C 1.184799 11.697610 1.419682 11.521447 10.521421 6.471450 L 19.858044 1.304011 L 21.678392 2.419708 C 22.676647 3.006917 23.968507 3.535405 24.496995 3.535405 C 25.553971 3.535405 25.612692 3.652847 30.134201 19.096443 C 31.719666 24.440045 31.778387 25.085975 30.956294 26.025509 C 30.486527 26.553998 29.781876 27.023765 29.429551 27.023765 C 29.077225 26.965044 22.559206 24.381324 14.984209 21.210396 Z" transform="scale(1.000000,1.000000) translate(121.000000,43.000000)" fill="#1b58a8" opacity="1.000000"></path>
        <path d="M 11.164462 35.298766 C 6.173185 32.538884 2.062722 30.248769 2.004001 30.190048 C 1.945280 30.190048 1.769118 28.780747 1.592955 27.136562 L 1.240630 24.141796 L 13.572018 12.573778 C 24.552827 2.297621 26.020849 1.123203 26.960383 1.769133 C 27.488871 2.180180 33.184798 7.406340 39.526655 13.337151 L 51.035951 24.141796 L 50.683626 27.136562 C 50.507463 28.780747 50.331300 30.131327 50.272579 30.190048 C 50.213859 30.248769 46.044675 32.538884 40.994677 35.357487 L 31.775496 40.407485 L 29.426660 39.174346 C 26.901662 37.882486 23.554571 38.058649 22.262711 39.585392 C 21.910385 40.055160 21.264456 40.407485 20.912130 40.407485 C 20.559805 40.348764 16.155737 38.117370 11.164461 35.298767 Z" transform="scale(1.000000,1.000000) translate(89.000000,12.000000)" fill="#1b58a8" opacity="1.000000"></path>
        <path d="M 4.609257 17.846454 C 9.189488 13.559828 18.467390 7.217971 25.279014 3.812159 C 28.273780 2.344137 30.798778 1.110998 30.974941 1.110998 C 31.092383 1.110998 32.560405 4.281926 34.204591 8.157506 L 37.258077 15.262735 L 36.024938 16.789478 C 35.379008 17.611570 34.850520 18.609826 34.850520 19.020872 C 34.850520 19.960406 29.800523 20.371453 13.417392 20.782499 L 1.086004 21.134824 L 4.609258 17.846454 Z" transform="scale(1.000000,1.000000) translate(43.000000,19.000000)" fill="#1b58a8" opacity="1.000000"></path>
        <path d="M 16.170241 20.488894 C 11.472569 20.254010 6.951060 20.019127 6.070246 19.960406 C 5.130712 19.960406 4.426061 19.549360 4.426061 19.079592 C 4.426061 18.668546 3.897573 17.611570 3.192922 16.730756 L 1.959783 15.145292 L 4.778387 8.568552 C 6.305130 4.927856 7.773152 1.756927 7.949315 1.522044 C 9.006291 0.347626 24.567329 9.449365 32.318488 15.791222 C 39.071391 21.310986 39.130113 21.076103 31.378954 20.958661 C 27.679537 20.899940 20.867913 20.665056 16.170241 20.488894 Z" transform="scale(1.000000,1.000000) translate(148.000000,19.000000)" fill="#1b58a8" opacity="1.000000"></path>
        <path d="M 9.014468 23.381924 C 6.489469 22.735994 6.489469 22.735994 3.553424 16.041812 C 1.967960 12.342395 0.852263 9.112746 1.087147 8.877862 C 2.261565 7.820886 15.591209 4.062749 21.698181 3.064494 C 30.095270 1.713913 36.026080 1.244146 35.791197 1.948796 C 35.497592 2.712168 12.479000 24.204018 11.950513 24.145296 C 11.715629 24.086575 10.423770 23.792970 9.014468 23.381924 Z" transform="scale(1.000000,1.000000) translate(76.000000,10.000000)" fill="#1b58a8" opacity="1.000000"></path>
        <path d="M 13.701066 12.929593 C 7.124326 6.763899 1.839444 1.596460 1.956887 1.537739 C 2.367933 1.126693 14.934206 2.653436 19.984203 3.651692 C 25.445247 4.826110 36.308612 8.114480 37.130706 8.819131 C 37.365590 9.054014 36.191172 12.283664 34.605707 16.041801 C 31.845825 22.442379 31.552221 22.912146 29.790594 23.205751 C 28.733617 23.440635 27.383037 23.675518 26.737107 23.851681 C 25.856293 24.086564 22.861528 21.561566 13.701067 12.929593 Z" transform="scale(1.000000,1.000000) translate(116.000000,10.000000)" fill="#1b58a8" opacity="1.000000"></path>
        <path d="M 79.628106 44.023149 C 79.628106 67.755668 62.038156 86.994677 40.339852 86.994677 C 18.641548 86.994677 1.051597 67.755668 1.051597 44.023149 C 1.051597 20.290629 18.641548 1.051620 40.339852 1.051620 C 62.038156 1.051620 79.628106 20.290629 79.628106 44.023149 Z" transform="scale(1.000000,1.000000) translate(72.000000,72.000000)" fill="#1b58a8" opacity="1.000000"></path>
    </g>
</svg>