<?xml version="1.0" encoding="UTF-8" standalone="no"?>
<svg
   xmlns:dc="http://purl.org/dc/elements/1.1/"
   xmlns:cc="http://creativecommons.org/ns#"
   xmlns:rdf="http://www.w3.org/1999/02/22-rdf-syntax-ns#"
   xmlns:svg="http://www.w3.org/2000/svg"
   xmlns="http://www.w3.org/2000/svg"
   viewBox="0 0 347.50668 347.51999"
   height="347.51999"
   width="347.50668"
   xml:space="preserve"
   id="svg2"
   version="1.1"><metadata
     id="metadata8"><rdf:RDF><cc:Work
         rdf:about=""><dc:format>image/svg+xml</dc:format><dc:type
           rdf:resource="http://purl.org/dc/dcmitype/StillImage" /></cc:Work></rdf:RDF></metadata><defs
     id="defs6" /><g
     transform="matrix(1.3333333,0,0,-1.3333333,0,347.52)"
     id="g10"><g
       transform="scale(0.1)"
       id="g12"><path
         id="path14"
         style="fill:#3872c1;fill-opacity:1;fill-rule:nonzero;stroke:none"
         d="m 276.086,1693.54 c 0,6.7 0.992,13.15 2.5,19.41 L 93.75,1790.48 C 36.4805,1648.5 3.59766,1494.19 0,1332.55 l 292.18,312 c -10,13.8 -16.094,30.63 -16.094,48.99 z m 719.059,553.48 c 0,-9.27 -1.852,-18.02 -4.625,-26.34 l 245.62,-134.51 c 15.35,19.38 38.81,32.07 65.48,32.09 26.46,-0.02 49.76,-12.52 65.1,-31.64 l 244.8,134.06 c -2.77,8.32 -4.62,17.09 -4.62,26.34 0,15.67 4.57,30.16 12.06,42.71 l -317.95,297.75 -317.924,-297.75 c 7.488,-12.55 12.059,-27.04 12.059,-42.71 z M 292.07,864.02 106.121,785.988 C 166.77,645.781 251.379,518.512 354.688,408.961 l -7.43,421.43 c -22.68,3.449 -42.324,15.808 -55.188,33.629 z m -15.984,48.878 c 0,18.352 6.094,35.192 16.094,48.993 L 0,1273.88 C 3.57813,1112.28 36.4648,957.941 93.7227,815.969 L 278.563,893.5 c -1.485,6.27 -2.477,12.68 -2.477,19.398 z m 245.809,323.682 c -18.86,15.37 -31.141,38.48 -31.153,64.7 0.012,26.92 12.918,50.59 32.637,65.94 l -135.637,247.67 c -8.765,-3.1 -18.047,-5.11 -27.887,-5.11 -16.144,0 -31.093,4.8 -43.91,12.71 L 16.9766,1303.22 315.945,983.93 c 12.817,7.949 27.746,12.742 43.91,12.742 9.84,0 19.122,-2.024 27.887,-5.113 z m 371.777,1092.27 c 5.703,1.22 11.609,1.95 17.695,1.95 18.86,0 36.043,-6.44 50.039,-16.94 l 312.234,292.41 c -161.83,-3.6 -316.167,-36.94 -458.257,-94.3 z m -29.785,-12.88 -78.797,183.49 C 640.527,2436.8 509.441,2348.86 397.676,2240.91 l 431.035,17.24 c 3.223,23.94 16.199,44.74 35.176,57.82 z m -430.559,-582.95 269.57,78.14 c -0.132,1.99 -0.585,3.9 -0.585,5.94 0,46.26 37.511,83.76 83.773,83.76 3.023,0 5.918,-0.58 8.887,-0.89 l 79.297,272.31 c -21.372,10.62 -37.407,29.93 -43.606,53.47 l -443.328,-17.73 -7.629,-433.32 c 23.313,-5.68 42.527,-21.08 53.621,-41.68 z m -86.031,43.06 7.391,421.3 C 251.379,2087.88 166.777,1960.61 106.133,1820.48 l 185.957,-78.04 c 12.859,17.81 32.512,30.17 55.207,33.64 z M 2168.7,873.441 1899.14,795.289 c 0.14,-2.008 0.59,-3.91 0.59,-5.937 0,-46.282 -37.51,-83.782 -83.78,-83.793 -3.06,0 -5.95,0.582 -8.93,0.91 l -79.25,-272.297 c 21.34,-10.633 37.42,-29.934 43.61,-53.461 l 443.34,17.68 7.59,433.359 c -23.28,5.68 -42.53,21.078 -53.61,41.691 z m 416.35,429.789 -298.99,319.26 c -12.79,-7.91 -27.74,-12.71 -43.88,-12.71 -9.83,0 -19.12,2.01 -27.89,5.11 l -135.63,-247.67 c 19.73,-15.33 32.63,-39.02 32.64,-65.94 -0.01,-26.24 -12.33,-49.38 -31.19,-64.72 l 134.18,-245.021 c 8.75,3.109 18.06,5.133 27.89,5.133 16.15,0 31.1,-4.793 43.9,-12.723 z M 874.27,434.172 794.988,706.469 c -2.968,-0.328 -5.855,-0.91 -8.902,-0.91 -46.262,0.011 -83.773,37.511 -83.773,83.793 0,2.027 0.453,3.929 0.585,5.937 l -269.57,78.152 C 422.234,852.82 402.98,837.41 379.68,831.73 l 7.617,-433.32 443.367,-17.699 c 6.199,23.527 22.246,42.828 43.606,53.461 z m 1380.49,396.199 -7.48,-425.793 c 104.86,110.141 190.7,238.473 252.1,379.953 l -189.43,79.489 c -12.86,-17.821 -32.52,-30.18 -55.19,-33.649 z m 71.19,82.527 c 0,-6.718 -1,-13.148 -2.48,-19.398 l 188.39,-79.012 c 58.15,143.731 91.35,300.092 94.4,463.962 L 2309.87,961.871 c 10,-13.781 16.08,-30.621 16.08,-48.973 z m -587.83,-622.449 78.16,-182.32 c 0.49,-1.117 0.49,-2.27 0.68,-3.418 146.43,62.859 278.83,151.867 391.76,261 l -435.39,-17.41 c -3.22,-23.942 -16.2,-44.742 -35.21,-57.852 z M 911.367,275.648 c -6.086,0 -11.992,0.731 -17.695,1.961 L 815.598,95.3789 v -0.0391 l -29.828,12.7892 78.136,182.332 c -18.996,13.109 -31.972,33.898 -35.195,57.84 L 397.605,365.539 C 625.598,145.32 933.508,7.64844 1273.68,0.0898438 L 961.406,292.578 c -14.011,-10.488 -31.203,-16.93 -50.039,-16.93 z m 796.983,1.961 c -5.7,-1.23 -11.6,-1.961 -17.67,-1.961 -18.85,0 -36.06,6.442 -50.05,16.954 L 1328.18,-0.0195313 C 1490.46,3.07031 1645.4,35.7188 1788,92.9102 c -0.56,0.789 -1.13,1.5507 -1.54,2.4687 z M 1606.9,359.43 c 0,9.25 1.85,18.019 4.63,26.34 L 1365.9,520.309 c -15.38,-18.559 -38.3,-30.629 -64.28,-30.637 -26.2,0.008 -49.31,12.277 -64.66,31.09 L 990.48,385.801 c 2.813,-8.332 4.665,-17.102 4.665,-26.371 0,-15.68 -4.547,-30.168 -12.059,-42.711 L 1301.03,18.9805 1618.96,316.719 c -7.5,12.543 -12.06,27.031 -12.06,42.711 z M 855.188,742.051 c -7.461,-10.871 -17.598,-19.61 -29.219,-25.93 l 79.644,-273.512 c 1.938,0.141 3.782,0.582 5.754,0.582 25.321,0 47.742,-11.472 63.106,-29.211 l 247.297,135.469 c -2.31,7.621 -3.93,15.582 -3.93,24 0,5.871 0.63,11.602 1.78,17.141 z M 1627.57,413.98 c 15.36,17.739 37.78,29.211 63.11,29.211 1.96,0 3.8,-0.441 5.76,-0.582 l 79.63,273.512 c -11.65,6.34 -21.74,15.059 -29.21,25.93 L 1383.47,591.059 c 1.23,-5.7 1.93,-11.571 1.93,-17.61 0,-8.629 -1.68,-16.777 -4.09,-24.59 z m 698.38,1279.56 c 0,-18.36 -6.08,-35.19 -16.08,-48.99 l 296.39,-316.51 c -3.09,163.83 -36.27,320.23 -94.43,463.93 l -188.36,-79.02 c 1.48,-6.26 2.48,-12.69 2.48,-19.41 z m -598.21,478.73 79.3,-272.3 c 2.96,0.31 5.85,0.89 8.91,0.89 46.27,0 83.78,-37.5 83.78,-83.76 0,-2.04 -0.45,-3.96 -0.59,-5.96 l 269.56,-78.13 c 11.09,20.6 30.33,36.01 53.61,41.69 l -7.59,433.32 -443.34,17.74 c -6.19,-23.55 -22.27,-42.86 -43.64,-53.49 z m 582.19,-429.83 189.43,79.46 c -61.42,141.48 -147.26,269.77 -252.1,379.9 l 7.48,-425.72 c 22.69,-3.47 42.32,-15.83 55.19,-33.64 z m -123.54,-767.46 -134.92,246.43 c -7.65,-2.3 -15.56,-3.91 -23.94,-3.91 -5.76,0 -11.39,0.58 -16.8,1.68 L 1861.26,859.641 c 12.59,-8.11 22.64,-19.571 29.36,-33.032 l 268.62,77.86 c -0.29,2.812 -0.84,5.519 -0.84,8.429 0,24.743 10.93,46.743 27.99,62.082 z M 974.492,2192.48 c -15.383,-17.77 -37.804,-29.22 -63.125,-29.24 -1.972,0 -3.84,0.44 -5.769,0.58 l -79.629,-273.47 c 11.629,-6.37 21.758,-15.1 29.219,-25.97 l 364.822,151.65 c -1.33,5.94 -2.17,12.09 -2.17,18.45 0,7.94 1.45,15.5 3.54,22.79 z m 716.188,138.32 c 6.07,0 11.97,-0.73 17.67,-1.95 l 78.11,182.22 v -0.04 c 0.41,0.94 1.11,1.58 1.64,2.38 -142.56,57.21 -297.52,89.87 -459.81,92.97 l 312.34,-292.52 c 14,10.5 31.22,16.94 50.05,16.94 z m 56.18,-466.42 c 7.47,10.87 17.56,19.6 29.21,25.95 l -79.6,273.49 c -1.95,-0.14 -3.8,-0.58 -5.79,-0.58 -25.35,0.02 -47.75,11.47 -63.13,29.24 l -245.86,-134.63 c 2.19,-7.48 3.71,-15.2 3.71,-23.37 0,-6.52 -0.91,-12.8 -2.32,-18.91 z m 411.54,-170.84 c 0,2.9 0.55,5.65 0.86,8.47 l -268.61,77.84 c -6.75,-13.46 -16.79,-24.92 -29.35,-33.06 l 151.01,-363.25 c 4.94,0.91 10,1.54 15.22,1.54 7.69,0 15.01,-1.38 22.11,-3.32 l 136.75,249.7 c -17.06,15.34 -27.99,37.34 -27.99,62.08 z m -1742.748,-62.08 136.743,-249.7 c 7.085,1.94 14.421,3.32 22.125,3.32 5.207,0 10.277,-0.63 15.214,-1.54 l 150.981,363.28 c -12.539,8.13 -22.57,19.57 -29.297,33.03 l -268.613,-77.86 c 0.293,-2.82 0.84,-5.55 0.84,-8.45 0,-24.74 -10.93,-46.74 -27.993,-62.08 z M 711.418,826.609 c 6.727,13.442 16.758,24.903 29.312,33.012 L 591.301,1219.18 c -5.434,-1.1 -11.028,-1.68 -16.781,-1.68 -8.387,0 -16.305,1.59 -23.946,3.89 L 415.613,974.98 c 17.102,-15.339 28.032,-37.32 28.032,-62.082 0,-2.886 -0.547,-5.617 -0.84,-8.429 z m 1119.732,44.993 149.68,360.118 c -22.36,15.03 -37.09,40.58 -37.09,69.56 0,29.53 15.34,55.35 38.4,70.28 l -150.99,363.28 c -4.93,-0.91 -10.01,-1.54 -15.2,-1.54 -46.26,0.01 -83.75,37.5 -83.77,83.8 0,5.99 0.68,11.83 1.87,17.47 l -364.28,151.45 c -15.21,-21.32 -39.98,-35.32 -68.15,-35.32 -28.35,0 -53.27,14.14 -68.45,35.69 L 867.961,1834.6 c 1.199,-5.66 1.902,-11.49 1.902,-17.5 -0.008,-46.3 -37.508,-83.79 -83.777,-83.8 -5.227,0 -10.258,0.63 -15.227,1.54 L 619.871,1371.57 c 23.09,-14.92 38.442,-40.74 38.442,-70.29 0,-29 -14.739,-54.53 -37.122,-69.56 l 149.7,-360.118 c 4.937,0.91 9.988,1.527 15.195,1.527 46.269,0 83.769,-37.508 83.777,-83.777 0,-6.012 -0.703,-11.864 -1.902,-17.5 L 1232.28,620.441 c 15.07,22.188 40.48,36.789 69.34,36.789 28.68,0 53.94,-14.449 69.03,-36.421 l 363.4,151.062 c -1.19,5.641 -1.87,11.469 -1.87,17.481 0.02,46.269 37.51,83.777 83.77,83.777 5.19,0 10.27,-0.617 15.2,-1.527 z m -57.82,1386.548 435.32,-17.4 c -112.94,109.08 -245.32,198.07 -391.69,260.92 -0.21,-1.12 -0.23,-2.28 -0.71,-3.37 L 1738.12,2316 c 18.99,-13.11 31.99,-33.91 35.21,-57.85" /></g></g></svg>