<?xml version="1.0" encoding="UTF-8" standalone="yes"?>
<!DOCTYPE svg PUBLIC "-//W3C//DTD SVG 1.1//EN" "http://www.w3.org/Graphics/SVG/1.1/DTD/svg11.dtd">

<svg width="300" height="300" viewBox="0 0 300 300" xmlns="http://www.w3.org/2000/svg" xmlns:xlink="http://www.w3.org/1999/xlink" version="1.1" baseProfile="full">
    <g transform="scale(1,-1) translate(0,-300)">
        <path d="M 46.606181 25.414380 L 46.606181 70.229394 L 39.026475 70.229394 L 39.026475 63.218165 L 38.931728 63.218165 Q 36.752563 67.292257 32.867963 69.329303 Q 28.983364 71.366350 24.340793 71.366350 Q 17.992789 71.366350 13.634458 68.950318 Q 9.276127 66.534287 6.623230 62.791807 Q 3.970332 59.049327 2.833376 54.454130 Q 1.696421 49.858933 1.696421 45.500601 Q 1.696421 40.479046 3.070242 35.978595 Q 4.444064 31.478145 7.191708 28.114650 Q 9.939351 24.751155 14.013443 22.761482 Q 18.087536 20.771809 23.582823 20.771809 Q 28.320139 20.771809 32.536351 22.903602 Q 36.752563 25.035394 38.836982 29.583218 L 39.026475 29.583218 L 39.026475 26.361843 Q 39.026475 22.287751 38.221131 18.876883 Q 37.415787 15.466015 35.615607 13.049984 Q 33.815426 10.633952 31.067783 9.260130 Q 28.320139 7.886309 24.340793 7.886309 Q 22.351120 7.886309 20.171955 8.312667 Q 17.992789 8.739025 16.145236 9.686489 Q 14.297682 10.633952 13.018607 12.149893 Q 11.739532 13.665835 11.644785 15.845000 L 3.591347 15.845000 Q 3.780840 11.865654 5.675766 9.118011 Q 7.570693 6.370367 10.460456 4.664933 Q 13.350219 2.959499 16.903206 2.201529 Q 20.456194 1.443558 23.867062 1.443558 Q 35.615607 1.443558 41.110894 7.412577 Q 46.606181 13.381596 46.606181 25.414380 Z M 24.056554 27.783038 Q 20.077209 27.783038 17.424311 29.441099 Q 14.771414 31.099159 13.160726 33.799430 Q 11.550039 36.499700 10.886815 39.815822 Q 10.223590 43.131943 10.223590 46.448065 Q 10.223590 49.953679 11.028934 53.175054 Q 11.834278 56.396429 13.587085 58.859834 Q 15.339892 61.323239 18.087536 62.791807 Q 20.835179 64.260375 24.719779 64.260375 Q 28.509632 64.260375 31.162529 62.744434 Q 33.815426 61.228492 35.473487 58.717715 Q 37.131548 56.206937 37.889519 53.080308 Q 38.647489 49.953679 38.647489 46.732304 Q 38.647489 43.321436 37.842145 39.910568 Q 37.036802 36.499700 35.331368 33.799430 Q 33.625934 31.099159 30.830917 29.441099 Q 28.035900 27.783038 24.056554 27.783038 Z M 92.747644 50.427411 L 64.607984 50.427411 Q 64.797476 53.269801 65.839686 55.780578 Q 66.881896 58.291356 68.682076 60.186283 Q 70.482256 62.081209 72.993034 63.170792 Q 75.503812 64.260375 78.630440 64.260375 Q 81.662323 64.260375 84.173101 63.170792 Q 86.683878 62.081209 88.531432 60.233656 Q 90.378985 58.386102 91.468568 55.827951 Q 92.558151 53.269801 92.747644 50.427411 Z M 100.516843 36.783939 L 92.558151 36.783939 Q 91.515941 31.951876 88.247193 29.583218 Q 84.978445 27.214560 79.862143 27.214560 Q 75.882797 27.214560 72.945661 28.541008 Q 70.008524 29.867457 68.113598 32.093996 Q 66.218671 34.320535 65.365954 37.210298 Q 64.513237 40.100061 64.607984 43.321436 L 101.274813 43.321436 Q 101.464306 47.774513 100.469469 52.701323 Q 99.474633 57.628132 96.869109 61.796970 Q 94.263585 65.965809 89.952627 68.666079 Q 85.641669 71.366350 79.104172 71.366350 Q 74.082617 71.366350 69.866405 69.471423 Q 65.650193 67.576496 62.570937 64.165628 Q 59.491682 60.754761 57.786248 56.112190 Q 56.080814 51.469620 56.080814 45.879587 Q 56.270307 40.289553 57.738875 35.552237 Q 59.207443 30.814920 62.144579 27.404052 Q 65.081715 23.993185 69.392673 22.098258 Q 73.703631 20.203331 79.577904 20.203331 Q 87.915581 20.203331 93.410868 24.372170 Q 98.906155 28.541008 100.516843 36.783939 Z M 109.612490 70.229394 L 109.612490 21.245541 L 117.665928 21.245541 L 117.665928 51.753859 Q 117.665928 53.175054 118.376526 55.306847 Q 119.087123 57.438639 120.650438 59.428312 Q 122.213752 61.417985 124.724530 62.839180 Q 127.235308 64.260375 130.740922 64.260375 Q 133.488565 64.260375 135.241373 63.455031 Q 136.994180 62.649687 138.036389 61.181119 Q 139.078599 59.712551 139.504957 57.722878 Q 139.931316 55.733205 139.931316 53.364547 L 139.931316 21.245541 L 147.984754 21.245541 L 147.984754 51.753859 Q 147.984754 57.438639 151.395622 60.849507 Q 154.806490 64.260375 160.775508 64.260375 Q 163.712645 64.260375 165.560198 63.407658 Q 167.407752 62.554941 168.449961 61.086373 Q 169.492171 59.617805 169.871156 57.628132 Q 170.250141 55.638459 170.250141 53.364547 L 170.250141 21.245541 L 178.303579 21.245541 L 178.303579 57.154400 Q 178.303579 60.944253 177.119250 63.644524 Q 175.934921 66.344794 173.803129 68.050228 Q 171.671336 69.755662 168.686827 70.561006 Q 165.702318 71.366350 162.007211 71.366350 Q 157.175148 71.366350 153.148429 69.187184 Q 149.121710 67.008018 146.658305 63.028673 Q 145.142364 67.576496 141.447257 69.471423 Q 137.752150 71.366350 133.204326 71.366350 Q 122.876976 71.366350 117.381689 63.028673 L 117.192197 63.028673 L 117.192197 70.229394 Z" transform="scale(1.000000,1.000000) translate(60.000000,14.000000)" fill="#212f3e" opacity="1.000000"></path>
        <path d="M 1.211187 1.976890 C 0.892633 2.494541 2.007573 2.932553 3.003056 2.653818 C 3.441068 2.534360 3.918900 2.613999 4.038358 2.813096 C 4.157815 3.012192 4.834744 3.171469 5.591310 3.171469 C 7.781372 3.171469 15.147943 4.724422 20.085537 6.197736 C 47.162664 14.440332 77.704070 37.137336 99.166675 65.090487 C 110.634635 80.062545 118.797592 95.432797 123.058257 110.245578 C 124.292656 114.546063 125.566874 120.797694 125.765970 123.425768 C 125.845609 123.983238 126.044705 124.381431 126.243802 124.301792 C 126.482718 124.261973 126.602175 122.987755 126.602175 121.514441 C 126.562356 120.041127 124.690849 94.755869 122.460968 65.289584 C 119.514339 26.943594 118.200302 11.573342 117.841929 11.175149 C 117.443736 10.737137 105.020113 9.662016 61.656891 6.277375 C 31.035846 3.928036 5.471852 2.016709 4.874563 2.096348 C 4.277273 2.175987 3.679984 2.096348 3.560526 1.897252 C 3.281791 1.459239 1.489922 1.499058 1.211187 1.976890 Z" transform="scale(1.000000,1.000000) translate(104.000000,113.000000)" fill="#a60a16" opacity="1.000000"></path>
        <path d="M 1.092566 1.335264 C 0.933289 1.534360 1.012928 1.813096 1.212024 1.932553 C 1.411121 2.091831 1.689856 2.012192 1.809314 1.813096 C 1.968591 1.613999 1.888952 1.335264 1.689856 1.215806 C 1.490759 1.056529 1.212024 1.136167 1.092566 1.335264 Z" transform="scale(1.000000,1.000000) translate(95.000000,114.000000)" fill="#a60a16" opacity="1.000000"></path>
        <path d="M 1.517864 1.529843 C 1.358587 1.728940 1.438225 2.007675 1.637322 2.127133 C 1.836418 2.286410 2.115153 2.206771 2.234611 2.007675 C 2.393888 1.808578 2.314250 1.529843 2.115153 1.410385 C 1.916057 1.251108 1.637322 1.330746 1.517864 1.529843 Z" transform="scale(1.000000,1.000000) translate(89.000000,115.000000)" fill="#a60a16" opacity="1.000000"></path>
        <path d="M 1.413633 2.014198 C 1.254355 2.213294 1.333994 2.492029 1.533090 2.611487 C 1.732187 2.770764 2.010922 2.691126 2.130380 2.492029 C 2.289657 2.292933 2.210019 2.014198 2.010922 1.894740 C 1.811826 1.735462 1.533090 1.815101 1.413633 2.014198 Z" transform="scale(1.000000,1.000000) translate(68.000000,140.000000)" fill="#a60a16" opacity="1.000000"></path>
        <path d="M 2.015440 1.996128 C 1.856162 2.195225 1.935801 2.473960 2.134897 2.593418 C 2.333994 2.752695 2.612729 2.673056 2.732187 2.473960 C 2.891464 2.274863 2.811826 1.996128 2.612729 1.876670 C 2.413633 1.717393 2.134897 1.797031 2.015440 1.996128 Z" transform="scale(1.000000,1.000000) translate(67.000000,144.000000)" fill="#a60a16" opacity="1.000000"></path>
        <path d="M 1.243802 1.536191 C 0.885428 2.412215 1.164163 4.004988 1.641995 3.925349 C 1.880911 3.885530 2.080007 3.367879 2.159646 2.770589 C 2.318923 1.496371 1.602175 0.540708 1.243802 1.536191 Z" transform="scale(1.000000,1.000000) translate(229.000000,237.000000)" fill="#a60a16" opacity="1.000000"></path>
        <path d="M 1.885428 2.128126 C 1.726151 2.327222 1.805789 2.605957 2.004886 2.725415 C 2.203982 2.884692 2.482718 2.805054 2.602175 2.605957 C 2.761453 2.406861 2.681814 2.128126 2.482718 2.008668 C 2.283621 1.849390 2.004886 1.929029 1.885428 2.128126 Z" transform="scale(1.000000,1.000000) translate(228.000000,247.000000)" fill="#a60a16" opacity="1.000000"></path>
        <path d="M 37.454620 2.649301 C 37.175885 3.366048 33.193955 15.192382 28.614735 28.969861 C 24.035515 42.707521 20.173042 53.896745 20.013765 53.856926 C 19.854488 53.777287 15.912377 48.998971 11.253518 43.185352 C 6.594660 37.371734 2.612729 32.633237 2.373813 32.633237 C 1.816343 32.633237 1.577427 81.372065 2.134897 81.929535 C 2.413633 82.208270 5.400080 77.947605 11.372976 68.908623 C 16.230931 61.542052 20.411958 55.529337 20.650874 55.529337 C 20.889790 55.529337 29.968591 58.475965 40.839261 62.099522 L 60.589636 68.709526 L 80.658565 86.548575 C 91.688512 96.383943 100.886772 104.268165 101.046049 104.108888 C 101.683158 103.551417 120.039857 45.415233 119.721302 45.096679 C 119.562025 44.937402 106.262378 49.994453 90.215198 56.325723 C 74.168019 62.696811 60.987829 67.873321 60.908190 67.873321 C 60.828552 67.873321 55.811319 53.020721 49.758785 34.823299 C 43.706251 16.665696 38.569561 1.693638 38.370464 1.534360 C 38.171368 1.414902 37.773175 1.932553 37.454620 2.649301 Z" transform="scale(1.000000,1.000000) translate(67.000000,114.000000)" fill="#ef313a" opacity="1.000000"></path>
        <path d="M 15.125687 1.586719 C 15.006229 1.865454 17.873219 10.944256 21.456957 21.735287 L 28.027142 41.366204 L 14.528398 50.365367 C 7.082188 55.302961 1.109292 59.523807 1.228750 59.722903 C 1.507485 60.160916 50.684326 60.081277 50.963061 59.643265 C 51.042700 59.483987 46.224564 55.462238 40.211849 50.644102 C 34.199134 45.865785 29.261540 41.804216 29.261540 41.684759 C 29.261540 41.565301 40.012752 36.548068 53.153123 30.575173 C 66.293493 24.602277 77.164163 19.585045 77.243802 19.385948 C 77.363260 19.226671 77.164163 18.908117 76.765970 18.709020 C 76.128861 18.350646 16.041531 1.108888 15.523880 1.108888 C 15.404423 1.108888 15.205326 1.347804 15.125687 1.586719 Z" transform="scale(1.000000,1.000000) translate(153.000000,217.000000)" fill="#ef313a" opacity="1.000000"></path>
        <path d="M 18.653717 1.733457 C 18.374982 2.211289 18.295343 2.569662 18.454620 2.569662 C 18.574078 2.569662 18.494439 2.848397 18.215704 3.166952 C 17.936969 3.485506 17.857331 3.764241 18.016608 3.764241 C 18.175885 3.764241 18.096246 4.042977 17.817511 4.361531 C 17.538776 4.680085 17.459138 4.958821 17.618415 4.958821 C 17.777692 4.958821 17.698053 5.237556 17.419318 5.556110 C 17.140583 5.874665 17.060945 6.153400 17.220222 6.153400 C 17.379499 6.153400 17.299860 6.432135 17.021125 6.750689 C 16.742390 7.069244 16.662751 7.347979 16.822029 7.347979 C 16.981306 7.347979 16.901667 7.626714 16.622932 7.945268 C 16.344197 8.263823 16.264558 8.542558 16.423836 8.542558 C 16.583113 8.542558 16.503474 8.821293 16.224739 9.139847 C 15.946004 9.458402 15.866365 9.737137 16.025643 9.737137 C 16.184920 9.737137 16.105281 10.015872 15.826546 10.334427 C 15.547811 10.652981 15.468172 10.931716 15.627450 10.931716 C 15.786727 10.931716 15.707088 11.210451 15.428353 11.529006 C 15.149618 11.847560 15.069979 12.126295 15.229257 12.126295 C 15.388534 12.126295 15.308895 12.405030 15.030160 12.723585 C 14.751425 13.042139 14.671786 13.320874 14.831063 13.320874 C 14.990341 13.320874 14.910702 13.599610 14.631967 13.918164 C 14.353232 14.236718 14.273593 14.515454 14.432870 14.515454 C 14.592148 14.515454 14.512509 14.794189 14.233774 15.112743 C 13.955039 15.431298 13.875400 15.710033 14.034677 15.710033 C 14.193955 15.710033 14.114316 15.988768 13.835581 16.307322 C 13.556846 16.625877 13.477207 16.904612 13.636484 16.904612 C 13.795762 16.904612 13.716123 17.183347 13.437388 17.501901 C 13.158653 17.820456 13.079014 18.099191 13.238291 18.099191 C 13.397569 18.099191 13.317930 18.377926 13.039195 18.696480 C 12.760460 19.015035 12.680821 19.293770 12.840098 19.293770 C 12.999376 19.293770 12.919737 19.572505 12.641002 19.891060 C 12.362267 20.209614 12.282628 20.488349 12.441905 20.488349 C 12.601182 20.488349 12.521544 20.767084 12.242809 21.085639 C 11.964074 21.404193 11.884435 21.682928 12.043712 21.682928 C 12.202989 21.682928 12.123351 21.961663 11.844616 22.280218 C 11.565881 22.598772 11.486242 22.877507 11.645519 22.877507 C 11.804796 22.877507 11.725158 23.156243 11.446423 23.474797 C 11.167688 23.793351 11.088049 24.072087 11.247326 24.072087 C 11.406603 24.072087 11.326965 24.350822 11.048230 24.669376 C 10.769494 24.987931 10.689856 25.266666 10.849133 25.266666 C 11.008410 25.266666 10.928772 25.545401 10.650037 25.863955 C 10.371301 26.182510 10.291663 26.461245 10.450940 26.461245 C 10.610217 26.461245 10.530579 26.739980 10.251844 27.058534 C 9.973108 27.377089 9.893470 27.655824 10.052747 27.655824 C 10.212024 27.655824 10.132386 27.934559 9.853650 28.253113 C 9.574915 28.571668 9.495277 28.850403 9.654554 28.850403 C 9.813831 28.850403 9.734193 29.129138 9.455457 29.447693 C 9.176722 29.766247 9.097084 30.044982 9.256361 30.044982 C 9.415638 30.044982 9.336000 30.323717 9.057264 30.642272 C 8.778529 30.960826 8.698891 31.239561 8.858168 31.239561 C 9.017445 31.239561 8.937806 31.518296 8.659071 31.836851 C 8.380336 32.155405 8.300698 32.434140 8.459975 32.434140 C 8.619252 32.434140 8.539613 32.712875 8.260878 33.031430 C 7.982143 33.349984 7.902505 33.628719 8.061782 33.628719 C 8.221059 33.628719 8.141420 33.907455 7.862685 34.226009 C 7.583950 34.544563 7.504312 34.823299 7.663589 34.823299 C 7.822866 34.823299 7.743227 35.102034 7.464492 35.420588 C 7.185757 35.739143 7.106118 36.017878 7.265396 36.017878 C 7.424673 36.017878 7.345034 36.296613 7.066299 36.615167 C 6.787564 36.933722 6.707925 37.212457 6.867203 37.212457 C 7.026480 37.212457 6.946841 37.491192 6.668106 37.809746 C 6.389371 38.128301 6.309732 38.407036 6.469010 38.407036 C 6.628287 38.407036 6.548648 38.685771 6.269913 39.004326 C 5.991178 39.322880 5.911539 39.601615 6.070817 39.601615 C 6.230094 39.601615 6.150455 39.880350 5.871720 40.198905 C 5.592985 40.517459 5.513346 40.796194 5.672624 40.796194 C 5.831901 40.796194 5.752262 41.074929 5.473527 41.393484 C 5.194792 41.712038 5.115153 41.990773 5.274431 41.990773 C 5.433708 41.990773 5.354069 42.269508 5.075334 42.588063 C 4.796599 42.906617 4.716960 43.185352 4.876237 43.185352 C 5.035515 43.185352 4.955876 43.464088 4.677141 43.782642 C 4.398406 44.101196 4.318767 44.379932 4.478044 44.379932 C 4.637322 44.379932 4.557683 44.658667 4.278948 44.977221 C 4.000213 45.295776 3.920574 45.574511 4.079851 45.574511 C 4.239129 45.574511 4.159490 45.853246 3.880755 46.171800 C 3.602020 46.490355 3.522381 46.769090 3.681658 46.769090 C 3.840936 46.769090 3.761297 47.047825 3.482562 47.366379 C 3.203827 47.684934 3.124188 47.963669 3.283465 47.963669 C 3.442743 47.963669 3.363104 48.242404 3.084369 48.560959 C 2.805634 48.879513 2.725995 49.158248 2.885272 49.158248 C 3.044549 49.158248 2.964911 49.436983 2.686176 49.755538 C 2.407441 50.074092 2.327802 50.352827 2.487079 50.352827 C 2.646356 50.352827 2.566718 50.631562 2.287983 50.950117 C 2.009248 51.268671 1.929609 51.547406 2.088886 51.547406 C 2.248163 51.547406 2.168525 51.826141 1.889790 52.144696 C 1.611055 52.463250 1.531416 52.741985 1.690693 52.741985 C 1.849970 52.741985 1.770332 52.980901 1.531416 53.299456 C 1.212861 53.697649 1.173042 53.936565 1.491597 54.135661 C 1.690693 54.255119 1.929609 54.294938 1.929609 54.175480 C 2.088886 53.538372 2.208344 53.140178 2.287983 52.941082 C 2.327802 52.821624 2.447260 52.542889 2.487079 52.343792 C 2.526899 52.104877 2.646356 51.865961 2.686176 51.746503 C 2.725995 51.627045 2.845453 51.348310 2.885272 51.149213 C 2.925092 50.910297 3.044549 50.671382 3.084369 50.551924 C 3.124188 50.432466 3.243646 50.153731 3.283465 49.954634 C 3.323285 49.715718 3.442743 49.476803 3.482562 49.357345 C 3.522381 49.237887 3.641839 48.959152 3.681658 48.760055 C 3.721478 48.521139 3.840936 48.282223 3.880755 48.162765 C 3.920574 48.043308 4.040032 47.764572 4.079851 47.565476 C 4.119671 47.326560 4.239129 47.087644 4.278948 46.968186 C 4.318767 46.848728 4.438225 46.569993 4.478044 46.370897 C 4.517864 46.131981 4.637322 45.893065 4.677141 45.773607 C 4.716960 45.654149 4.836418 45.375414 4.876237 45.176318 C 4.916057 44.937402 5.035515 44.698486 5.075334 44.579028 C 5.115153 44.459570 5.234611 44.180835 5.274431 43.981739 C 5.314250 43.742823 5.433708 43.503907 5.473527 43.384449 C 5.513346 43.264991 5.632804 42.986256 5.672624 42.787159 C 5.712443 42.548244 5.831901 42.309328 5.871720 42.189870 C 5.911539 42.070412 6.030997 41.791677 6.070817 41.592580 C 6.110636 41.353664 6.230094 41.114749 6.269913 40.995291 C 6.309732 40.875833 6.429190 40.597098 6.469010 40.398001 C 6.508829 40.159085 6.628287 39.920170 6.668106 39.800712 C 6.707925 39.681254 6.827383 39.402519 6.867203 39.203422 C 6.907022 38.964506 7.026480 38.725590 7.066299 38.606132 C 7.106118 38.486675 7.225576 38.207939 7.265396 38.008843 C 7.305215 37.769927 7.424673 37.531011 7.464492 37.411553 C 7.504312 37.292095 7.623769 37.013360 7.663589 36.814264 C 7.703408 36.575348 7.822866 36.336432 7.862685 36.216974 C 7.902505 36.097516 8.021962 35.818781 8.061782 35.619685 C 8.101601 35.380769 8.221059 35.141853 8.260878 35.022395 C 8.300698 34.902937 8.420156 34.624202 8.459975 34.425106 C 8.499794 34.186190 8.619252 33.947274 8.659071 33.827816 C 8.698891 33.708358 8.818349 33.429623 8.858168 33.230526 C 8.897987 32.991611 9.017445 32.752695 9.057264 32.633237 C 9.097084 32.513779 9.216542 32.235044 9.256361 32.035947 C 9.296180 31.797031 9.415638 31.558116 9.455457 31.438658 C 9.495277 31.319200 9.614735 31.040465 9.654554 30.841368 C 9.694373 30.602452 9.813831 30.363537 9.853650 30.244079 C 9.893470 30.124621 10.012928 29.845886 10.052747 29.646789 C 10.092566 29.407873 10.212024 29.168957 10.251844 29.049500 C 10.291663 28.930042 10.411121 28.651306 10.450940 28.452210 C 10.490759 28.213294 10.610217 27.974378 10.650037 27.854920 C 10.689856 27.735462 10.809314 27.456727 10.849133 27.257631 C 10.888952 27.018715 11.008410 26.779799 11.048230 26.660341 C 11.088049 26.540883 11.207507 26.262148 11.247326 26.063052 C 11.287145 25.824136 11.406603 25.585220 11.446423 25.465762 C 11.486242 25.346304 11.605700 25.067569 11.645519 24.868473 C 11.685338 24.629557 11.804796 24.390641 11.844616 24.271183 C 11.884435 24.151725 12.003893 23.872990 12.043712 23.673893 C 12.083532 23.434978 12.202989 23.196062 12.242809 23.076604 C 12.282628 22.957146 12.402086 22.678411 12.441905 22.479314 C 12.481725 22.240399 12.601182 22.001483 12.641002 21.882025 C 12.680821 21.762567 12.800279 21.483832 12.840098 21.284735 C 12.879918 21.045819 12.999376 20.806904 13.039195 20.687446 C 13.079014 20.567988 13.198472 20.289253 13.238291 20.090156 C 13.278111 19.851240 13.397569 19.612324 13.437388 19.492867 C 13.477207 19.373409 13.596665 19.094673 13.636484 18.895577 C 13.676304 18.656661 13.795762 18.417745 13.835581 18.298287 C 13.875400 18.178830 13.994858 17.900094 14.034677 17.700998 C 14.074497 17.462082 14.193955 17.223166 14.233774 17.103708 C 14.273593 16.984250 14.393051 16.705515 14.432870 16.506419 C 14.472690 16.267503 14.592148 16.028587 14.631967 15.909129 C 14.671786 15.789671 14.791244 15.510936 14.831063 15.311840 C 14.870883 15.072924 14.990341 14.834008 15.030160 14.714550 C 15.069979 14.595092 15.189437 14.316357 15.229257 14.117260 C 15.269076 13.878345 15.388534 13.639429 15.428353 13.519971 C 15.468172 13.400513 15.587630 13.121778 15.627450 12.922681 C 15.667269 12.683766 15.786727 12.444850 15.826546 12.325392 C 15.866365 12.205934 15.985823 11.927199 16.025643 11.728102 C 16.065462 11.489186 16.184920 11.250271 16.224739 11.130813 C 16.264558 11.011355 16.384016 10.732620 16.423836 10.533523 C 16.463655 10.294607 16.583113 10.055691 16.622932 9.936234 C 16.662751 9.816776 16.782209 9.538041 16.822029 9.338944 C 16.861848 9.100028 16.981306 8.861112 17.021125 8.741654 C 17.060945 8.622197 17.180402 8.343461 17.220222 8.144365 C 17.260041 7.905449 17.379499 7.666533 17.419318 7.547075 C 17.459138 7.427617 17.578595 7.148882 17.618415 6.949786 C 17.658234 6.710870 17.777692 6.471954 17.817511 6.352496 C 17.857331 6.233038 17.976789 5.954303 18.016608 5.755207 C 18.056427 5.516291 18.175885 5.277375 18.215704 5.157917 C 18.255524 5.038459 18.374982 4.759724 18.414801 4.560628 C 18.454620 4.321712 18.574078 4.082796 18.613897 3.963338 C 18.653717 3.843880 18.733355 3.565145 18.773175 3.366048 C 18.773175 3.127133 19.012090 2.967855 19.211187 2.967855 C 19.450103 2.967855 19.649199 3.127133 19.649199 3.366048 C 19.689019 3.565145 19.768657 3.843880 19.808476 3.963338 C 19.848296 4.082796 19.967754 4.321712 20.007573 4.560628 C 20.047392 4.759724 20.166850 5.038459 20.206670 5.157917 C 20.246489 5.277375 20.365947 5.516291 20.405766 5.755207 C 20.445585 5.954303 20.565043 6.233038 20.604863 6.352496 C 20.644682 6.471954 20.764140 6.710870 20.803959 6.949786 C 20.843778 7.148882 20.963236 7.427617 21.003056 7.547075 C 21.042875 7.666533 21.162333 7.905449 21.202152 8.144365 C 21.241971 8.343461 21.361429 8.622197 21.401249 8.741654 C 21.441068 8.861112 21.560526 9.100028 21.600345 9.338944 C 21.640164 9.538041 21.759622 9.816776 21.799442 9.936234 C 21.839261 10.055691 21.958719 10.294607 21.998538 10.533523 C 22.038358 10.732620 22.157815 11.011355 22.197635 11.130813 C 22.237454 11.250271 22.356912 11.489186 22.396731 11.728102 C 22.436551 11.927199 22.556008 12.205934 22.595828 12.325392 C 22.635647 12.444850 22.755105 12.683766 22.794924 12.922681 C 22.834744 13.121778 22.954202 13.400513 22.994021 13.519971 C 23.033840 13.639429 23.153298 13.878345 23.193117 14.117260 C 23.232937 14.316357 23.352395 14.595092 23.392214 14.714550 C 23.432033 14.834008 23.551491 15.072924 23.591310 15.311840 C 23.631130 15.510936 23.750588 15.789671 23.790407 15.909129 C 23.830226 16.028587 23.949684 16.267503 23.989503 16.506419 C 24.029323 16.705515 24.148781 16.984250 24.188600 17.103708 C 24.228419 17.223166 24.347877 17.462082 24.387696 17.700998 C 24.427516 17.900094 24.546974 18.178830 24.586793 18.298287 C 24.626612 18.417745 24.746070 18.656661 24.785890 18.895577 C 24.825709 19.094673 24.945167 19.373409 24.984986 19.492867 C 25.024805 19.612324 25.144263 19.851240 25.184083 20.090156 C 25.223902 20.289253 25.343360 20.567988 25.383179 20.687446 C 25.422998 20.806904 25.542456 21.045819 25.582276 21.284735 C 25.622095 21.483832 25.741553 21.762567 25.781372 21.882025 C 25.821191 22.001483 25.940649 22.240399 25.980469 22.479314 C 26.020288 22.678411 26.139746 22.957146 26.179565 23.076604 C 26.219384 23.196062 26.338842 23.434978 26.378662 23.673893 C 26.418481 23.872990 26.537939 24.151725 26.577758 24.271183 C 26.617577 24.390641 26.737035 24.629557 26.776855 24.868473 C 26.816674 25.067569 26.936132 25.346304 26.975951 25.465762 C 27.015771 25.585220 27.135228 25.824136 27.175048 26.063052 C 27.214867 26.262148 27.334325 26.540883 27.374144 26.660341 C 27.413964 26.779799 27.533421 27.018715 27.573241 27.257631 C 27.613060 27.456727 27.732518 27.735462 27.772337 27.854920 C 27.812157 27.974378 27.931615 28.213294 27.971434 28.452210 C 28.011253 28.651306 28.130711 28.930042 28.170530 29.049500 C 28.210350 29.168957 28.329808 29.407873 28.369627 29.646789 C 28.409446 29.845886 28.528904 30.124621 28.568723 30.244079 C 28.608543 30.363537 28.728001 30.602452 28.767820 30.841368 C 28.807639 31.040465 28.927097 31.319200 28.966916 31.438658 C 29.006736 31.558116 29.126194 31.797031 29.166013 32.035947 C 29.205832 32.235044 29.325290 32.513779 29.365109 32.633237 C 29.404929 32.752695 29.524387 32.991611 29.564206 33.230526 C 29.604025 33.429623 29.723483 33.708358 29.763303 33.827816 C 29.803122 33.947274 29.922580 34.186190 29.962399 34.425106 C 30.002218 34.624202 30.121676 34.902937 30.161496 35.022395 C 30.201315 35.141853 30.320773 35.380769 30.360592 35.619685 C 30.400411 35.818781 30.519869 36.097516 30.559689 36.216974 C 30.599508 36.336432 30.718966 36.575348 30.758785 36.814264 C 30.798604 37.013360 30.918062 37.292095 30.957882 37.411553 C 30.997701 37.531011 31.117159 37.769927 31.156978 38.008843 C 31.196797 38.207939 31.316255 38.486675 31.356075 38.606132 C 31.395894 38.725590 31.515352 38.964506 31.555171 39.203422 C 31.594991 39.402519 31.714448 39.681254 31.754268 39.800712 C 31.794087 39.920170 31.913545 40.159085 31.953364 40.398001 C 31.993184 40.597098 32.112641 40.875833 32.152461 40.995291 C 32.192280 41.114749 32.311738 41.353664 32.351557 41.592580 C 32.391377 41.791677 32.510834 42.070412 32.550654 42.189870 C 32.590473 42.309328 32.709931 42.548244 32.749750 42.787159 C 32.789570 42.986256 32.909028 43.264991 32.948847 43.384449 C 32.988666 43.503907 33.108124 43.742823 33.147943 43.981739 C 33.187763 44.180835 33.307221 44.459570 33.347040 44.579028 C 33.386859 44.698486 33.506317 44.937402 33.546136 45.176318 C 33.585956 45.375414 33.705414 45.654149 33.745233 45.773607 C 33.785052 45.893065 33.904510 46.131981 33.944329 46.370897 C 33.984149 46.569993 34.103607 46.848728 34.143426 46.968186 C 34.183245 47.087644 34.302703 47.326560 34.342522 47.565476 C 34.382342 47.764572 34.501800 48.043308 34.541619 48.162765 C 34.581438 48.282223 34.700896 48.521139 34.740716 48.760055 C 34.780535 48.959152 34.899993 49.237887 34.939812 49.357345 C 34.979631 49.476803 35.099089 49.715718 35.138909 49.954634 C 35.178728 50.153731 35.298186 50.432466 35.338005 50.551924 C 35.377824 50.671382 35.497282 50.910297 35.537102 51.149213 C 35.576921 51.348310 35.696379 51.627045 35.736198 51.746503 C 35.776017 51.865961 35.895475 52.104877 35.935295 52.343792 C 35.975114 52.542889 36.094572 52.821624 36.134391 52.941082 C 36.174210 53.060540 36.293668 53.299456 36.333488 53.538372 C 36.373307 53.737468 36.492765 54.016203 36.532584 54.135661 C 36.572404 54.255119 36.691861 54.494035 36.731681 54.732951 C 36.771500 54.932047 36.890958 55.210782 36.930777 55.330240 C 36.970597 55.449698 37.090054 55.688614 37.129874 55.927530 C 37.169693 56.126626 37.289151 56.405361 37.328970 56.524819 C 37.368790 56.644277 37.488248 56.883193 37.528067 57.122109 C 37.567886 57.321205 37.687344 57.599941 37.727163 57.719398 C 37.766983 57.838856 37.886441 58.077772 37.926260 58.316688 C 37.966079 58.515785 38.085537 58.794520 38.125356 58.913978 C 38.165176 59.033435 38.284634 59.272351 38.324453 59.511267 C 38.364272 59.710364 38.483730 59.989099 38.523549 60.108557 C 38.563369 60.228015 38.682827 60.466930 38.722646 60.705846 C 38.762465 60.904943 38.881923 61.183678 38.921742 61.303136 C 38.961562 61.422594 39.081020 61.661510 39.120839 61.900425 C 39.160658 62.099522 39.280116 62.378257 39.319935 62.497715 C 39.359755 62.617173 39.479213 62.856089 39.519032 63.095005 C 39.558851 63.294101 39.678309 63.572836 39.718129 63.692294 C 39.757948 63.811752 39.877406 64.050668 39.917225 64.289584 C 39.957044 64.488680 40.076502 64.767415 40.116322 64.886873 C 40.156141 65.006331 40.275599 65.245247 40.315418 65.484163 C 40.355237 65.683259 40.474695 65.961994 40.514515 66.081452 C 40.554334 66.200910 40.633973 66.439826 40.673792 66.678742 C 40.673792 66.877838 40.833069 67.076935 41.032166 67.076935 C 41.310901 67.076935 41.350720 66.917658 41.271081 66.479645 C 41.231262 66.360187 41.151623 66.081452 41.111804 65.882356 C 41.071985 65.643440 40.952527 65.404524 40.912708 65.285066 C 40.872888 65.165608 40.753430 64.886873 40.713611 64.687777 C 40.673792 64.448861 40.554334 64.209945 40.514515 64.090487 C 40.474695 63.971029 40.355237 63.692294 40.315418 63.493198 C 40.275599 63.254282 40.156141 63.015366 40.116322 62.895908 C 40.076502 62.776450 39.957044 62.497715 39.917225 62.298618 C 39.877406 62.059703 39.757948 61.820787 39.718129 61.701329 C 39.678309 61.581871 39.558851 61.303136 39.519032 61.104039 C 39.479213 60.865123 39.359755 60.626208 39.319935 60.506750 C 39.280116 60.387292 39.160658 60.108557 39.120839 59.909460 C 39.081020 59.670544 38.961562 59.431629 38.921742 59.312171 C 38.881923 59.192713 38.762465 58.913978 38.722646 58.714881 C 38.682827 58.475965 38.563369 58.237049 38.523549 58.117591 C 38.483730 57.998134 38.364272 57.719398 38.324453 57.520302 C 38.284634 57.281386 38.165176 57.042470 38.125356 56.923012 C 38.085537 56.803554 37.966079 56.524819 37.926260 56.325723 C 37.886441 56.086807 37.766983 55.847891 37.727163 55.728433 C 37.687344 55.608975 37.567886 55.330240 37.528067 55.131144 C 37.488248 54.892228 37.368790 54.653312 37.328970 54.533854 C 37.289151 54.414396 37.169693 54.135661 37.129874 53.936565 C 37.090054 53.697649 36.970597 53.458733 36.930777 53.339275 C 36.890958 53.219817 36.771500 52.941082 36.731681 52.741985 C 36.691861 52.503070 36.572404 52.264154 36.532584 52.144696 C 36.492765 52.025238 36.373307 51.746503 36.333488 51.547406 C 36.293668 51.308490 36.174210 51.069575 36.134391 50.950117 C 36.094572 50.830659 35.975114 50.551924 35.935295 50.352827 C 35.895475 50.113911 35.776017 49.874996 35.736198 49.755538 C 35.696379 49.636080 35.576921 49.357345 35.537102 49.158248 C 35.497282 48.919332 35.377824 48.680416 35.338005 48.560959 C 35.298186 48.441501 35.178728 48.162765 35.138909 47.963669 C 35.099089 47.724753 34.979631 47.485837 34.939812 47.366379 C 34.899993 47.246921 34.780535 46.968186 34.740716 46.769090 C 34.700896 46.530174 34.581438 46.291258 34.541619 46.171800 C 34.501800 46.052342 34.382342 45.773607 34.342522 45.574511 C 34.302703 45.335595 34.183245 45.096679 34.143426 44.977221 C 34.103607 44.857763 33.984149 44.579028 33.944329 44.379932 C 33.904510 44.141016 33.785052 43.902100 33.745233 43.782642 C 33.705414 43.663184 33.585956 43.384449 33.546136 43.185352 C 33.506317 42.946437 33.386859 42.707521 33.347040 42.588063 C 33.307221 42.468605 33.187763 42.189870 33.147943 41.990773 C 33.108124 41.751858 32.988666 41.512942 32.948847 41.393484 C 32.909028 41.274026 32.789570 40.995291 32.749750 40.796194 C 32.709931 40.557278 32.590473 40.318363 32.550654 40.198905 C 32.510834 40.079447 32.391377 39.800712 32.351557 39.601615 C 32.311738 39.362699 32.192280 39.123783 32.152461 39.004326 C 32.112641 38.884868 31.993184 38.606132 31.953364 38.407036 C 31.913545 38.168120 31.794087 37.929204 31.754268 37.809746 C 31.714448 37.690289 31.594991 37.411553 31.555171 37.212457 C 31.515352 36.973541 31.395894 36.734625 31.356075 36.615167 C 31.316255 36.495709 31.196797 36.216974 31.156978 36.017878 C 31.117159 35.778962 30.997701 35.540046 30.957882 35.420588 C 30.918062 35.301130 30.798604 35.022395 30.758785 34.823299 C 30.718966 34.584383 30.599508 34.345467 30.559689 34.226009 C 30.519869 34.106551 30.400411 33.827816 30.360592 33.628719 C 30.320773 33.389804 30.201315 33.150888 30.161496 33.031430 C 30.121676 32.911972 30.002218 32.633237 29.962399 32.434140 C 29.922580 32.195225 29.803122 31.956309 29.763303 31.836851 C 29.723483 31.717393 29.604025 31.438658 29.564206 31.239561 C 29.524387 31.000645 29.404929 30.761730 29.365109 30.642272 C 29.325290 30.522814 29.205832 30.244079 29.166013 30.044982 C 29.126194 29.806066 29.006736 29.567150 28.966916 29.447693 C 28.927097 29.328235 28.807639 29.049500 28.767820 28.850403 C 28.728001 28.611487 28.608543 28.372571 28.568723 28.253113 C 28.528904 28.133656 28.409446 27.854920 28.369627 27.655824 C 28.329808 27.416908 28.210350 27.177992 28.170530 27.058534 C 28.130711 26.939076 28.011253 26.660341 27.971434 26.461245 C 27.931615 26.222329 27.812157 25.983413 27.772337 25.863955 C 27.732518 25.744497 27.613060 25.465762 27.573241 25.266666 C 27.533421 25.027750 27.413964 24.788834 27.374144 24.669376 C 27.334325 24.549918 27.214867 24.271183 27.175048 24.072087 C 27.135228 23.833171 27.015771 23.594255 26.975951 23.474797 C 26.936132 23.355339 26.816674 23.076604 26.776855 22.877507 C 26.737035 22.638592 26.617577 22.399676 26.577758 22.280218 C 26.537939 22.160760 26.418481 21.882025 26.378662 21.682928 C 26.338842 21.444012 26.219384 21.205097 26.179565 21.085639 C 26.139746 20.966181 26.020288 20.687446 25.980469 20.488349 C 25.940649 20.249433 25.821191 20.010517 25.781372 19.891060 C 25.741553 19.771602 25.622095 19.492867 25.582276 19.293770 C 25.542456 19.054854 25.422998 18.815938 25.383179 18.696480 C 25.343360 18.577023 25.223902 18.298287 25.184083 18.099191 C 25.144263 17.860275 25.024805 17.621359 24.984986 17.501901 C 24.945167 17.382443 24.825709 17.103708 24.785890 16.904612 C 24.746070 16.665696 24.626612 16.426780 24.586793 16.307322 C 24.546974 16.187864 24.427516 15.909129 24.387696 15.710033 C 24.347877 15.471117 24.228419 15.232201 24.188600 15.112743 C 24.148781 14.993285 24.029323 14.714550 23.989503 14.515454 C 23.949684 14.276538 23.830226 14.037622 23.790407 13.918164 C 23.750588 13.798706 23.631130 13.519971 23.591310 13.320874 C 23.551491 13.081959 23.432033 12.843043 23.392214 12.723585 C 23.352395 12.604127 23.232937 12.325392 23.193117 12.126295 C 23.153298 11.887379 23.033840 11.648464 22.994021 11.529006 C 22.954202 11.409548 22.834744 11.130813 22.794924 10.931716 C 22.755105 10.692800 22.635647 10.453885 22.595828 10.334427 C 22.556008 10.214969 22.436551 9.936234 22.396731 9.737137 C 22.356912 9.498221 22.237454 9.259305 22.197635 9.139847 C 22.157815 9.020390 22.038358 8.741654 21.998538 8.542558 C 21.958719 8.303642 21.839261 8.064726 21.799442 7.945268 C 21.759622 7.825810 21.640164 7.547075 21.600345 7.347979 C 21.560526 7.109063 21.441068 6.870147 21.401249 6.750689 C 21.361429 6.631231 21.241971 6.352496 21.202152 6.153400 C 21.162333 5.914484 21.042875 5.675568 21.003056 5.556110 C 20.963236 5.436652 20.843778 5.157917 20.803959 4.958821 C 20.764140 4.719905 20.644682 4.480989 20.604863 4.361531 C 20.565043 4.242073 20.445585 3.963338 20.405766 3.764241 C 20.365947 3.525326 20.286308 3.326229 20.206670 3.246590 C 20.166850 3.206771 20.087212 2.848397 20.007573 2.410385 C 19.768657 1.136167 19.131548 0.817613 18.653717 1.733457 Z" transform="scale(1.000000,1.000000) translate(86.000000,114.000000)" fill="#da252e" opacity="1.000000"></path>
        <path d="M 2.055259 1.314682 C 1.736704 1.911972 1.975620 5.216974 2.373813 5.336432 C 2.971103 5.495709 3.289657 1.872153 2.732187 1.394321 C 2.453452 1.195225 2.174717 1.155405 2.055259 1.314682 Z" transform="scale(1.000000,1.000000) translate(67.000000,145.000000)" fill="#da252e" opacity="1.000000"></path>
        <path d="M 2.006405 1.783479 C 1.847128 1.982576 1.926766 2.261311 2.125863 2.380769 C 2.324959 2.540046 2.603694 2.460407 2.723152 2.261311 C 2.882429 2.062214 2.802791 1.783479 2.603694 1.664021 C 2.404598 1.504744 2.125863 1.584383 2.006405 1.783479 Z" transform="scale(1.000000,1.000000) translate(69.000000,147.000000)" fill="#da252e" opacity="1.000000"></path>
        <path d="M 1.599177 1.774445 C 1.439900 1.973541 1.519538 2.252276 1.718635 2.371734 C 1.917731 2.531011 2.196466 2.451373 2.315924 2.252276 C 2.475202 2.053180 2.395563 1.774445 2.196466 1.654987 C 1.997370 1.495709 1.718635 1.575348 1.599177 1.774445 Z" transform="scale(1.000000,1.000000) translate(71.000000,149.000000)" fill="#da252e" opacity="1.000000"></path>
        <path d="M 1.191949 1.765410 C 1.032672 1.964506 1.112310 2.243241 1.311407 2.362699 C 1.510503 2.521976 1.789239 2.442338 1.908697 2.243241 C 2.067974 2.044145 1.988335 1.765410 1.789239 1.645952 C 1.590142 1.486675 1.311407 1.566313 1.191949 1.765410 Z" transform="scale(1.000000,1.000000) translate(73.000000,151.000000)" fill="#da252e" opacity="1.000000"></path>
        <path d="M 1.784721 1.756375 C 1.625444 1.955471 1.705083 2.234207 1.904179 2.353664 C 2.103276 2.512942 2.382011 2.433303 2.501469 2.234207 C 2.660746 2.035110 2.581107 1.756375 2.382011 1.636917 C 2.182914 1.477640 1.904179 1.557278 1.784721 1.756375 Z" transform="scale(1.000000,1.000000) translate(74.000000,153.000000)" fill="#da252e" opacity="1.000000"></path>
        <path d="M 1.377493 1.747340 C 1.218216 1.946437 1.297855 2.225172 1.496951 2.344630 C 1.696048 2.503907 1.974783 2.424268 2.094241 2.225172 C 2.253518 2.026075 2.173879 1.747340 1.974783 1.627882 C 1.775686 1.468605 1.496951 1.548244 1.377493 1.747340 Z" transform="scale(1.000000,1.000000) translate(76.000000,155.000000)" fill="#da252e" opacity="1.000000"></path>
        <path d="M 1.970266 1.738305 C 1.810988 1.937402 1.890627 2.216137 2.089723 2.335595 C 2.288820 2.494872 2.567555 2.415233 2.687013 2.216137 C 2.846290 2.017040 2.766652 1.738305 2.567555 1.618847 C 2.368459 1.459570 2.089723 1.539209 1.970266 1.738305 Z" transform="scale(1.000000,1.000000) translate(77.000000,157.000000)" fill="#da252e" opacity="1.000000"></path>
        <path d="M 8.730337 1.415233 C 8.252506 1.733788 7.854312 1.893065 7.854312 1.733788 C 7.854312 1.614330 7.416300 1.773607 6.858830 2.131981 C 6.301360 2.490355 5.863347 2.689451 5.863347 2.530174 C 5.863347 2.410716 5.425335 2.569993 4.867865 2.928367 C 4.310394 3.286741 3.872382 3.485837 3.872382 3.366379 C 3.872382 3.246921 3.474189 3.366379 2.996357 3.645115 C 2.478706 3.923850 1.961055 4.122946 1.801778 4.162765 C 1.602682 4.162765 1.483224 4.282223 1.483224 4.441501 C 1.483224 4.640597 1.483224 4.879513 1.483224 4.998971 C 1.483224 5.158248 1.761959 5.038790 2.080513 4.760055 C 2.399068 4.481320 2.677803 4.401681 2.677803 4.560959 C 2.677803 4.720236 3.115815 4.560959 3.673286 4.202585 C 4.230756 3.844211 4.668768 3.645115 4.668768 3.804392 C 4.668768 3.923850 5.106781 3.764572 5.664251 3.406199 C 6.221721 3.047825 6.659733 2.848728 6.659733 3.008006 C 6.659733 3.127464 7.097746 2.968186 7.655216 2.609813 C 8.212686 2.251439 8.650699 2.052342 8.650699 2.171800 C 8.650699 2.291258 9.009072 2.211620 9.407265 1.972704 C 10.203651 1.574511 10.362929 2.052342 9.725820 3.047825 C 9.566543 3.286741 9.606362 3.605295 9.845278 3.764572 C 10.044374 3.884030 10.283290 3.923850 10.283290 3.804392 C 10.323109 3.684934 10.362929 3.446018 10.402748 3.246921 C 10.442567 3.087644 10.601844 2.769090 10.721302 2.530174 C 10.880580 2.291258 10.721302 1.773607 10.323109 1.455053 C 9.686000 0.857763 9.526723 0.857763 8.730337 1.415233 Z" transform="scale(1.000000,1.000000) translate(176.000000,158.000000)" fill="#da252e" opacity="1.000000"></path>
        <path d="M 1.563038 1.729271 C 1.403760 1.928367 1.483399 2.207102 1.682496 2.326560 C 1.881592 2.485837 2.160327 2.406199 2.279785 2.207102 C 2.439062 2.008006 2.359424 1.729271 2.160327 1.609813 C 1.961231 1.450535 1.682496 1.530174 1.563038 1.729271 Z" transform="scale(1.000000,1.000000) translate(79.000000,159.000000)" fill="#da252e" opacity="1.000000"></path>
        <path d="M 1.155810 1.720236 C 0.996533 1.919332 1.076171 2.198067 1.275268 2.317525 C 1.474364 2.476803 1.753099 2.397164 1.872557 2.198067 C 2.031835 1.998971 1.952196 1.720236 1.753099 1.600778 C 1.554003 1.441501 1.275268 1.521139 1.155810 1.720236 Z" transform="scale(1.000000,1.000000) translate(81.000000,161.000000)" fill="#da252e" opacity="1.000000"></path>
        <path d="M 4.407265 1.521139 C 4.247988 2.158248 4.128530 2.556441 4.048892 2.755538 C 4.009072 2.874996 3.889614 3.113911 3.849795 3.352827 C 3.809976 3.551924 3.690518 3.830659 3.650699 3.950117 C 3.610879 4.069575 3.491421 4.308490 3.451602 4.547406 C 3.411783 4.746503 3.292325 5.025238 3.252506 5.144696 C 3.212686 5.264154 3.093228 5.503070 3.053409 5.741985 C 3.013590 5.941082 2.894132 6.219817 2.854312 6.339275 C 2.814493 6.458733 2.695035 6.697649 2.655216 6.936565 C 2.615397 7.135661 2.495939 7.414396 2.456119 7.533854 C 2.416300 7.653312 2.296842 7.892228 2.257023 8.131144 C 2.217204 8.330240 2.097746 8.608975 2.057926 8.728433 C 2.018107 8.847891 1.938468 9.046988 1.898649 9.206265 C 1.858830 9.405361 1.699553 9.723916 1.540275 10.002651 C 1.380998 10.241567 1.420818 10.560121 1.659733 10.719398 C 1.858830 10.838856 2.097746 10.878676 2.097746 10.759218 C 2.137565 10.639760 2.177384 10.400844 2.217204 10.201748 C 2.257023 10.042470 2.416300 9.684097 2.575577 9.405361 C 2.774674 9.166446 2.774674 8.927530 2.615397 8.927530 C 2.495939 8.927530 2.575577 8.648795 2.854312 8.330240 C 3.133048 8.011686 3.212686 7.732951 3.053409 7.732951 C 2.894132 7.732951 2.973770 7.454216 3.252506 7.135661 C 3.531241 6.817107 3.610879 6.538372 3.451602 6.538372 C 3.292325 6.538372 3.371963 6.259636 3.650699 5.941082 C 3.929434 5.622528 4.009072 5.343792 3.849795 5.343792 C 3.690518 5.343792 3.770156 5.065057 4.048892 4.746503 C 4.327627 4.427948 4.407265 4.149213 4.247988 4.149213 C 4.088711 4.149213 4.168350 3.870478 4.447085 3.551924 C 4.725820 3.233369 4.805458 2.954634 4.646181 2.954634 C 4.486904 2.954634 4.566543 2.715718 4.805458 2.397164 C 5.124013 1.998971 5.163832 1.760055 4.845278 1.560959 C 4.646181 1.441501 4.407265 1.401681 4.407265 1.521139 Z" transform="scale(1.000000,1.000000) translate(181.000000,161.000000)" fill="#da252e" opacity="1.000000"></path>
        <path d="M 1.332981 2.118429 C 1.173704 2.317525 1.253343 2.596260 1.452439 2.715718 C 1.651536 2.874996 1.930271 2.795357 2.049729 2.596260 C 2.209006 2.397164 2.129367 2.118429 1.930271 1.998971 C 1.731174 1.839694 1.452439 1.919332 1.332981 2.118429 Z" transform="scale(1.000000,1.000000) translate(174.000000,161.000000)" fill="#da252e" opacity="1.000000"></path>
        <path d="M 1.342016 1.914815 C 1.182739 2.113911 1.262378 2.392647 1.461474 2.512104 C 1.660571 2.671382 1.939306 2.591743 2.058764 2.392647 C 2.218041 2.193550 2.138402 1.914815 1.939306 1.795357 C 1.740209 1.636080 1.461474 1.715718 1.342016 1.914815 Z" transform="scale(1.000000,1.000000) translate(172.000000,162.000000)" fill="#da252e" opacity="1.000000"></path>
        <path d="M 1.748582 1.711201 C 1.589305 1.910297 1.668943 2.189033 1.868040 2.308490 C 2.067136 2.467768 2.345872 2.388129 2.465330 2.189033 C 2.624607 1.989936 2.544968 1.711201 2.345872 1.591743 C 2.146775 1.432466 1.868040 1.512104 1.748582 1.711201 Z" transform="scale(1.000000,1.000000) translate(82.000000,163.000000)" fill="#da252e" opacity="1.000000"></path>
        <path d="M 1.351051 1.711201 C 1.191774 1.910297 1.271412 2.189033 1.470509 2.308490 C 1.669605 2.467768 1.948341 2.388129 2.067798 2.189033 C 2.227076 1.989936 2.147437 1.711201 1.948341 1.591743 C 1.749244 1.432466 1.470509 1.512104 1.351051 1.711201 Z" transform="scale(1.000000,1.000000) translate(170.000000,163.000000)" fill="#da252e" opacity="1.000000"></path>
        <path d="M 10.200809 1.627045 C 9.922073 1.905780 9.722977 1.945599 9.722977 1.786322 C 9.722977 1.587226 9.284965 1.746503 8.727494 2.104877 C 8.170024 2.463250 7.732012 2.662347 7.732012 2.503070 C 7.732012 2.383612 7.293999 2.542889 6.736529 2.901263 C 6.179059 3.259636 5.741047 3.458733 5.741047 3.299456 C 5.741047 3.179998 5.303034 3.339275 4.745564 3.697649 C 4.188094 4.056022 3.750081 4.255119 3.750081 4.135661 C 3.750081 4.016203 3.351888 4.135661 2.874057 4.414396 C 2.356406 4.693131 1.838755 4.892228 1.679478 4.932047 C 1.480381 4.932047 1.360923 5.051505 1.360923 5.210782 C 1.360923 5.409879 1.360923 5.648795 1.360923 5.768253 C 1.360923 5.927530 1.639658 5.808072 1.958213 5.529337 C 2.276767 5.250602 2.555502 5.170963 2.555502 5.330240 C 2.555502 5.489517 2.993515 5.330240 3.550985 4.971866 C 4.108455 4.613493 4.546467 4.414396 4.546467 4.573673 C 4.546467 4.693131 4.984480 4.533854 5.541950 4.175480 C 6.099420 3.817107 6.537433 3.618010 6.537433 3.777287 C 6.537433 3.896745 6.975445 3.737468 7.532915 3.379094 C 8.090385 3.020721 8.528398 2.821624 8.528398 2.941082 C 8.528398 3.060540 8.926591 2.941082 9.444242 2.662347 C 9.922073 2.383612 10.439724 2.184515 10.638821 2.144696 C 10.798098 2.144696 10.917556 1.985419 10.957375 1.826141 C 10.997195 1.228852 10.678640 1.149213 10.200809 1.627045 Z" transform="scale(1.000000,1.000000) translate(159.000000,164.000000)" fill="#da252e" opacity="1.000000"></path>
        <path d="M 1.341354 1.702166 C 1.182077 1.901263 1.261716 2.179998 1.460812 2.299456 C 1.659909 2.458733 1.938644 2.379094 2.058102 2.179998 C 2.217379 1.980901 2.137740 1.702166 1.938644 1.582708 C 1.739547 1.423431 1.460812 1.503070 1.341354 1.702166 Z" transform="scale(1.000000,1.000000) translate(84.000000,165.000000)" fill="#da252e" opacity="1.000000"></path>
        <path d="M 11.054422 15.191875 L 1.935801 29.009174 L 10.815506 44.538703 L 19.695211 60.068231 L 35.503474 75.916314 L 51.351557 91.804216 L 69.150786 100.723741 C 78.986154 105.621515 87.149112 109.643265 87.388027 109.643265 C 87.746401 109.643265 113.668768 92.560783 114.544793 91.764397 C 114.704070 91.605120 111.916719 82.645777 108.293162 71.814926 C 104.669605 60.984075 101.643338 51.666358 101.563700 51.108888 C 101.484061 50.551417 101.603519 49.874489 101.842435 49.595754 C 102.041531 49.356838 102.081351 49.117922 101.922073 49.117922 C 101.762796 49.117922 101.842435 48.839187 102.121170 48.520633 C 102.399905 48.202079 102.479544 47.923343 102.320267 47.923343 C 102.160989 47.923343 102.240628 47.644608 102.519363 47.326054 C 102.798098 47.007499 102.877737 46.728764 102.718460 46.728764 C 102.559182 46.728764 102.638821 46.450029 102.917556 46.131475 C 103.196291 45.812920 103.275930 45.534185 103.116653 45.534185 C 102.957375 45.534185 103.037014 45.295269 103.275930 44.976715 C 103.594484 44.578522 103.634304 44.339606 103.315749 44.140509 C 103.116653 44.021052 102.877737 43.981232 102.877737 44.100690 C 102.718460 44.737799 102.599002 45.135992 102.519363 45.335089 C 102.479544 45.454547 102.360086 45.693462 102.320267 45.932378 C 102.280447 46.131475 102.160989 46.410210 102.121170 46.529668 C 102.081351 46.649126 101.961893 46.888041 101.922073 47.126957 C 101.882254 47.326054 101.762796 47.604789 101.722977 47.724247 C 101.683158 47.843705 101.563700 48.082621 101.523880 48.321536 C 101.484061 48.520633 101.364603 48.799368 101.324784 48.918826 C 101.284965 49.038284 101.205326 49.356838 101.165507 49.595754 C 101.165507 49.874489 100.926591 50.113405 100.647856 50.113405 C 100.090385 50.113405 61.545299 15.988262 61.624938 15.550249 C 61.704576 15.351153 61.824034 15.271514 61.943492 15.351153 C 62.062950 15.430791 62.620420 15.152056 63.217710 14.753863 C 63.814999 14.395489 64.292831 14.156574 64.292831 14.315851 C 64.292831 14.435309 64.730843 14.276031 65.288314 13.917658 C 65.845784 13.559284 66.283796 13.360187 66.283796 13.479645 C 66.283796 13.599103 66.681989 13.479645 67.199640 13.200910 C 67.677472 12.922175 68.195123 12.723079 68.394219 12.683259 C 68.553497 12.683259 68.672955 12.563801 68.672955 12.364705 C 68.672955 12.205428 68.672955 11.966512 68.672955 11.847054 C 68.672955 11.687777 68.394219 11.807235 68.075665 12.085970 C 67.757111 12.364705 67.478375 12.444343 67.478375 12.285066 C 67.478375 12.125789 67.040363 12.285066 66.482893 12.643440 C 65.925423 13.001814 65.487410 13.200910 65.487410 13.041633 C 65.487410 12.922175 65.049398 13.081452 64.491928 13.439826 C 63.934457 13.798200 63.496445 13.997296 63.496445 13.877838 C 63.496445 13.758380 63.098252 13.877838 62.620420 14.156574 C 62.102769 14.435309 61.346203 14.674224 60.908190 14.674224 C 60.470178 14.674224 51.112641 11.727596 40.122514 8.064220 L 20.133223 1.414396 L 11.054422 15.191875 Z" transform="scale(1.000000,1.000000) translate(67.000000,167.000000)" fill="#da252e" opacity="1.000000"></path>
        <path d="M 1.210681 1.887710 C 1.051403 2.086807 1.131042 2.365542 1.330139 2.485000 C 1.529235 2.644277 1.807970 2.564639 1.927428 2.365542 C 2.086705 2.166446 2.007067 1.887710 1.807970 1.768253 C 1.608874 1.608975 1.330139 1.688614 1.210681 1.887710 Z" transform="scale(1.000000,1.000000) translate(157.000000,168.000000)" fill="#da252e" opacity="1.000000"></path>
        <path d="M 1.219715 1.684097 C 1.060438 1.883193 1.140077 2.161928 1.339173 2.281386 C 1.538270 2.440663 1.817005 2.361025 1.936463 2.161928 C 2.095740 1.962832 2.016102 1.684097 1.817005 1.564639 C 1.617909 1.405361 1.339173 1.485000 1.219715 1.684097 Z" transform="scale(1.000000,1.000000) translate(155.000000,169.000000)" fill="#da252e" opacity="1.000000"></path>
        <path d="M 1.228750 1.480483 C 1.069473 1.679579 1.149112 1.958314 1.348208 2.077772 C 1.547305 2.237049 1.826040 2.157411 1.945498 1.958314 C 2.104775 1.759218 2.025136 1.480483 1.826040 1.361025 C 1.626943 1.201748 1.348208 1.281386 1.228750 1.480483 Z" transform="scale(1.000000,1.000000) translate(153.000000,170.000000)" fill="#da252e" opacity="1.000000"></path>
        <path d="M 10.078508 1.396327 C 9.799773 1.675062 9.600676 1.714881 9.600676 1.555604 C 9.600676 1.356507 9.162664 1.515785 8.605194 1.874158 C 8.047723 2.232532 7.609711 2.431629 7.609711 2.272351 C 7.609711 2.152893 7.171699 2.312171 6.614228 2.670544 C 6.056758 3.028918 5.618746 3.228015 5.618746 3.068737 C 5.618746 2.949279 5.180733 3.108557 4.623263 3.466930 C 4.065793 3.825304 3.627781 4.024401 3.627781 3.904943 C 3.627781 3.785485 3.229588 3.904943 2.751756 4.183678 C 2.234105 4.462413 1.716454 4.661510 1.557177 4.701329 C 1.358080 4.701329 1.238622 4.820787 1.238622 4.980064 C 1.238622 5.179161 1.238622 5.418076 1.238622 5.537534 C 1.238622 5.696811 1.517357 5.577354 1.835912 5.298618 C 2.154466 5.019883 2.433201 4.940245 2.433201 5.099522 C 2.433201 5.258799 2.871214 5.099522 3.428684 4.741148 C 3.986154 4.382774 4.424167 4.183678 4.424167 4.342955 C 4.424167 4.462413 4.862179 4.303136 5.419649 3.944762 C 5.977120 3.586388 6.415132 3.387292 6.415132 3.546569 C 6.415132 3.666027 6.853144 3.506750 7.410614 3.148376 C 7.968085 2.790002 8.406097 2.590906 8.406097 2.710364 C 8.406097 2.829822 8.804290 2.710364 9.321941 2.431629 C 9.799773 2.152893 10.317424 1.953797 10.516520 1.913978 C 10.675797 1.913978 10.795255 1.754700 10.835075 1.595423 C 10.874894 0.998134 10.556339 0.918495 10.078508 1.396327 Z" transform="scale(1.000000,1.000000) translate(142.000000,171.000000)" fill="#da252e" opacity="1.000000"></path>
        <path d="M 4.221721 1.475965 C 4.062444 2.113074 3.942986 2.511267 3.863347 2.710364 C 3.823528 2.829822 3.704070 3.068737 3.664251 3.307653 C 3.624431 3.506750 3.504974 3.785485 3.465154 3.904943 C 3.425335 4.024401 3.305877 4.263317 3.266058 4.502232 C 3.226238 4.701329 3.106781 4.980064 3.066961 5.099522 C 3.027142 5.218980 2.907684 5.457896 2.867865 5.696811 C 2.828045 5.895908 2.708587 6.174643 2.668768 6.294101 C 2.628949 6.413559 2.509491 6.652475 2.469672 6.891391 C 2.429852 7.090487 2.310394 7.369222 2.270575 7.488680 C 2.230756 7.608138 2.111298 7.847054 2.071479 8.085970 C 2.031659 8.285066 1.912201 8.563801 1.872382 8.683259 C 1.832563 8.802717 1.752924 9.001814 1.713105 9.161091 C 1.673286 9.360187 1.514008 9.678742 1.354731 9.957477 C 1.195454 10.196393 1.235273 10.514947 1.474189 10.674224 C 1.673286 10.793682 1.912201 10.833502 1.912201 10.714044 C 1.952021 10.594586 1.991840 10.355670 2.031659 10.156574 C 2.071479 9.997296 2.230756 9.638923 2.390033 9.360187 C 2.589130 9.121272 2.589130 8.882356 2.429852 8.882356 C 2.310394 8.882356 2.390033 8.603621 2.668768 8.285066 C 2.947503 7.966512 3.027142 7.687777 2.867865 7.687777 C 2.708587 7.687777 2.788226 7.409042 3.066961 7.090487 C 3.345696 6.771933 3.425335 6.493198 3.266058 6.493198 C 3.106781 6.493198 3.186419 6.214462 3.465154 5.895908 C 3.743889 5.577354 3.823528 5.298618 3.664251 5.298618 C 3.504974 5.298618 3.584612 5.019883 3.863347 4.701329 C 4.142082 4.382774 4.221721 4.104039 4.062444 4.104039 C 3.903167 4.104039 3.982805 3.825304 4.261540 3.506750 C 4.540275 3.188195 4.619914 2.909460 4.460637 2.909460 C 4.301360 2.909460 4.380998 2.670544 4.619914 2.351990 C 4.938468 1.953797 4.978288 1.714881 4.659733 1.515785 C 4.460637 1.396327 4.221721 1.356507 4.221721 1.475965 Z" transform="scale(1.000000,1.000000) translate(178.000000,171.000000)" fill="#da252e" opacity="1.000000"></path>
        <path d="M 1.088380 1.656992 C 0.929103 1.856089 1.008741 2.134824 1.207838 2.254282 C 1.406934 2.413559 1.685669 2.333920 1.805127 2.134824 C 1.964405 1.935727 1.884766 1.656992 1.685669 1.537534 C 1.486573 1.378257 1.207838 1.457896 1.088380 1.656992 Z" transform="scale(1.000000,1.000000) translate(140.000000,175.000000)" fill="#da252e" opacity="1.000000"></path>
        <path d="M 1.097415 1.453378 C 0.938137 1.652475 1.017776 1.931210 1.216873 2.050668 C 1.415969 2.209945 1.694704 2.130306 1.814162 1.931210 C 1.973439 1.732113 1.893801 1.453378 1.694704 1.333920 C 1.495608 1.174643 1.216873 1.254282 1.097415 1.453378 Z" transform="scale(1.000000,1.000000) translate(138.000000,176.000000)" fill="#da252e" opacity="1.000000"></path>
        <path d="M 1.106450 1.249764 C 0.947172 1.448861 1.026811 1.727596 1.225907 1.847054 C 1.425004 2.006331 1.703739 1.926692 1.823197 1.727596 C 1.982474 1.528499 1.902836 1.249764 1.703739 1.130306 C 1.504643 0.971029 1.225907 1.050668 1.106450 1.249764 Z" transform="scale(1.000000,1.000000) translate(136.000000,177.000000)" fill="#da252e" opacity="1.000000"></path>
        <path d="M 4.036177 1.430791 C 3.996357 1.550249 3.956538 1.789165 3.916719 1.948442 C 3.876899 2.147539 3.717622 2.505912 3.558345 2.744828 C 3.359249 3.023563 3.359249 3.262479 3.518526 3.262479 C 3.637984 3.262479 3.558345 3.541214 3.279610 3.859769 C 3.000875 4.178323 2.921236 4.457058 3.080513 4.457058 C 3.239791 4.457058 3.160152 4.735793 2.881417 5.054348 C 2.602682 5.372902 2.523043 5.651637 2.682320 5.651637 C 2.841598 5.651637 2.761959 5.930373 2.483224 6.248927 C 2.204489 6.567481 2.124850 6.846217 2.284127 6.846217 C 2.443405 6.846217 2.363766 7.124952 2.085031 7.443506 C 1.806296 7.762061 1.726657 8.040796 1.885934 8.040796 C 2.045211 8.040796 1.965573 8.279712 1.726657 8.598266 C 1.408103 8.956640 1.408103 9.235375 1.647018 9.394652 C 1.846115 9.553929 2.124850 9.474291 2.284127 9.235375 C 2.403585 9.036278 2.403585 8.837182 2.244308 8.837182 C 2.124850 8.837182 2.204489 8.558447 2.483224 8.239892 C 2.761959 7.921338 2.841598 7.642603 2.682320 7.642603 C 2.523043 7.642603 2.602682 7.363868 2.881417 7.045313 C 3.160152 6.726759 3.239791 6.448024 3.080513 6.448024 C 2.921236 6.448024 3.000875 6.169288 3.279610 5.850734 C 3.558345 5.532180 3.637984 5.253444 3.478706 5.253444 C 3.319429 5.253444 3.399068 4.974709 3.677803 4.656155 C 3.956538 4.337600 4.036177 4.058865 3.876899 4.058865 C 3.717622 4.058865 3.797261 3.780130 4.075996 3.461576 C 4.354731 3.143021 4.434370 2.864286 4.275093 2.864286 C 4.115815 2.864286 4.195454 2.625370 4.434370 2.306816 C 4.752924 1.908623 4.792743 1.669707 4.474189 1.470611 C 4.275093 1.351153 4.036177 1.311333 4.036177 1.430791 Z" transform="scale(1.000000,1.000000) translate(175.000000,181.000000)" fill="#da252e" opacity="1.000000"></path>
        <path d="M 4.248825 1.191038 C 4.089548 1.828147 3.970090 2.226340 3.890452 2.425437 C 3.850632 2.544894 3.731174 2.783810 3.691355 3.022726 C 3.651536 3.221823 3.532078 3.500558 3.492259 3.620016 C 3.452439 3.739474 3.332981 3.978389 3.293162 4.217305 C 3.253343 4.416402 3.133885 4.695137 3.094066 4.814595 C 3.054246 4.934053 2.934788 5.172969 2.894969 5.411884 C 2.855150 5.610981 2.735692 5.889716 2.695873 6.009174 C 2.656053 6.128632 2.536595 6.367548 2.496776 6.606464 C 2.456957 6.805560 2.337499 7.084295 2.297680 7.203753 C 2.257860 7.323211 2.138402 7.562127 2.098583 7.801043 C 2.058764 8.000139 1.939306 8.278874 1.899486 8.398332 C 1.859667 8.517790 1.780029 8.716887 1.740209 8.876164 C 1.700390 9.075260 1.541113 9.393815 1.381836 9.672550 C 1.222558 9.911466 1.262378 10.230020 1.501293 10.389297 C 1.700390 10.508755 1.939306 10.548575 1.939306 10.429117 C 1.979125 10.309659 2.018944 10.070743 2.058764 9.871646 C 2.098583 9.712369 2.257860 9.353995 2.417137 9.075260 C 2.616234 8.836345 2.616234 8.597429 2.456957 8.597429 C 2.337499 8.597429 2.417137 8.318694 2.695873 8.000139 C 2.974608 7.681585 3.054246 7.402850 2.894969 7.402850 C 2.735692 7.402850 2.815330 7.124114 3.094066 6.805560 C 3.372801 6.487006 3.452439 6.208270 3.293162 6.208270 C 3.133885 6.208270 3.213524 5.929535 3.492259 5.610981 C 3.770994 5.292426 3.850632 5.013691 3.691355 5.013691 C 3.532078 5.013691 3.611717 4.734956 3.890452 4.416402 C 4.169187 4.097847 4.248825 3.819112 4.089548 3.819112 C 3.930271 3.819112 4.009910 3.540377 4.288645 3.221823 C 4.567380 2.903268 4.647018 2.624533 4.487741 2.624533 C 4.328464 2.624533 4.408103 2.385617 4.647018 2.067063 C 4.965573 1.668870 5.005392 1.429954 4.686838 1.230857 C 4.487741 1.111400 4.248825 1.071580 4.248825 1.191038 Z" transform="scale(1.000000,1.000000) translate(172.000000,190.000000)" fill="#da252e" opacity="1.000000"></path>
        <path d="M 4.063281 1.145864 C 3.904004 1.782973 3.784546 2.181166 3.704907 2.380263 C 3.665088 2.499721 3.545630 2.738636 3.505811 2.977552 C 3.465992 3.176649 3.346534 3.455384 3.306714 3.574842 C 3.266895 3.694300 3.147437 3.933215 3.107618 4.172131 C 3.067798 4.371228 2.948341 4.649963 2.908521 4.769421 C 2.868702 4.888879 2.749244 5.127795 2.709425 5.366710 C 2.669605 5.565807 2.550148 5.844542 2.510328 5.964000 C 2.470509 6.083458 2.351051 6.322374 2.311232 6.561290 C 2.271412 6.760386 2.151954 7.039121 2.112135 7.158579 C 2.072316 7.278037 1.952858 7.516953 1.913039 7.755869 C 1.873219 7.954965 1.753761 8.233700 1.713942 8.353158 C 1.674123 8.472616 1.594484 8.671713 1.554665 8.830990 C 1.514846 9.030086 1.355568 9.348641 1.196291 9.627376 C 1.037014 9.866292 1.076833 10.184846 1.315749 10.344123 C 1.514846 10.463581 1.753761 10.503401 1.753761 10.383943 C 1.793581 10.264485 1.833400 10.025569 1.873219 9.826472 C 1.913039 9.667195 2.072316 9.308822 2.231593 9.030086 C 2.430690 8.791171 2.430690 8.552255 2.271412 8.552255 C 2.151954 8.552255 2.231593 8.273520 2.510328 7.954965 C 2.789063 7.636411 2.868702 7.357676 2.709425 7.357676 C 2.550148 7.357676 2.629786 7.078940 2.908521 6.760386 C 3.187256 6.441832 3.266895 6.163096 3.107618 6.163096 C 2.948341 6.163096 3.027979 5.884361 3.306714 5.565807 C 3.585449 5.247252 3.665088 4.968517 3.505811 4.968517 C 3.346534 4.968517 3.426172 4.689782 3.704907 4.371228 C 3.983642 4.052673 4.063281 3.773938 3.904004 3.773938 C 3.744727 3.773938 3.824365 3.495203 4.103100 3.176649 C 4.381836 2.858094 4.461474 2.579359 4.302197 2.579359 C 4.142920 2.579359 4.222558 2.340443 4.461474 2.021889 C 4.780029 1.623696 4.819848 1.384780 4.501293 1.185683 C 4.302197 1.066226 4.063281 1.026406 4.063281 1.145864 Z" transform="scale(1.000000,1.000000) translate(169.000000,200.000000)" fill="#da252e" opacity="1.000000"></path>
        <path d="M 1.360086 1.467261 C 1.200809 1.666358 1.280447 1.945093 1.519363 2.104370 C 1.718460 2.223828 1.917556 2.223828 1.917556 2.064551 C 1.917556 1.945093 2.156472 2.024732 2.475026 2.263648 C 2.873219 2.582202 3.112135 2.622021 3.311232 2.303467 C 3.430690 2.104370 3.470509 1.865454 3.351051 1.865454 C 3.231593 1.825635 2.992677 1.785816 2.833400 1.745997 C 2.634304 1.706177 2.315749 1.546900 2.037014 1.387623 C 1.798098 1.228346 1.479544 1.268165 1.360086 1.467261 Z" transform="scale(1.000000,1.000000) translate(168.000000,217.000000)" fill="#da252e" opacity="1.000000"></path>
        <path d="M 1.147437 1.263648 C 0.988160 1.462744 1.067798 1.741479 1.306714 1.900756 C 1.505811 2.020214 1.704907 2.020214 1.704907 1.860937 C 1.704907 1.741479 1.943823 1.821118 2.262378 2.060034 C 2.660571 2.378588 2.899486 2.418407 3.098583 2.099853 C 3.218041 1.900756 3.257860 1.661841 3.138402 1.661841 C 3.018944 1.622021 2.780029 1.582202 2.620751 1.542383 C 2.421655 1.502563 2.103100 1.343286 1.824365 1.184009 C 1.585449 1.024732 1.266895 1.064551 1.147437 1.263648 Z" transform="scale(1.000000,1.000000) translate(171.000000,218.000000)" fill="#da252e" opacity="1.000000"></path>
        <path d="M 1.934788 2.060034 C 1.775511 2.259130 1.855150 2.537865 2.094066 2.697142 C 2.293162 2.816600 2.492259 2.816600 2.492259 2.657323 C 2.492259 2.537865 2.731174 2.617504 3.049729 2.856420 C 3.447922 3.174974 3.686838 3.214793 3.885934 2.896239 C 4.005392 2.697142 4.045211 2.458227 3.925754 2.458227 C 3.806296 2.418407 3.567380 2.378588 3.408103 2.338769 C 3.209006 2.298949 2.890452 2.139672 2.611717 1.980395 C 2.372801 1.821118 2.054246 1.860937 1.934788 2.060034 Z" transform="scale(1.000000,1.000000) translate(173.000000,218.000000)" fill="#da252e" opacity="1.000000"></path>
        <path d="M 1.722140 1.856420 C 1.562862 2.055516 1.642501 2.334251 1.881417 2.493529 C 2.080513 2.612986 2.279610 2.612986 2.279610 2.453709 C 2.279610 2.334251 2.518526 2.413890 2.837080 2.652806 C 3.235273 2.971360 3.474189 3.011180 3.673286 2.692625 C 3.792743 2.493529 3.832563 2.254613 3.713105 2.254613 C 3.593647 2.214793 3.354731 2.174974 3.195454 2.135155 C 2.996357 2.095336 2.677803 1.936058 2.399068 1.776781 C 2.160152 1.617504 1.841598 1.657323 1.722140 1.856420 Z" transform="scale(1.000000,1.000000) translate(176.000000,219.000000)" fill="#da252e" opacity="1.000000"></path>
        <path d="M 1.509491 1.652806 C 1.350214 1.851902 1.429852 2.130637 1.668768 2.289915 C 1.867865 2.409373 2.066961 2.409373 2.066961 2.250095 C 2.066961 2.130637 2.305877 2.210276 2.624431 2.449192 C 3.022625 2.767746 3.261540 2.807566 3.460637 2.489011 C 3.580095 2.289915 3.619914 2.050999 3.500456 2.050999 C 3.380998 2.011180 3.142082 1.971360 2.982805 1.931541 C 2.783709 1.891722 2.465154 1.732444 2.186419 1.573167 C 1.947503 1.413890 1.628949 1.453709 1.509491 1.652806 Z" transform="scale(1.000000,1.000000) translate(179.000000,220.000000)" fill="#da252e" opacity="1.000000"></path>
        <path d="M 1.296842 1.449192 C 1.137565 1.648288 1.217204 1.927023 1.456119 2.086301 C 1.655216 2.205759 1.854312 2.205759 1.854312 2.046481 C 1.854312 1.927023 2.093228 2.006662 2.411783 2.245578 C 2.809976 2.564132 3.048892 2.603952 3.247988 2.285397 C 3.367446 2.086301 3.407265 1.847385 3.287807 1.847385 C 3.168350 1.807566 2.929434 1.767746 2.770156 1.727927 C 2.571060 1.688108 2.252506 1.528830 1.973770 1.369553 C 1.734855 1.210276 1.416300 1.250095 1.296842 1.449192 Z" transform="scale(1.000000,1.000000) translate(182.000000,221.000000)" fill="#da252e" opacity="1.000000"></path>
        <path d="M 1.084194 1.245578 C 0.924916 1.444674 1.004555 1.723410 1.243471 1.882687 C 1.442567 2.002145 1.641664 2.002145 1.641664 1.842867 C 1.641664 1.723410 1.880580 1.803048 2.199134 2.041964 C 2.597327 2.360518 2.836243 2.400338 3.035339 2.081783 C 3.154797 1.882687 3.194617 1.643771 3.075159 1.643771 C 2.955701 1.603952 2.716785 1.564132 2.557508 1.524313 C 2.358411 1.484494 2.039857 1.325217 1.761122 1.165939 C 1.522206 1.006662 1.203651 1.046481 1.084194 1.245578 Z" transform="scale(1.000000,1.000000) translate(185.000000,222.000000)" fill="#da252e" opacity="1.000000"></path>
        <path d="M 1.871545 2.041964 C 1.712268 2.241061 1.791906 2.519796 2.030822 2.679073 C 2.229919 2.798531 2.429015 2.798531 2.429015 2.639254 C 2.429015 2.519796 2.667931 2.599434 2.986485 2.838350 C 3.384678 3.156905 3.623594 3.196724 3.822691 2.878169 C 3.942149 2.679073 3.981968 2.440157 3.862510 2.440157 C 3.743052 2.400338 3.504136 2.360518 3.344859 2.320699 C 3.145763 2.280880 2.827208 2.121603 2.548473 1.962325 C 2.309557 1.803048 1.991003 1.842867 1.871545 2.041964 Z" transform="scale(1.000000,1.000000) translate(187.000000,222.000000)" fill="#da252e" opacity="1.000000"></path>
        <path d="M 1.658896 1.838350 C 1.499619 2.037447 1.579257 2.316182 1.818173 2.475459 C 2.017270 2.594917 2.216366 2.594917 2.216366 2.435640 C 2.216366 2.316182 2.455282 2.395820 2.773837 2.634736 C 3.172030 2.953291 3.410945 2.993110 3.610042 2.674555 C 3.729500 2.475459 3.769319 2.236543 3.649861 2.236543 C 3.530403 2.196724 3.291488 2.156905 3.132210 2.117085 C 2.933114 2.077266 2.614559 1.917989 2.335824 1.758711 C 2.096908 1.599434 1.778354 1.639254 1.658896 1.838350 Z" transform="scale(1.000000,1.000000) translate(190.000000,223.000000)" fill="#da252e" opacity="1.000000"></path>
        <path d="M 1.446247 1.634736 C 1.286970 1.833833 1.366609 2.112568 1.605525 2.271845 C 1.804621 2.391303 2.003718 2.391303 2.003718 2.232026 C 2.003718 2.112568 2.242633 2.192206 2.561188 2.431122 C 2.959381 2.749677 3.198297 2.789496 3.397393 2.470942 C 3.516851 2.271845 3.556670 2.032929 3.437213 2.032929 C 3.317755 1.993110 3.078839 1.953291 2.919562 1.913471 C 2.720465 1.873652 2.401911 1.714375 2.123176 1.555098 C 1.884260 1.395820 1.565705 1.435640 1.446247 1.634736 Z" transform="scale(1.000000,1.000000) translate(193.000000,224.000000)" fill="#da252e" opacity="1.000000"></path>
        <path d="M 1.233599 1.431122 C 1.074321 1.630219 1.153960 1.908954 1.392876 2.068231 C 1.591972 2.187689 1.791069 2.187689 1.791069 2.028412 C 1.791069 1.908954 2.029985 1.988593 2.348539 2.227508 C 2.746732 2.546063 2.985648 2.585882 3.184745 2.267328 C 3.304202 2.068231 3.344022 1.829315 3.224564 1.829315 C 3.105106 1.789496 2.866190 1.749677 2.706913 1.709857 C 2.507816 1.670038 2.189262 1.510761 1.910527 1.351484 C 1.671611 1.192206 1.353057 1.232026 1.233599 1.431122 Z" transform="scale(1.000000,1.000000) translate(196.000000,225.000000)" fill="#da252e" opacity="1.000000"></path>
        <path d="M 2.020950 1.227508 C 1.861673 1.426605 1.941311 1.705340 2.180227 1.864617 C 2.379324 1.984075 2.578420 1.984075 2.578420 1.824798 C 2.578420 1.705340 2.817336 1.784979 3.135890 2.023894 C 3.534083 2.342449 3.772999 2.382268 3.972096 2.063714 C 4.091554 1.864617 4.131373 1.625701 4.011915 1.625701 C 3.892457 1.585882 3.653541 1.546063 3.494264 1.506243 C 3.295168 1.466424 2.976613 1.307147 2.697878 1.147870 C 2.458962 0.988593 2.140408 1.028412 2.020950 1.227508 Z" transform="scale(1.000000,1.000000) translate(198.000000,226.000000)" fill="#da252e" opacity="1.000000"></path>
        <path d="M 1.808301 2.023894 C 1.649024 2.222991 1.728663 2.501726 1.967578 2.661003 C 2.166675 2.780461 2.365771 2.780461 2.365771 2.621184 C 2.365771 2.501726 2.604687 2.581365 2.923242 2.820280 C 3.321435 3.138835 3.560351 3.178654 3.759447 2.860100 C 3.878905 2.661003 3.918724 2.422087 3.799266 2.422087 C 3.679809 2.382268 3.440893 2.342449 3.281615 2.302630 C 3.082519 2.262810 2.763965 2.103533 2.485229 1.944256 C 2.246314 1.784979 1.927759 1.824798 1.808301 2.023894 Z" transform="scale(1.000000,1.000000) translate(201.000000,226.000000)" fill="#da252e" opacity="1.000000"></path>
        <path d="M 1.595653 1.820280 C 1.436375 2.019377 1.516014 2.298112 1.754930 2.457389 C 1.954026 2.576847 2.153123 2.576847 2.153123 2.417570 C 2.153123 2.298112 2.392039 2.377751 2.710593 2.616667 C 3.108786 2.935221 3.347702 2.975040 3.546798 2.656486 C 3.666256 2.457389 3.706076 2.218474 3.586618 2.218474 C 3.467160 2.178654 3.228244 2.138835 3.068967 2.099016 C 2.869870 2.059196 2.551316 1.899919 2.272581 1.740642 C 2.033665 1.581365 1.715110 1.621184 1.595653 1.820280 Z" transform="scale(1.000000,1.000000) translate(204.000000,227.000000)" fill="#da252e" opacity="1.000000"></path>
        <path d="M 1.383004 1.616667 C 1.223727 1.815763 1.303365 2.094498 1.542281 2.253775 C 1.741378 2.373233 1.940474 2.373233 1.940474 2.213956 C 1.940474 2.094498 2.179390 2.174137 2.497944 2.413053 C 2.896137 2.731607 3.135053 2.771426 3.334150 2.452872 C 3.453608 2.253775 3.493427 2.014860 3.373969 2.014860 C 3.254511 1.975040 3.015595 1.935221 2.856318 1.895402 C 2.657222 1.855582 2.338667 1.696305 2.059932 1.537028 C 1.821016 1.377751 1.502462 1.417570 1.383004 1.616667 Z" transform="scale(1.000000,1.000000) translate(207.000000,228.000000)" fill="#da252e" opacity="1.000000"></path>
        <path d="M 1.170355 1.413053 C 1.011078 1.612149 1.090716 1.890884 1.329632 2.050162 C 1.528729 2.169619 1.727825 2.169619 1.727825 2.010342 C 1.727825 1.890884 1.966741 1.970523 2.285296 2.209439 C 2.683489 2.527993 2.922404 2.567812 3.121501 2.249258 C 3.240959 2.050162 3.280778 1.811246 3.161320 1.811246 C 3.041862 1.771426 2.802947 1.731607 2.643669 1.691788 C 2.444573 1.651968 2.126018 1.492691 1.847283 1.333414 C 1.608367 1.174137 1.289813 1.213956 1.170355 1.413053 Z" transform="scale(1.000000,1.000000) translate(210.000000,229.000000)" fill="#da252e" opacity="1.000000"></path>
        <path d="M 1.957706 1.209439 C 1.798429 1.408535 1.878068 1.687270 2.116984 1.846548 C 2.316080 1.966006 2.515177 1.966006 2.515177 1.806728 C 2.515177 1.687270 2.754092 1.766909 3.072647 2.005825 C 3.470840 2.324379 3.709756 2.364199 3.908852 2.045644 C 4.028310 1.846548 4.068129 1.607632 3.948672 1.607632 C 3.829214 1.567812 3.590298 1.527993 3.431021 1.488174 C 3.231924 1.448355 2.913370 1.289077 2.634635 1.129800 C 2.395719 0.970523 2.077164 1.010342 1.957706 1.209439 Z" transform="scale(1.000000,1.000000) translate(212.000000,230.000000)" fill="#da252e" opacity="1.000000"></path>
        <path d="M 1.745058 2.005825 C 1.585780 2.204921 1.665419 2.483656 1.904335 2.642934 C 2.103431 2.762392 2.302528 2.762392 2.302528 2.603114 C 2.302528 2.483656 2.541444 2.563295 2.859998 2.802211 C 3.258191 3.120765 3.497107 3.160585 3.696204 2.842030 C 3.815661 2.642934 3.855481 2.404018 3.736023 2.404018 C 3.616565 2.364199 3.377649 2.324379 3.218372 2.284560 C 3.019275 2.244741 2.700721 2.085463 2.421986 1.926186 C 2.183070 1.766909 1.864516 1.806728 1.745058 2.005825 Z" transform="scale(1.000000,1.000000) translate(215.000000,230.000000)" fill="#da252e" opacity="1.000000"></path>
        <path d="M 1.532409 1.802211 C 1.373132 2.001307 1.452770 2.280043 1.691686 2.439320 C 1.890783 2.558778 2.089879 2.558778 2.089879 2.399500 C 2.089879 2.280043 2.328795 2.359681 2.647349 2.598597 C 3.045542 2.917151 3.284458 2.956971 3.483555 2.638416 C 3.603013 2.439320 3.642832 2.200404 3.523374 2.200404 C 3.403916 2.160585 3.165000 2.120765 3.005723 2.080946 C 2.806627 2.041127 2.488072 1.881850 2.209337 1.722572 C 1.970421 1.563295 1.651867 1.603114 1.532409 1.802211 Z" transform="scale(1.000000,1.000000) translate(218.000000,231.000000)" fill="#da252e" opacity="1.000000"></path>
        <path d="M 1.319760 1.598597 C 1.160483 1.797694 1.240122 2.076429 1.479037 2.235706 C 1.678134 2.355164 1.877230 2.355164 1.877230 2.195887 C 1.877230 2.076429 2.116146 2.156067 2.434701 2.394983 C 2.832894 2.713538 3.071810 2.753357 3.270906 2.434802 C 3.390364 2.235706 3.430183 1.996790 3.310725 1.996790 C 3.191268 1.956971 2.952352 1.917151 2.793074 1.877332 C 2.593978 1.837513 2.275424 1.678236 1.996688 1.518958 C 1.757773 1.359681 1.439218 1.399500 1.319760 1.598597 Z" transform="scale(1.000000,1.000000) translate(221.000000,232.000000)" fill="#da252e" opacity="1.000000"></path>
        <path d="M 1.107112 1.394983 C 0.947834 1.594080 1.027473 1.872815 1.266389 2.032092 C 1.465485 2.151550 1.664582 2.151550 1.664582 1.992273 C 1.664582 1.872815 1.903498 1.952453 2.222052 2.191369 C 2.620245 2.509924 2.859161 2.549743 3.058257 2.231188 C 3.177715 2.032092 3.217535 1.793176 3.098077 1.793176 C 2.978619 1.753357 2.739703 1.713538 2.580426 1.673718 C 2.381329 1.633899 2.062775 1.474622 1.784040 1.315344 C 1.545124 1.156067 1.226569 1.195887 1.107112 1.394983 Z" transform="scale(1.000000,1.000000) translate(224.000000,233.000000)" fill="#da252e" opacity="1.000000"></path>
        <path d="M 1.854643 1.231188 C 1.735186 1.430285 1.695366 1.669201 1.814824 1.669201 C 1.934282 1.709020 2.252837 1.788659 2.451933 1.828478 C 2.690849 1.868297 2.969584 1.947936 3.168681 1.987755 C 3.327958 2.027575 2.929765 2.346129 2.332475 2.664683 C 0.580426 3.620347 1.496270 4.098178 3.327958 3.182334 C 4.880911 2.385948 5.000369 1.709020 3.606693 1.509924 C 3.288138 1.430285 2.850126 1.271008 2.571391 1.111731 C 2.332475 0.952453 2.013921 0.992273 1.854643 1.231188 Z" transform="scale(1.000000,1.000000) translate(226.000000,234.000000)" fill="#da252e" opacity="1.000000"></path>
        <path d="M 1.952352 1.655649 C 0.439218 2.452035 0.996688 3.168782 2.509822 2.412215 C 3.146931 2.053842 3.584943 1.615829 3.465485 1.416733 C 3.186750 0.938901 3.306208 0.899082 1.952352 1.655649 Z" transform="scale(1.000000,1.000000) translate(222.000000,237.000000)" fill="#da252e" opacity="1.000000"></path>
        <path d="M 2.572228 1.646614 C 1.059095 2.443000 1.616565 3.159747 3.129699 2.403181 C 3.766807 2.044807 4.204820 1.606795 4.085362 1.407698 C 3.806627 0.929866 3.926085 0.890047 2.572228 1.646614 Z" transform="scale(1.000000,1.000000) translate(217.000000,239.000000)" fill="#da252e" opacity="1.000000"></path>
        <path d="M 2.192105 1.637579 C 0.678971 2.433965 1.236441 3.150713 2.749575 2.394146 C 3.386684 2.035772 3.824696 1.597760 3.705238 1.398663 C 3.426503 0.920832 3.545961 0.881012 2.192105 1.637579 Z" transform="scale(1.000000,1.000000) translate(213.000000,241.000000)" fill="#da252e" opacity="1.000000"></path>
        <path d="M 2.811981 1.628544 C 1.298848 2.424930 1.856318 3.141678 3.369452 2.385111 C 4.006560 2.026737 4.444573 1.588725 4.325115 1.389628 C 4.046380 0.911797 4.165838 0.871977 2.811981 1.628544 Z" transform="scale(1.000000,1.000000) translate(208.000000,243.000000)" fill="#da252e" opacity="1.000000"></path>
        <path d="M 2.431858 1.619509 C 0.918724 2.415896 1.476195 3.132643 2.989328 2.376076 C 3.626437 2.017702 4.064449 1.579690 3.944991 1.380594 C 3.666256 0.902762 3.785714 0.862943 2.431858 1.619509 Z" transform="scale(1.000000,1.000000) translate(204.000000,245.000000)" fill="#da252e" opacity="1.000000"></path>
        <path d="M 2.051734 1.610475 C 0.538601 2.406861 1.096071 3.123608 2.609205 2.367041 C 3.246314 2.008668 3.684326 1.570655 3.564868 1.371559 C 3.286133 0.893727 3.405591 0.853908 2.051734 1.610475 Z" transform="scale(1.000000,1.000000) translate(200.000000,247.000000)" fill="#da252e" opacity="1.000000"></path>
        <path d="M 2.671611 1.601440 C 1.158477 2.397826 1.715948 3.114573 3.229081 2.358007 C 3.866190 1.999633 4.304202 1.561621 4.184745 1.362524 C 3.906009 0.884692 4.025467 0.844873 2.671611 1.601440 Z" transform="scale(1.000000,1.000000) translate(195.000000,249.000000)" fill="#da252e" opacity="1.000000"></path>
        <path d="M 2.291488 1.592405 C 0.778354 2.388791 1.335824 3.105539 2.848958 2.348972 C 3.486067 1.990598 3.924079 1.552586 3.804621 1.353489 C 3.525886 0.875658 3.645344 0.835838 2.291488 1.592405 Z" transform="scale(1.000000,1.000000) translate(191.000000,251.000000)" fill="#da252e" opacity="1.000000"></path>
        <path d="M 1.911364 2.583370 C 0.398231 3.379756 0.955701 4.096504 2.468834 3.339937 C 3.105943 2.981563 3.543956 2.543551 3.424498 2.344454 C 3.145763 1.866623 3.265220 1.826803 1.911364 2.583370 Z" transform="scale(1.000000,1.000000) translate(187.000000,252.000000)" fill="#da252e" opacity="1.000000"></path>
        <path d="M 2.531241 2.574335 C 1.018107 3.370722 1.575577 4.087469 3.088711 3.330902 C 3.725820 2.972528 4.163832 2.534516 4.044374 2.335420 C 3.765639 1.857588 3.885097 1.817769 2.531241 2.574335 Z" transform="scale(1.000000,1.000000) translate(182.000000,254.000000)" fill="#da252e" opacity="1.000000"></path>
        <path d="M 1.500456 1.481145 C 1.341179 1.680241 1.420818 1.958976 1.619914 2.078434 C 1.819011 2.237711 2.097746 2.158073 2.217204 1.958976 C 2.376481 1.759880 2.296842 1.481145 2.097746 1.361687 C 1.898649 1.202410 1.619914 1.282048 1.500456 1.481145 Z" transform="scale(1.000000,1.000000) translate(181.000000,258.000000)" fill="#da252e" opacity="1.000000"></path>
        <path d="M 1.491421 2.073917 C 1.332144 2.273013 1.411783 2.551748 1.610879 2.671206 C 1.809976 2.830484 2.088711 2.750845 2.208169 2.551748 C 2.367446 2.352652 2.287807 2.073917 2.088711 1.954459 C 1.889614 1.795182 1.610879 1.874820 1.491421 2.073917 Z" transform="scale(1.000000,1.000000) translate(183.000000,259.000000)" fill="#da252e" opacity="1.000000"></path>
        <path d="M 1.482387 1.666689 C 1.323109 1.865785 1.402748 2.144521 1.601844 2.263979 C 1.800941 2.423256 2.079676 2.343617 2.199134 2.144521 C 2.358411 1.945424 2.278773 1.666689 2.079676 1.547231 C 1.880580 1.387954 1.601844 1.467592 1.482387 1.666689 Z" transform="scale(1.000000,1.000000) translate(185.000000,261.000000)" fill="#da252e" opacity="1.000000"></path>
        <path d="M 1.473352 1.259461 C 1.314075 1.458558 1.393713 1.737293 1.592810 1.856751 C 1.791906 2.016028 2.070641 1.936389 2.190099 1.737293 C 2.349376 1.538196 2.269738 1.259461 2.070641 1.140003 C 1.871545 0.980726 1.592810 1.060365 1.473352 1.259461 Z" transform="scale(1.000000,1.000000) translate(187.000000,263.000000)" fill="#da252e" opacity="1.000000"></path>
        <path d="M 1.464317 1.852233 C 1.305040 2.051330 1.384678 2.330065 1.583775 2.449523 C 1.782871 2.608800 2.061607 2.529161 2.181064 2.330065 C 2.340342 2.130968 2.260703 1.852233 2.061607 1.732775 C 1.862510 1.573498 1.583775 1.653137 1.464317 1.852233 Z" transform="scale(1.000000,1.000000) translate(189.000000,264.000000)" fill="#da252e" opacity="1.000000"></path>
        <path d="M 1.455282 1.445005 C 1.296005 1.644102 1.375644 1.922837 1.574740 2.042295 C 1.773837 2.201572 2.052572 2.121934 2.172030 1.922837 C 2.331307 1.723741 2.251668 1.445005 2.052572 1.325548 C 1.853475 1.166270 1.574740 1.245909 1.455282 1.445005 Z" transform="scale(1.000000,1.000000) translate(191.000000,266.000000)" fill="#da252e" opacity="1.000000"></path>
        <path d="M 1.446247 2.037778 C 1.286970 2.236874 1.366609 2.515609 1.565705 2.635067 C 1.764802 2.794344 2.043537 2.714706 2.162995 2.515609 C 2.322272 2.316513 2.242633 2.037778 2.043537 1.918320 C 1.844440 1.759042 1.565705 1.838681 1.446247 2.037778 Z" transform="scale(1.000000,1.000000) translate(193.000000,267.000000)" fill="#da252e" opacity="1.000000"></path>
        <path d="M 1.437213 1.630550 C 1.277935 1.829646 1.357574 2.108381 1.556670 2.227839 C 1.755767 2.387117 2.034502 2.307478 2.153960 2.108381 C 2.313237 1.909285 2.233599 1.630550 2.034502 1.511092 C 1.835406 1.351815 1.556670 1.431453 1.437213 1.630550 Z" transform="scale(1.000000,1.000000) translate(195.000000,269.000000)" fill="#da252e" opacity="1.000000"></path>
        <path d="M 1.428178 1.223322 C 1.268901 1.422418 1.348539 1.701154 1.547636 1.820612 C 1.746732 1.979889 2.025467 1.900250 2.144925 1.701154 C 2.304202 1.502057 2.224564 1.223322 2.025467 1.103864 C 1.826371 0.944587 1.547636 1.024225 1.428178 1.223322 Z" transform="scale(1.000000,1.000000) translate(197.000000,271.000000)" fill="#da252e" opacity="1.000000"></path>
        <path d="M 1.419143 1.816094 C 1.259866 2.015191 1.339504 2.293926 1.538601 2.413384 C 1.737697 2.572661 2.016433 2.493022 2.135890 2.293926 C 2.295168 2.094829 2.215529 1.816094 2.016433 1.696636 C 1.817336 1.537359 1.538601 1.616998 1.419143 1.816094 Z" transform="scale(1.000000,1.000000) translate(199.000000,272.000000)" fill="#da252e" opacity="1.000000"></path>
        <path d="M 1.410108 1.408866 C 1.250831 1.607963 1.330470 1.886698 1.529566 2.006156 C 1.728663 2.165433 2.007398 2.085794 2.126856 1.886698 C 2.286133 1.687601 2.206494 1.408866 2.007398 1.289408 C 1.808301 1.130131 1.529566 1.209770 1.410108 1.408866 Z" transform="scale(1.000000,1.000000) translate(201.000000,274.000000)" fill="#da252e" opacity="1.000000"></path>
        <path d="M 1.202814 2.245072 C 1.083356 2.444168 1.202814 2.762723 1.521369 2.882181 C 2.437213 3.200735 4.786552 2.882181 4.786552 2.444168 C 4.786552 1.886698 1.521369 1.687601 1.202814 2.245072 Z" transform="scale(1.000000,1.000000) translate(194.000000,274.000000)" fill="#da252e" opacity="1.000000"></path>
        <path d="M 28.610217 2.175987 C 20.049067 3.410385 12.602857 7.392315 8.143095 13.046657 C 5.913214 15.873827 3.444417 20.532686 2.568392 23.678411 C 1.533090 27.262148 0.816343 32.836851 1.333994 33.712875 C 2.249838 35.385286 19.173042 56.170963 19.411958 55.932047 C 19.571235 55.812589 23.632804 43.866798 28.450940 29.412391 L 37.211187 3.171469 L 48.121676 35.902937 C 54.094572 53.941082 59.191443 68.873321 59.470178 69.152056 C 59.788732 69.510430 66.836749 66.882356 88.976282 58.122109 C 104.943823 51.790840 118.084194 46.654149 118.124013 46.733788 C 118.203651 46.773607 114.062444 59.913978 108.965573 75.881519 C 102.156472 97.025569 99.767314 105.029249 100.085868 105.347804 C 100.324784 105.586719 114.261540 109.688108 131.065287 114.466424 C 147.869033 119.284560 161.566874 123.226671 161.527054 123.266490 C 161.487235 123.306310 150.696204 128.204084 137.555833 134.176980 C 124.415463 140.149875 113.504974 145.127288 113.345696 145.326385 C 113.146600 145.485662 118.044374 149.626870 124.176547 154.524644 C 136.600170 164.439651 135.286133 163.802542 140.502462 162.408866 C 146.276261 160.855913 152.448253 156.953622 155.872713 152.573498 C 158.062775 149.825966 160.969584 144.052167 161.805789 140.747165 C 162.920730 136.287403 163.398562 130.314507 162.880911 126.810408 C 162.641995 125.058359 162.442898 123.266490 162.442898 122.828478 C 162.403079 119.244741 159.575908 108.334251 156.828376 101.206596 C 142.214692 63.457896 103.351051 24.275700 64.925423 8.547075 C 56.961562 5.281892 49.555171 3.370566 40.595828 2.175987 C 35.260041 1.499058 33.269076 1.499058 28.610217 2.175987 Z" transform="scale(1.000000,1.000000) translate(68.000000,113.000000)" fill="#c31a24" opacity="1.000000"></path>
    </g>
</svg>