<?xml version="1.0" encoding="UTF-8" standalone="yes"?>
<!DOCTYPE svg PUBLIC "-//W3C//DTD SVG 1.1//EN" "http://www.w3.org/Graphics/SVG/1.1/DTD/svg11.dtd">

<svg width="350" height="175" viewBox="0 0 350 175" xmlns="http://www.w3.org/2000/svg" xmlns:xlink="http://www.w3.org/1999/xlink" version="1.1" baseProfile="full">
    <g transform="scale(1,-1) translate(0,-175)">
        <path d="M 23.102776 18.160986 C 20.799173 17.939486 16.900767 17.363585 14.464264 16.831984 C 9.945658 15.901683 1.883048 13.509480 1.262847 12.933579 C 1.085647 12.756379 1.883048 10.452776 3.034849 7.750472 C 5.427052 2.257265 5.737153 1.725664 6.224453 1.991465 C 6.401654 2.124365 7.331955 2.035765 8.217956 1.769964 L 9.857058 1.326964 L 17.255168 8.282073 C 27.399882 17.806586 28.241583 18.648286 27.754283 18.603986 C 27.488482 18.559686 25.406380 18.382486 23.102777 18.160986 Z" transform="scale(1.000000,1.000000) translate(59.000000,147.000000)" fill="#1b58a8" opacity="1.000000"></path>
        <path d="M 1.962787 18.426786 C 1.962787 18.382486 6.038393 14.528380 11.044300 9.876875 L 20.081511 1.326964 L 22.385114 1.947164 L 24.644417 2.523065 L 26.770820 7.573272 L 28.941523 12.667779 L 27.302421 13.420880 C 22.872415 15.414382 11.398699 17.895186 4.753690 18.338186 C 3.203188 18.426786 1.962787 18.471086 1.962787 18.426786 Z" transform="scale(1.000000,1.000000) translate(89.000000,147.000000)" fill="#1b58a8" opacity="1.000000"></path>
        <path d="M 10.444772 22.592174 C 2.913762 15.548465 1.141760 13.643562 1.318960 12.934761 C 1.451860 12.447461 1.584760 11.428559 1.584760 10.719758 C 1.584760 9.479357 1.983461 9.169256 8.628469 5.492351 L 15.716479 1.593946 L 17.399881 2.524247 C 19.481984 3.631749 20.456585 3.631749 22.538688 2.524247 L 24.177790 1.638246 L 31.265800 5.492351 C 37.999409 9.169256 38.353809 9.435056 38.353809 10.719758 C 38.353809 11.428559 38.486709 12.447461 38.619610 12.934761 C 38.796810 13.643562 37.113407 15.459865 30.291199 21.794773 C 25.639693 26.180479 21.342586 30.123184 20.810986 30.566184 C 19.836385 31.319285 19.747785 31.274985 10.444773 22.592174 Z" transform="scale(1.000000,1.000000) translate(69.000000,133.000000)" fill="#1b58a8" opacity="1.000000"></path>
        <path d="M 18.086237 14.655373 C 12.947430 11.953069 9.137625 9.427966 4.796219 5.883961 C -0.874188 1.276755 -1.627289 1.631156 12.681629 2.251357 C 19.548139 2.517157 25.307146 2.782957 25.528647 2.782957 C 25.705847 2.827257 25.838747 3.093058 25.838747 3.447458 C 25.838747 3.757559 26.237447 4.554960 26.724748 5.175161 L 27.655049 6.326962 L 25.351446 11.687269 C 24.111045 14.611073 22.959243 17.003276 22.782043 17.003276 C 22.649143 17.003276 20.522740 15.940075 18.086236 14.655373 Z" transform="scale(1.000000,1.000000) translate(35.000000,142.000000)" fill="#1b58a8" opacity="1.000000"></path>
        <path d="M 5.314825 15.940075 C 5.093325 15.319874 4.118724 12.927671 3.099822 10.579768 L 1.283520 6.326962 L 2.213821 5.175160 C 2.701122 4.554960 3.099822 3.801859 3.099822 3.491758 C 3.099822 2.738657 6.245126 2.472857 18.383343 2.162756 L 28.572356 1.896956 L 26.180153 4.111959 C 22.547548 7.523063 16.256940 11.820169 11.029532 14.566773 C 8.415829 15.895775 6.200826 17.003276 6.023626 17.003276 C 5.846425 17.003276 5.536325 16.515976 5.314825 15.940075 Z" transform="scale(1.000000,1.000000) translate(114.000000,142.000000)" fill="#1b58a8" opacity="1.000000"></path>
        <path d="M 10.277025 30.124952 C 6.068520 29.947752 2.480215 29.637651 2.303015 29.504751 C 1.815714 29.017451 1.682814 3.589217 2.170114 3.589217 C 2.435915 3.589217 3.233316 3.101916 3.942117 2.481715 L 5.226819 1.418514 L 12.935029 3.589217 C 17.187835 4.829618 20.687539 5.804220 20.731839 5.804220 C 20.776139 5.804220 21.041940 6.601621 21.307740 7.531922 C 21.839341 9.525425 23.567043 11.120227 25.117545 11.120227 C 25.693446 11.120227 26.313647 11.474627 26.579447 11.917628 C 27.066748 12.847929 31.053753 26.448047 31.053753 27.201148 C 31.053753 27.511249 30.522153 28.220050 29.946252 28.795950 C 29.326051 29.371851 28.838750 29.992052 28.838750 30.213552 C 28.838750 30.656553 21.440640 30.656553 10.277025 30.124952 Z" transform="scale(1.000000,1.000000) translate(32.000000,112.000000)" fill="#1b58a8" opacity="1.000000"></path>
        <path d="M 3.656822 29.681951 C 3.346721 29.106051 2.815121 28.441550 2.505020 28.264349 C 1.619019 27.777049 1.707619 27.068248 3.391021 21.353540 C 4.232723 18.518336 5.207324 15.062932 5.606024 13.689630 C 6.314825 11.297427 6.403425 11.120227 7.688127 11.120227 C 9.371529 11.120227 11.630832 8.905224 11.630832 7.310421 C 11.630832 5.981420 11.763732 5.937120 20.623744 3.367716 L 27.623153 1.329914 L 28.952155 2.481715 C 29.705256 3.101916 30.502657 3.589217 30.724157 3.589217 C 31.167158 3.589217 31.255758 19.492939 30.857058 25.606346 L 30.546957 29.593352 L 26.958652 29.903452 C 24.965149 30.036352 19.073242 30.302153 13.801534 30.435053 L 4.188421 30.745153 L 3.656820 29.681952 Z" transform="scale(1.000000,1.000000) translate(113.000000,112.000000)" fill="#1b58a8" opacity="1.000000"></path>
        <path d="M 9.148257 19.909949 C 8.439456 19.466948 7.464855 19.068248 7.066154 19.068248 C 6.268753 19.068248 6.224453 18.979648 2.813349 7.328732 C 1.617247 3.297427 1.572947 2.810126 2.193148 2.145625 C 2.547548 1.702625 3.079149 1.348224 3.344949 1.348224 C 3.610750 1.392524 8.528056 3.341727 14.242764 5.733930 C 24.431777 9.942436 24.653278 10.075336 24.786178 11.404338 C 24.919078 12.866240 25.760779 12.334639 12.692262 19.511248 C 10.477259 20.751650 10.477259 20.751650 9.148257 19.909949 Z" transform="scale(1.000000,1.000000) translate(59.000000,120.000000)" fill="#1b58a8" opacity="1.000000"></path>
        <path d="M 8.328999 16.853248 C 1.462489 13.043442 1.285289 12.910543 1.285289 11.492940 C 1.285289 9.898138 0.930889 10.075338 16.878910 3.563230 C 22.505018 1.303927 22.770818 1.215327 23.612519 1.968428 C 24.409920 2.721529 24.409920 2.810129 22.903718 7.904636 C 22.062017 10.739839 20.998816 14.416744 20.511515 16.100147 C 19.891314 18.270849 19.448314 19.068250 18.872413 19.068250 C 18.473712 19.068250 17.499111 19.422651 16.746010 19.909952 L 15.417008 20.707353 L 8.328999 16.853247 Z" transform="scale(1.000000,1.000000) translate(93.000000,120.000000)" fill="#1b58a8" opacity="1.000000"></path>
        <path d="M 13.075606 24.340551 C 11.569404 22.524249 9.398701 19.689045 8.246900 17.961343 C 6.076197 14.727438 1.203191 5.734526 1.468991 5.468726 C 1.557591 5.424426 4.038394 4.361224 6.962198 3.120822 C 12.233905 0.905820 12.278205 0.905820 13.341406 1.747521 C 13.917307 2.190521 14.626108 2.589222 14.936209 2.589222 C 15.733610 2.589222 16.132310 9.544331 15.955110 19.644745 L 15.822210 27.618755 L 13.075606 24.340551 Z" transform="scale(1.000000,1.000000) translate(16.000000,113.000000)" fill="#1b58a8" opacity="1.000000"></path>
        <path d="M 1.939163 16.765238 C 1.894863 5.291523 2.116364 2.589219 3.002365 2.589219 C 3.312465 2.589219 4.021266 2.190519 4.597167 1.747518 C 5.660368 0.905817 5.704668 0.905817 10.976375 3.120820 C 13.900179 4.361222 16.380982 5.424423 16.425283 5.468723 C 16.513883 5.557323 15.494981 7.772326 14.121680 10.430330 C 11.463676 15.480536 7.210870 21.726845 3.932666 25.403749 L 1.939163 27.618752 L 1.939163 16.765238 Z" transform="scale(1.000000,1.000000) translate(144.000000,113.000000)" fill="#1b58a8" opacity="1.000000"></path>
        <path d="M 26.862962 78.873329 L 16.142347 74.399023 L 15.920847 72.671321 C 15.610747 70.412018 14.015944 68.772915 11.800941 68.418515 L 10.073239 68.152714 L 5.997634 58.406701 C 3.738331 53.046394 1.789128 48.217688 1.611928 47.686087 C 1.434728 47.021586 1.656228 46.312785 2.276429 45.515384 C 3.516831 43.964882 3.516831 40.996778 2.320729 39.446276 C 1.833428 38.826075 1.434728 38.072974 1.479028 37.718573 C 1.479028 37.408473 3.428231 32.579766 5.776134 26.953659 L 10.073239 16.764646 L 11.756641 16.498845 C 14.015944 16.144445 15.610746 14.505343 15.920847 12.246040 L 16.142347 10.474037 L 27.040162 5.955431 C 33.197870 3.430328 38.026576 1.658326 38.115177 1.924126 C 38.380977 2.677227 40.684580 3.696128 42.102182 3.696128 C 42.810983 3.696128 44.051385 3.253128 44.893086 2.677227 L 46.399288 1.658325 L 57.164202 6.088331 L 67.884816 10.518337 L 67.884816 11.980239 C 67.884816 14.018042 69.878319 16.144445 72.093322 16.498845 L 73.821024 16.764646 L 78.162430 27.175159 C 82.415236 37.408473 82.858237 38.693175 82.149436 38.693175 C 81.484935 38.693175 80.731834 40.863878 80.731834 42.591580 C 80.731834 43.521881 81.130534 44.717983 81.617835 45.338184 C 82.105135 45.958384 82.503836 46.667185 82.503836 46.888686 C 82.503836 47.154486 80.554633 52.027493 78.162430 57.742200 L 73.821024 68.152714 L 72.093322 68.418514 C 69.878319 68.772915 67.884816 70.899318 67.884816 72.937120 L 67.884816 74.354722 L 56.987002 78.873328 C 46.133487 83.391934 46.089187 83.391934 45.158885 82.550233 C 43.785584 81.265531 41.659181 80.999731 39.798578 81.885732 C 38.912577 82.328733 38.203776 82.816033 38.203776 83.037534 C 38.203776 83.259034 38.070876 83.436234 37.893676 83.391934 C 37.672175 83.391934 32.710569 81.354132 26.862961 78.873328 Z M 46.044887 71.962520 C 50.519193 71.120819 56.854101 63.456908 58.404603 57.166299 C 58.670404 56.014498 58.626104 55.970198 57.518602 56.413198 C 56.145301 56.900499 54.151798 56.324598 54.151798 55.394297 C 54.151798 54.951296 54.771999 54.729796 56.189601 54.729796 C 58.316003 54.685496 59.467805 54.065295 59.467805 53.046394 C 59.467805 52.603393 59.202005 52.559093 58.183103 52.913494 C 57.474302 53.179294 56.322501 53.312194 55.702300 53.223594 L 54.506198 53.090694 L 55.658000 51.805992 C 56.588301 50.831391 57.164202 50.609890 58.138803 50.742791 C 59.379205 50.919991 59.467805 50.831391 59.733605 48.926488 C 60.575306 43.654781 59.955105 39.712076 57.430002 33.953069 C 55.923800 30.586264 54.993499 30.098964 51.272294 30.807764 C 49.588892 31.073565 47.639689 31.738066 46.886588 32.269666 C 45.247486 33.332868 43.519784 36.611072 43.209683 39.224776 L 42.988183 41.129678 L 44.538685 38.693175 C 47.063789 34.794770 47.506789 34.263169 48.215590 34.263169 C 48.747191 34.263169 48.658591 34.617569 47.949790 36.079471 C 47.418189 37.098373 47.108089 37.984374 47.196689 38.072974 C 47.285289 38.205874 47.905490 38.072974 48.569991 37.807174 C 49.987593 37.275573 51.936795 37.231273 51.936795 37.718574 C 51.936795 37.895774 51.405194 38.383074 50.740693 38.781775 C 49.500292 39.534876 49.544592 39.534876 53.044296 39.490576 C 57.075602 39.446276 57.518603 39.313376 56.765501 38.427375 C 56.366801 37.940074 56.411101 37.807174 56.987002 37.807174 C 57.740103 37.807174 57.873003 38.560275 57.430002 39.756376 C 56.632601 41.882779 50.917894 43.167481 46.399288 42.237180 C 45.025986 41.971379 43.785584 41.838479 43.608384 41.971379 C 43.475484 42.148579 43.696984 42.901680 44.139985 43.654781 C 44.760185 44.629383 44.804485 44.939483 44.361485 44.806583 C 43.475484 44.540783 41.747781 41.794179 41.437681 40.243677 L 41.171881 38.958975 L 40.595980 40.465177 C 39.754279 42.857380 39.842879 43.433281 41.526281 45.293883 C 42.367982 46.224185 43.076783 47.110186 43.076783 47.287386 C 43.076783 47.420286 42.456582 47.818987 41.747781 48.084787 C 40.463080 48.616388 40.418780 48.704988 41.083280 49.679589 C 41.481981 50.211190 42.102182 50.654190 42.500882 50.654190 C 42.899583 50.654190 43.076783 50.919991 42.899583 51.318691 C 42.766683 51.717392 42.943883 52.116092 43.298283 52.248993 C 43.652684 52.426193 43.829884 52.691993 43.696984 52.913493 C 43.564084 53.179294 43.918484 53.223594 44.582985 53.046394 C 45.203186 52.913493 46.354987 53.002094 47.108088 53.267894 C 48.924391 53.888095 49.278791 53.577994 47.683989 52.780593 C 45.823387 51.894592 45.911987 51.274391 47.949789 51.451591 C 49.323091 51.584492 49.721792 51.495892 49.721792 50.919991 C 49.721792 49.901089 51.316594 49.147988 51.670995 50.033990 C 52.069695 51.097191 51.981095 52.071792 51.227994 54.596896 C 49.943292 58.982601 47.683989 60.001503 43.121083 58.185201 C 41.747782 57.653600 40.773180 57.476400 40.640280 57.742200 C 40.463080 58.008000 40.684580 58.318101 41.038981 58.451001 C 41.437681 58.583901 41.747782 59.026902 41.747782 59.337002 C 41.747782 60.134403 38.203777 66.159211 37.716476 66.159211 C 36.919075 66.159211 36.741875 62.438006 37.229175 55.527197 C 38.248077 41.129678 40.285880 33.687268 44.450085 29.168662 C 46.709388 26.732159 48.215590 26.111958 51.360894 26.377758 C 53.797397 26.599258 53.930298 26.687858 56.455401 29.434462 C 57.873003 30.984964 59.689305 33.332867 60.398106 34.617569 C 61.992908 37.364173 62.746009 37.585673 62.303009 35.282070 C 61.815708 32.313966 60.353806 29.655962 58.227403 27.751060 L 56.145301 25.890457 L 58.227403 26.156258 C 60.619607 26.422058 61.284107 25.757557 60.442406 23.852655 C 59.910805 22.745153 58.316003 22.124952 54.816299 21.637652 C 51.538094 21.194651 53.442997 20.352950 56.987002 20.707351 L 59.689305 20.973151 L 57.961603 19.378349 C 56.366801 17.872147 56.145301 17.783547 54.063198 18.049347 C 48.569991 18.802448 42.988183 21.992052 39.444178 26.422058 C 37.273475 29.168662 36.121674 31.649465 34.305371 37.585673 C 33.552270 40.022177 32.621969 42.414380 32.267569 42.901680 C 31.603068 43.743382 31.603068 43.743382 31.558768 42.547280 C 31.558768 39.401976 34.969872 28.282661 36.874775 25.225958 C 37.760776 23.852656 37.982276 23.188155 37.583576 23.188155 C 36.830475 23.188155 34.704072 25.536058 32.577669 28.769963 C 31.691668 30.098964 30.938567 31.162166 30.849966 31.162166 C 30.761366 31.162166 30.672766 30.763465 30.672766 30.276165 C 30.672766 29.788864 32.178968 27.219460 33.950971 24.517157 C 37.273475 19.599850 37.450675 18.536649 34.615472 20.574452 C 33.153570 21.593353 33.064969 21.460453 33.995271 19.644151 C 34.393971 18.846750 35.590073 17.872148 36.874775 17.207647 C 38.115176 16.587447 39.089778 15.967246 39.089778 15.834346 C 39.089778 15.657145 38.336676 15.701445 37.450675 15.878646 C 31.691668 16.897547 25.799760 24.295657 22.565856 34.484670 C 20.926754 39.756377 20.350853 44.186383 20.572353 49.856791 C 21.015354 59.824305 24.072058 64.431511 33.463671 69.171616 C 38.956878 71.962520 42.235082 72.715621 46.044887 71.962520 Z M 47.418189 56.634700 C 48.215590 56.457500 49.057291 55.925899 49.323092 55.438598 C 49.766092 54.596897 49.721792 54.552597 49.012991 54.906998 C 48.525691 55.084198 47.196689 55.305698 45.956287 55.349998 C 42.899583 55.394298 42.633783 55.482898 42.633783 55.970199 C 42.633783 56.546100 44.405785 57.299201 45.291786 57.077700 C 45.646187 56.989100 46.620788 56.811900 47.418189 56.634700 Z" transform="scale(1.000000,1.000000) translate(47.000000,45.000000)" fill="#1b58a8" opacity="1.000000"></path>
        <path d="M 5.747785 4.722121 C 4.507383 4.234820 2.646780 2.772918 2.159480 1.842617 C 1.716479 1.045216 1.849379 1.089516 3.665682 2.108417 C 4.906083 2.861518 6.589485 3.348819 8.405788 3.570319 C 10.886591 3.791820 11.108091 3.924720 10.399290 4.456320 C 9.557589 5.032221 6.988186 5.165121 5.747784 4.722121 Z" transform="scale(1.000000,1.000000) translate(83.000000,111.000000)" fill="#1b58a8" opacity="1.000000"></path>
        <path d="M 1.639687 4.774689 C 1.285286 3.800088 2.702888 2.426786 4.652091 1.895185 C 5.759593 1.585085 7.044294 1.585085 8.639096 1.939485 C 11.917301 2.559686 12.227401 2.692586 11.917301 3.224187 C 11.695800 3.578587 11.430000 3.578587 11.075600 3.268487 C 10.676899 2.958387 10.056698 3.046987 8.904897 3.667187 C 7.974596 4.198788 6.424093 4.553189 5.272292 4.553189 C 4.164790 4.553189 3.278789 4.774689 3.278789 4.996189 C 3.278789 5.704990 1.949788 5.527790 1.639687 4.774689 Z" transform="scale(1.000000,1.000000) translate(93.000000,88.000000)" fill="#1b58a8" opacity="1.000000"></path>
        <path d="M 23.465445 54.399027 C 12.656231 52.361224 5.080921 45.494715 2.600118 35.527203 C 1.536917 31.407297 1.891317 22.192885 3.264619 18.294479 C 6.498524 8.947166 14.295334 3.188160 25.503249 1.814857 C 30.597756 1.194656 36.932664 1.859157 42.292972 3.586859 L 46.058477 4.782961 L 46.191377 17.497078 L 46.279978 30.211195 L 42.071472 30.211195 L 37.862966 30.211195 L 37.862966 20.465182 L 37.862966 10.763469 L 36.223864 10.276169 C 27.585353 7.795366 16.953338 11.162170 13.320733 17.541378 C 9.067927 24.939489 9.909629 35.217103 15.269936 41.020410 C 21.117544 47.355318 33.565860 48.817220 42.824573 44.254314 L 44.950976 43.191113 L 44.950976 47.311018 L 44.950976 51.430924 L 43.577674 52.139725 C 39.280568 54.399028 29.224454 55.506529 23.465447 54.399028 Z" transform="scale(1.000000,1.000000) translate(186.000000,65.000000)" opacity="1.000000"></path>
        <path d="M 1.582988 27.483493 L 1.582988 1.789458 L 2.601890 1.656558 C 3.133490 1.567958 11.196101 1.567958 20.543413 1.656558 L 37.466036 1.745158 L 37.466036 5.510663 L 37.466036 9.276168 L 23.733018 9.276168 L 10.000000 9.276168 L 10.000000 16.364178 L 10.000000 23.452187 L 22.404016 23.452187 L 34.808033 23.452187 L 34.808033 27.439192 L 34.808033 31.426198 L 22.404016 31.426198 L 10.000000 31.426198 L 10.000000 38.292707 L 10.000000 45.159216 L 23.511518 45.159216 L 37.023036 45.159216 L 37.023036 49.146221 L 37.023036 53.133227 L 19.303012 53.133227 L 1.582989 53.133227 L 1.582989 27.483492 Z" transform="scale(1.000000,1.000000) translate(240.000000,66.000000)" opacity="1.000000"></path>
        <path d="M 1.997046 27.439190 L 1.997046 1.745156 L 6.205552 1.745156 L 10.414057 1.745156 L 10.458357 18.712078 C 10.502657 28.015090 10.502657 35.900500 10.458357 36.210601 C 10.414057 36.476402 10.458357 36.742202 10.591258 36.742202 C 10.724158 36.742202 14.312462 31.470495 18.565268 25.002686 L 26.317779 13.263171 L 29.108682 13.263171 L 31.899586 13.307471 L 39.740697 25.135587 L 47.626107 36.963703 L 47.626107 19.376579 C 47.626107 8.345865 47.803307 1.745156 48.069108 1.656555 C 48.290608 1.612255 50.239811 1.567955 52.366213 1.656555 L 56.264619 1.789456 L 56.131718 27.483490 L 56.043118 53.133225 L 52.277613 53.133225 L 48.512108 53.133225 L 38.810395 38.425605 L 29.108683 23.717985 L 19.406970 38.425605 L 9.749557 53.133225 L 5.895452 53.133225 L 1.997047 53.133225 L 1.997047 27.439190 Z" transform="scale(1.000000,1.000000) translate(283.000000,66.000000)" opacity="1.000000"></path>
        <path d="M 7.405787 28.165121 C 6.741286 27.013320 3.950382 17.444507 3.330181 14.254903 C 2.709981 10.799498 1.735379 1.850887 1.956880 1.585086 C 2.045480 1.496486 5.899585 5.527791 10.551091 10.533698 L 19.056703 19.570910 L 18.702302 21.830213 L 18.392202 24.133816 L 13.120495 26.304519 C 7.272887 28.741022 7.671587 28.608122 7.405787 28.165121 Z" transform="scale(1.000000,1.000000) translate(9.000000,88.000000)" fill="#1b58a8" opacity="1.000000"></path>
        <path d="M 7.640874 26.304520 C 2.546367 24.133817 2.546367 24.133817 2.280566 22.406115 C 2.147666 21.475814 1.926166 20.501212 1.837566 20.235412 C 1.704666 19.925312 18.494387 1.452186 18.937388 1.452186 C 19.203188 1.452186 18.494387 7.875695 17.785586 12.438601 C 16.855285 18.064708 13.931481 28.076521 13.178380 28.298021 C 12.912580 28.386622 10.431777 27.456320 7.640873 26.304519 Z" transform="scale(1.000000,1.000000) translate(148.000000,88.000000)" fill="#1b58a8" opacity="1.000000"></path>
        <path d="M 10.998228 22.861520 C 2.049615 20.247816 2.359716 20.380716 2.359716 19.228915 C 2.359716 18.741614 2.049616 17.767013 1.650915 17.102512 C 0.942114 15.950711 1.030714 15.773510 5.017720 8.508301 C 10.599527 -1.592112 9.979326 -1.813613 15.738334 12.052305 C 20.168340 22.772920 20.168340 22.772920 19.326639 23.880422 C 18.883638 24.500622 18.440638 24.987923 18.307738 24.987923 C 18.174838 24.987923 14.896633 24.013322 10.998228 22.861520 Z" transform="scale(1.000000,1.000000) translate(35.000000,91.000000)" fill="#1b58a8" opacity="1.000000"></path>
        <path d="M 1.523331 23.880416 C 0.770230 22.728614 0.814530 22.595714 4.447135 13.780003 C 9.940342 0.489985 9.630242 1.110185 10.826343 1.110185 C 11.712344 1.110185 12.421145 2.173387 15.920850 8.552595 C 19.464855 15.020404 19.907855 16.039305 19.420555 16.836706 C 19.110454 17.324007 18.756054 18.298608 18.578853 19.051709 C 18.313053 20.336411 18.135853 20.425011 11.269344 22.462814 C 7.370938 23.614615 3.738334 24.633517 3.251033 24.766417 C 2.542232 24.943617 2.099231 24.722117 1.523330 23.880416 Z" transform="scale(1.000000,1.000000) translate(122.000000,91.000000)" fill="#1b58a8" opacity="1.000000"></path>
        <path d="M 10.411695 30.559090 C 5.893089 25.774683 1.950383 21.521878 1.640283 21.078877 C 1.152983 20.370076 2.127584 19.218275 9.791494 11.022764 L 18.474306 1.719751 L 20.822209 1.764051 L 23.170112 1.852651 L 27.157118 9.117861 L 31.188423 16.427371 L 30.302422 17.490572 C 29.239220 18.863874 29.239220 21.388977 30.302422 23.160980 L 31.144123 24.534282 L 27.378618 31.356491 C 25.340815 35.121996 23.524513 38.311600 23.347312 38.444500 C 23.170112 38.621700 22.018311 38.843200 20.822209 39.020401 L 18.607206 39.286201 L 10.411695 30.559089 Z" transform="scale(1.000000,1.000000) translate(11.000000,67.000000)" fill="#1b58a8" opacity="1.000000"></path>
        <path d="M 5.737155 31.799500 L 1.794450 24.534290 L 2.636151 23.160988 C 3.699353 21.388986 3.699353 18.863883 2.636151 17.490581 L 1.794450 16.427379 L 5.781455 9.117869 C 9.591261 2.074160 9.768461 1.808360 11.008862 1.985560 C 11.673363 2.074160 12.647965 1.941260 13.090965 1.675459 C 13.888366 1.276759 14.907268 2.251360 22.128177 9.915271 C 26.602483 14.743977 30.633789 19.085383 31.032489 19.616983 C 31.829890 20.591585 31.741290 20.680185 23.191378 29.805997 L 14.508567 39.064709 L 12.116363 39.064709 L 9.724160 39.064709 L 5.737155 31.799500 Z" transform="scale(1.000000,1.000000) translate(134.000000,67.000000)" fill="#1b58a8" opacity="1.000000"></path>
        <path d="M 1.956881 26.693177 C 2.089782 25.585675 2.311282 23.414972 2.444182 21.820170 C 2.975783 16.194063 6.253987 3.125545 7.538689 1.752244 C 7.804489 1.442143 17.506202 5.119048 18.215003 5.827849 C 18.392204 5.960749 18.613704 7.068251 18.790904 8.220052 L 19.056704 10.346455 L 12.101595 17.744566 C 8.336090 21.820171 4.437685 25.940077 3.463084 26.914678 L 1.735381 28.686681 L 1.956882 26.693178 Z" transform="scale(1.000000,1.000000) translate(9.000000,57.000000)" fill="#1b58a8" opacity="1.000000"></path>
        <path d="M 10.254574 19.295062 C 5.514468 14.244855 1.748963 9.903449 1.837563 9.637649 C 1.926163 9.416149 2.147664 8.441547 2.280564 7.466946 L 2.546364 5.783544 L 7.818071 3.568541 C 10.697575 2.372439 13.222678 1.530738 13.399879 1.752239 C 14.020079 2.416739 16.456583 10.567950 17.386884 15.130857 C 18.139985 18.852061 19.203186 27.977874 18.937386 28.332274 C 18.893086 28.420874 14.994681 24.345269 10.254574 19.295062 Z" transform="scale(1.000000,1.000000) translate(148.000000,57.000000)" fill="#1b58a8" opacity="1.000000"></path>
        <path d="M 4.884818 17.143271 C 1.429413 10.808362 1.030713 9.878061 1.518014 9.080660 C 1.828114 8.593359 2.182514 7.618758 2.359715 6.865657 C 2.625515 5.580955 2.802715 5.492355 9.624924 3.498852 C 19.149437 0.663649 18.396336 0.752249 19.326637 2.036950 C 20.168338 3.144452 20.168338 3.144452 15.782632 13.732166 C 11.485527 24.275580 11.441226 24.319880 10.112225 24.319880 C 8.871823 24.319880 8.561723 23.965479 4.884818 17.143270 Z" transform="scale(1.000000,1.000000) translate(35.000000,58.000000)" fill="#1b58a8" opacity="1.000000"></path>
        <path d="M 6.111638 13.776464 L 1.770232 3.144449 L 2.567634 2.036948 C 3.143534 1.283847 3.719435 1.018047 4.295336 1.150947 C 4.782637 1.283847 8.370941 2.302748 12.269346 3.454550 C 19.135856 5.492352 19.313056 5.580953 19.578856 6.865654 C 19.756056 7.618755 20.110457 8.593357 20.420557 9.080657 C 20.863558 9.833758 20.464857 10.896960 17.053753 17.143268 C 13.376848 23.965477 13.066748 24.319878 11.826346 24.364178 C 10.497344 24.364178 10.453044 24.275577 6.111638 13.776464 Z" transform="scale(1.000000,1.000000) translate(121.000000,58.000000)" fill="#1b58a8" opacity="1.000000"></path>
        <path d="M 4.296517 29.878646 C 4.163617 29.524246 3.543416 28.948345 2.878915 28.682545 L 1.727114 28.150944 L 1.904314 15.436827 C 1.948614 8.437417 2.170114 2.589810 2.347315 2.412610 C 2.480215 2.235409 8.416423 1.881009 15.548732 1.615209 L 28.440049 1.083608 L 29.148850 2.191109 C 29.547551 2.811310 30.167752 3.520111 30.566452 3.785911 C 31.319553 4.361812 31.275253 4.450412 28.085649 15.392527 C 26.579447 20.575634 26.446547 20.797134 25.294745 20.797134 C 23.567043 20.797134 21.839340 22.347636 21.307740 24.385439 C 21.041939 25.315740 20.731839 26.113142 20.643239 26.113142 C 20.554639 26.113142 17.054934 27.132043 12.846428 28.328145 C 8.637923 29.568546 5.049618 30.543147 4.872418 30.543147 C 4.695218 30.543147 4.473717 30.233047 4.296517 29.878647 Z" transform="scale(1.000000,1.000000) translate(32.000000,31.000000)" fill="#1b58a8" opacity="1.000000"></path>
        <path d="M 19.959238 28.328144 C 15.883633 27.176343 12.339628 26.068841 12.073828 25.891641 C 11.852328 25.758741 11.630827 25.094240 11.630827 24.518339 C 11.630827 22.923537 9.371524 20.797134 7.688122 20.797134 C 6.536321 20.797134 6.314820 20.575634 5.916120 19.158032 C 5.650319 18.227731 4.587118 14.550826 3.523917 11.006822 L 1.619014 4.539013 L 3.080916 2.855611 L 4.542818 1.127908 L 17.434135 1.615209 C 24.522145 1.881009 30.414052 2.235410 30.591253 2.368310 C 30.724153 2.545510 30.945654 8.393118 31.034254 15.436827 C 31.211454 27.929444 31.211454 28.239544 30.369753 28.505345 C 29.882452 28.682545 29.129351 29.169846 28.686351 29.657146 C 28.243350 30.144447 27.756049 30.543147 27.623149 30.498847 C 27.490249 30.498847 24.034844 29.524246 19.959239 28.328144 Z" transform="scale(1.000000,1.000000) translate(113.000000,31.000000)" fill="#1b58a8" opacity="1.000000"></path>
        <path d="M 7.183697 25.840841 C 4.392793 24.644739 1.911990 23.625838 1.690490 23.537238 C 0.494388 23.094237 9.354400 8.608118 13.784406 3.735111 L 15.999409 1.298608 L 16.043709 10.424420 C 16.043709 21.277935 15.689308 26.328142 14.936207 26.328142 C 14.626107 26.328142 13.917306 26.726843 13.341405 27.169843 C 12.278204 28.011544 12.233904 28.011544 7.183697 25.840842 Z" transform="scale(1.000000,1.000000) translate(16.000000,33.000000)" fill="#1b58a8" opacity="1.000000"></path>
        <path d="M 4.597167 27.169843 C 4.021266 26.682542 3.312465 26.328142 3.002365 26.328142 C 2.116364 26.328142 1.894863 23.625838 1.939163 12.152123 L 1.939163 1.298608 L 4.154166 3.735112 C 7.166570 7.013316 12.172477 14.544326 14.564680 19.373032 C 15.672182 21.543735 16.513883 23.360037 16.425283 23.448637 C 16.336683 23.537237 13.900179 24.556139 10.932076 25.796541 C 5.660369 27.967244 5.616068 27.967244 4.597167 27.169842 Z" transform="scale(1.000000,1.000000) translate(144.000000,33.000000)" fill="#1b58a8" opacity="1.000000"></path>
        <path d="M 2.193149 19.816030 C 1.572948 19.062929 1.705848 18.398428 3.787951 11.088918 L 6.091554 3.203508 L 7.730656 2.627607 C 8.660958 2.317507 9.635559 1.874506 9.945659 1.608706 C 10.344360 1.298606 12.470763 2.273207 17.565270 5.064111 C 24.476079 8.829616 24.653279 9.006816 24.653279 10.380118 L 24.653279 11.842020 L 14.685766 15.961925 C 9.192559 18.265528 4.319552 20.259031 3.832252 20.391931 C 3.256351 20.524831 2.636150 20.303331 2.193149 19.816030 Z" transform="scale(1.000000,1.000000) translate(59.000000,33.000000)" fill="#1b58a8" opacity="1.000000"></path>
        <path d="M 11.695806 16.183434 L 1.285292 11.842028 L 1.285292 10.380126 C 1.285292 9.006824 1.462492 8.873924 8.329001 5.064119 L 15.372710 1.165713 L 16.746012 2.007414 C 17.499113 2.450415 18.473714 2.849116 18.872415 2.849116 C 19.669816 2.849116 19.714116 2.937716 23.125221 14.588631 C 24.321322 18.619937 24.365623 19.107237 23.745422 19.816038 C 23.391021 20.214739 22.859421 20.569139 22.593620 20.569139 C 22.327820 20.524839 17.410513 18.575637 11.695805 16.183434 Z" transform="scale(1.000000,1.000000) translate(93.000000,33.000000)" fill="#1b58a8" opacity="1.000000"></path>
        <path d="M 2.795043 10.468133 C 1.288841 9.272031 0.668640 6.968428 1.200241 4.930625 C 2.041942 1.962521 5.585947 0.677819 8.686951 2.272622 C 9.838752 2.848522 10.015953 3.202923 10.015953 4.709125 L 10.015953 6.481127 L 7.800950 6.481127 C 6.117548 6.481127 5.585947 6.303927 5.585947 5.816626 C 5.585947 5.329326 6.073248 5.152125 7.180749 5.152125 C 8.421151 5.152125 8.731251 4.974925 8.598351 4.399024 C 8.421151 3.513023 6.339048 2.759922 4.921446 3.114323 C 3.282344 3.513023 2.484943 4.620525 2.484943 6.436827 C 2.484943 8.607530 3.238044 9.537831 5.187246 9.847932 C 6.471948 10.069432 7.003549 9.936532 7.756650 9.183431 C 8.243950 8.696130 8.908451 8.253129 9.129951 8.253129 C 9.971653 8.253129 9.572952 9.537831 8.421151 10.423832 C 6.870648 11.619934 4.301245 11.619934 2.795043 10.468132 Z" transform="scale(1.000000,1.000000) translate(201.000000,40.000000)" opacity="1.000000"></path>
        <path d="M 1.344949 6.481127 L 1.344949 1.608121 L 4.135853 1.608121 C 6.306556 1.608121 7.148257 1.785321 7.679858 2.405522 C 8.610159 3.424423 8.654459 5.728026 7.768458 6.481127 C 7.236857 6.924128 7.192557 7.145628 7.591258 7.367128 C 8.388659 7.898729 8.211458 10.113732 7.281157 10.778233 C 6.838157 11.088333 5.376255 11.354133 3.914353 11.354133 L 1.344949 11.354133 L 1.344949 6.481127 Z M 6.660956 9.360631 C 7.502657 8.341730 6.439456 7.367128 4.401653 7.367128 C 2.762551 7.367128 2.673951 7.455729 2.673951 8.696130 C 2.673951 9.936532 2.762551 10.025132 4.401653 10.025132 C 5.376255 10.025132 6.350856 9.759332 6.660956 9.360631 Z M 6.395156 5.772326 C 6.793856 5.639426 7.103957 5.063525 7.103957 4.487624 C 7.103957 3.335823 6.350856 2.937122 4.180153 2.937122 C 2.762551 2.937122 2.673951 3.025722 2.673951 4.487624 C 2.673951 5.949526 2.762551 6.038126 4.180153 6.038126 C 5.021854 6.038126 5.996455 5.905226 6.395156 5.772326 Z" transform="scale(1.000000,1.000000) translate(211.000000,40.000000)" opacity="1.000000"></path>
        <path d="M 3.622568 10.246632 C 0.344364 7.500029 2.072066 1.608121 6.191972 1.608121 C 8.096874 1.608121 10.178977 3.025723 10.178977 4.310424 C 10.178977 5.417926 9.824577 5.373626 8.584175 4.044624 C 6.413472 1.696721 3.533969 3.202923 3.533969 6.658327 C 3.533969 8.208829 3.755469 8.784730 4.508570 9.316331 C 5.881872 10.290932 7.388074 10.202332 8.274075 9.139131 C 9.115776 8.208830 10.178977 7.943029 10.178977 8.696130 C 10.178977 8.961931 9.691677 9.670731 9.071476 10.246632 C 7.609574 11.708534 5.350271 11.708534 3.622569 10.246632 Z" transform="scale(1.000000,1.000000) translate(219.000000,40.000000)" opacity="1.000000"></path>
        <path d="M 1.494979 6.481127 L 1.494979 1.608121 L 5.260484 1.608121 C 8.317188 1.608121 9.025989 1.741021 9.025989 2.272622 C 9.025989 2.804222 8.405788 2.937122 5.924985 2.937122 L 2.823981 2.937122 L 2.823981 4.487625 L 2.823981 6.038127 L 5.481984 6.038127 C 7.564087 6.038127 8.139988 6.171027 8.139988 6.702627 C 8.139988 7.234228 7.564087 7.367128 5.481984 7.367128 L 2.823981 7.367128 L 2.823981 8.696130 L 2.823981 10.025132 L 5.703484 10.025132 C 7.962787 10.025132 8.582988 10.158032 8.582988 10.689633 C 8.582988 11.221234 7.874187 11.354134 5.038983 11.354134 L 1.494979 11.354134 L 1.494979 6.481127 Z" transform="scale(1.000000,1.000000) translate(233.000000,40.000000)" opacity="1.000000"></path>
        <path d="M 1.354991 6.481127 C 1.354991 2.494122 1.487891 1.608121 2.019491 1.608121 C 2.506792 1.608121 2.683992 2.405522 2.772592 5.240725 L 2.905493 8.873330 L 5.297696 5.240725 C 6.582398 3.247223 7.955699 1.608121 8.265800 1.608121 C 8.753100 1.608121 8.886001 2.627022 8.886001 6.481127 C 8.886001 10.512433 8.753100 11.354134 8.221500 11.354134 C 7.689899 11.354134 7.556999 10.645333 7.556999 7.721529 L 7.556999 4.133224 L 5.253396 7.721529 C 1.886591 12.904636 1.354991 12.727436 1.354991 6.481127 Z" transform="scale(1.000000,1.000000) translate(242.000000,40.000000)" opacity="1.000000"></path>
        <path d="M 2.588293 7.721523 C 3.341394 5.683721 4.183095 3.513018 4.404596 2.848517 C 5.069097 0.987915 6.220898 1.298015 7.062599 3.513018 C 7.461300 4.531919 8.258701 6.702622 8.878902 8.386024 C 9.897803 11.044028 9.942103 11.354128 9.277602 11.354128 C 8.701701 11.354128 8.170101 10.335227 7.195500 7.544323 C 6.486699 5.462220 5.777898 3.690218 5.600697 3.601618 C 5.467797 3.513018 4.803296 5.196420 4.094495 7.367123 C 3.119894 10.423827 2.632593 11.354128 2.012393 11.354128 C 1.303592 11.354128 1.392192 10.999728 2.588293 7.721523 Z" transform="scale(1.000000,1.000000) translate(251.000000,40.000000)" opacity="1.000000"></path>
        <path d="M 1.404016 6.481127 C 1.404016 2.449822 1.536916 1.608121 2.068517 1.608121 C 2.600118 1.608121 2.733018 2.449822 2.733018 6.481127 C 2.733018 10.512433 2.600118 11.354134 2.068517 11.354134 C 1.536916 11.354134 1.404016 10.512433 1.404016 6.481127 Z" transform="scale(1.000000,1.000000) translate(261.000000,40.000000)" opacity="1.000000"></path>
        <path d="M 1.505020 6.481127 C 1.505020 2.449822 1.637920 1.608121 2.169521 1.608121 C 2.656822 1.608121 2.834022 2.139721 2.834022 3.823124 C 2.834022 5.993827 2.878322 6.038127 4.163024 6.038127 C 5.270525 6.038127 5.713526 5.683726 6.909627 3.823124 C 7.751328 2.582722 8.725930 1.608121 9.168930 1.608121 C 9.833431 1.608121 9.877731 1.741021 9.434731 2.627022 C 9.124630 3.158623 8.548729 4.133224 8.105729 4.753425 C 7.308328 5.905226 7.308328 5.949527 8.150029 6.525427 C 9.479031 7.500029 9.744831 9.316331 8.637330 10.423833 C 7.884228 11.176934 7.175428 11.354134 4.606024 11.354134 L 1.505020 11.354134 L 1.505020 6.481127 Z M 6.998227 9.759332 C 7.396928 9.626431 7.707028 9.139131 7.707028 8.696130 C 7.707028 7.721529 6.865327 7.367128 4.561724 7.367128 C 2.922622 7.367128 2.834022 7.455729 2.834022 8.696130 C 2.834022 9.936532 2.922622 10.025132 4.561724 10.025132 C 5.536325 10.025132 6.599527 9.892232 6.998227 9.759332 Z" transform="scale(1.000000,1.000000) translate(264.000000,40.000000)" opacity="1.000000"></path>
        <path d="M 2.491429 10.069435 C 1.251028 8.961933 1.073827 8.563233 1.073827 6.481130 C 1.073827 4.399027 1.251028 4.000326 2.491429 2.892825 C 5.636733 0.057621 10.111040 2.184024 10.111040 6.481130 C 10.111040 10.778235 5.636734 12.904638 2.491429 10.069435 Z M 7.674536 8.917633 C 8.383337 8.253132 8.782038 7.322831 8.782038 6.481130 C 8.782038 5.639429 8.383337 4.709128 7.674536 4.044627 C 5.503833 1.829624 2.580029 3.202926 2.580029 6.481130 C 2.580029 9.759334 5.503833 11.132636 7.674536 8.917633 Z" transform="scale(1.000000,1.000000) translate(274.000000,40.000000)" opacity="1.000000"></path>
        <path d="M 1.440047 6.481127 C 1.440047 2.494122 1.572947 1.608121 2.104548 1.608121 C 2.591848 1.608121 2.769048 2.405522 2.857649 5.240725 L 2.990549 8.873330 L 5.382752 5.240725 C 6.667454 3.247223 8.040756 1.608121 8.350856 1.608121 C 8.838157 1.608121 8.971057 2.627022 8.971057 6.481127 C 8.971057 10.512433 8.838156 11.354134 8.306556 11.354134 C 7.774955 11.354134 7.642055 10.645333 7.642055 7.721529 L 7.642055 4.133224 L 5.338452 7.721529 C 1.971647 12.904636 1.440047 12.727436 1.440047 6.481127 Z" transform="scale(1.000000,1.000000) translate(284.000000,40.000000)" opacity="1.000000"></path>
        <path d="M 1.186060 6.481127 C 1.186060 2.449822 1.318960 1.608121 1.850561 1.608121 C 2.382161 1.608121 2.515061 2.361222 2.559362 5.506526 L 2.603662 9.360631 L 3.932663 5.506526 C 4.685764 3.202923 5.483165 1.608121 5.837566 1.608121 C 6.191966 1.608121 6.989367 3.202923 7.742469 5.506526 L 9.071470 9.360631 L 9.115770 5.506526 C 9.160070 2.361222 9.292971 1.608121 9.824571 1.608121 C 10.356172 1.608121 10.489072 2.449822 10.489072 6.525427 C 10.489072 11.309834 10.444772 11.398434 9.514471 11.265534 C 8.761370 11.176934 8.274069 10.379532 7.299468 7.588629 C 6.590667 5.639426 5.926166 4.000324 5.837566 3.911724 C 5.748966 3.823124 5.128765 5.462226 4.464264 7.544328 C 3.356763 10.866833 3.090962 11.354134 2.204961 11.354134 C 1.186060 11.354134 1.186060 11.265534 1.186060 6.481127 Z" transform="scale(1.000000,1.000000) translate(294.000000,40.000000)" opacity="1.000000"></path>
        <path d="M 1.261074 6.481127 L 1.261074 1.608121 L 5.026579 1.608121 C 8.083284 1.608121 8.792084 1.741021 8.792084 2.272622 C 8.792084 2.804222 8.171884 2.937122 5.691080 2.937122 L 2.590076 2.937122 L 2.590076 4.487625 L 2.590076 6.038127 L 5.248080 6.038127 C 7.330182 6.038127 7.906083 6.171027 7.906083 6.702627 C 7.906083 7.234228 7.330183 7.367128 5.248080 7.367128 L 2.590076 7.367128 L 2.590076 8.696130 L 2.590076 10.025132 L 5.469580 10.025132 C 7.728883 10.025132 8.349084 10.158032 8.349084 10.689633 C 8.349084 11.221234 7.640283 11.354134 4.805079 11.354134 L 1.261074 11.354134 L 1.261074 6.481127 Z" transform="scale(1.000000,1.000000) translate(305.000000,40.000000)" opacity="1.000000"></path>
        <path d="M 1.121086 6.481127 C 1.121086 2.494122 1.253986 1.608121 1.785587 1.608121 C 2.272888 1.608121 2.450088 2.405522 2.538688 5.240725 L 2.671588 8.873330 L 5.063792 5.240725 C 6.348493 3.247223 7.721795 1.608121 8.031895 1.608121 C 8.519196 1.608121 8.652096 2.627022 8.652096 6.481127 C 8.652096 10.512433 8.519196 11.354134 7.987595 11.354134 C 7.455995 11.354134 7.323094 10.645333 7.323094 7.721529 L 7.323094 4.133224 L 5.019491 7.721529 C 1.652687 12.904636 1.121086 12.727436 1.121086 6.481127 Z" transform="scale(1.000000,1.000000) translate(314.000000,40.000000)" opacity="1.000000"></path>
        <path d="M 1.981098 10.689633 C 1.981098 10.246632 2.468399 10.025132 3.531600 10.025132 L 5.082102 10.025132 L 5.082102 5.816626 C 5.082102 2.361222 5.215002 1.608121 5.746603 1.608121 C 6.278204 1.608121 6.411104 2.361222 6.411104 5.816626 L 6.411104 10.025132 L 7.961606 10.025132 C 9.024807 10.025132 9.512108 10.246632 9.512108 10.689633 C 9.512108 11.221234 8.803307 11.354134 5.746603 11.354134 C 2.689899 11.354134 1.981098 11.221234 1.981098 10.689633 Z" transform="scale(1.000000,1.000000) translate(322.000000,40.000000)" opacity="1.000000"></path>
        <path d="M 8.672770 26.425008 C 4.907265 24.342906 1.806261 22.615203 1.761960 22.570903 C 1.717660 22.570903 1.584760 21.507702 1.451860 20.267300 L 1.186060 18.007997 L 10.489072 9.280885 C 18.773183 1.528375 19.880685 0.642374 20.589485 1.129675 C 20.988186 1.439775 25.285292 5.382481 30.069698 9.856787 L 38.752509 18.007997 L 38.486709 20.267300 C 38.353809 21.507702 38.220909 22.570903 38.176609 22.570903 C 38.132308 22.615203 34.987004 24.342906 31.177199 26.469309 L 24.222090 30.279114 L 22.450088 29.348813 C 20.545185 28.374211 18.020082 28.507112 17.045480 29.658913 C 16.779680 30.013314 16.292379 30.279114 16.026579 30.279114 C 15.760779 30.234814 12.438274 28.551412 8.672769 26.425009 Z" transform="scale(1.000000,1.000000) translate(69.000000,10.000000)" fill="#1b58a8" opacity="1.000000"></path>
        <path d="M 1.774955 6.533106 C 1.774955 2.501800 1.907855 1.660099 2.439456 1.660099 C 2.926757 1.660099 3.103957 2.191700 3.103957 3.875102 L 3.103957 6.090105 L 5.318960 6.090105 C 7.002362 6.090105 7.533963 6.267306 7.533963 6.754606 C 7.533963 7.241907 7.002362 7.419107 5.318960 7.419107 C 3.148257 7.419107 3.103957 7.463407 3.103957 8.748109 L 3.103957 10.077111 L 5.761960 10.077111 C 7.844063 10.077111 8.419964 10.210011 8.419964 10.741612 C 8.419964 11.273212 7.755463 11.406112 5.097460 11.406112 L 1.774955 11.406112 L 1.774955 6.533106 Z" transform="scale(1.000000,1.000000) translate(215.000000,24.000000)" opacity="1.000000"></path>
        <path d="M 2.989362 10.121413 C 1.748960 9.013912 1.571760 8.615211 1.571760 6.533108 C 1.571760 4.451006 1.748960 4.052305 2.989362 2.944804 C 6.134666 0.109600 10.608973 2.236003 10.608973 6.533108 C 10.608973 10.830214 6.134666 12.956617 2.989362 10.121413 Z M 8.172469 8.969612 C 8.881270 8.305111 9.279970 7.374810 9.279970 6.533109 C 9.279970 5.691408 8.881270 4.761106 8.172469 4.096605 C 6.001766 1.881602 3.077962 3.254904 3.077962 6.533109 C 3.077962 9.811313 6.001766 11.184615 8.172469 8.969612 Z" transform="scale(1.000000,1.000000) translate(223.000000,24.000000)" opacity="1.000000"></path>
        <path d="M 1.380980 6.533106 C 1.380980 2.501800 1.513880 1.660099 2.045481 1.660099 C 2.532781 1.660099 2.709982 2.191700 2.709982 3.919402 C 2.709982 6.090105 2.754282 6.134405 3.906083 6.001505 C 4.792085 5.912905 5.589486 5.248404 6.696987 3.786502 C 7.538688 2.590401 8.601890 1.660099 9.000590 1.660099 C 9.709391 1.660099 9.709391 1.792999 8.867690 3.166301 C 8.380389 4.008002 7.671588 4.938304 7.361488 5.204104 C 6.785587 5.647105 6.874187 5.868605 7.804488 6.621706 C 9.133490 7.640607 9.266390 9.589810 8.114589 10.653011 C 7.538688 11.184612 6.475487 11.406112 4.349084 11.406112 L 1.380980 11.406112 L 1.380980 6.533106 Z M 7.139988 9.634110 C 8.380389 8.836709 7.051388 7.640607 4.747784 7.507707 C 2.754282 7.374807 2.709982 7.374807 2.709982 8.703809 C 2.709982 10.032811 2.798582 10.077111 4.614884 10.077111 C 5.633786 10.077111 6.785587 9.855610 7.139988 9.634110 Z" transform="scale(1.000000,1.000000) translate(234.000000,24.000000)" opacity="1.000000"></path>
        <path d="M 1.670998 6.577409 C 1.670998 2.501803 1.803898 1.660102 2.335499 1.660102 C 2.867099 1.660102 2.999999 2.368903 3.044300 5.115507 L 3.044300 8.526611 L 4.284701 5.204107 C 4.949202 3.343504 5.746603 1.881602 6.101004 1.881602 C 6.455404 1.881602 7.208505 3.343504 7.917306 5.425607 L 9.113408 8.969612 L 9.157708 5.337007 C 9.202008 2.368903 9.334908 1.660102 9.866509 1.660102 C 10.398109 1.660102 10.531009 2.501803 10.531009 6.533108 C 10.531009 11.051714 10.486709 11.406115 9.689308 11.406115 C 8.980507 11.406115 8.581807 10.653014 7.607206 7.640610 C 6.898405 5.602807 6.278204 4.008005 6.145304 4.140905 C 5.968103 4.273805 5.347903 5.912908 4.727702 7.773510 C 3.841701 10.475814 3.398700 11.228915 2.645599 11.317515 C 1.715298 11.450415 1.670998 11.361815 1.670998 6.577408 Z" transform="scale(1.000000,1.000000) translate(247.000000,24.000000)" opacity="1.000000"></path>
        <path d="M 1.746012 6.533106 L 1.746012 1.660099 L 5.290017 1.660099 C 8.125221 1.660099 8.834022 1.793000 8.834022 2.324600 C 8.834022 2.856201 8.213821 2.989101 5.954518 2.989101 L 3.075014 2.989101 L 3.075014 4.539603 L 3.075014 6.090105 L 5.733018 6.090105 C 7.815120 6.090105 8.391021 6.223006 8.391021 6.754606 C 8.391021 7.286207 7.815121 7.419107 5.733018 7.419107 L 3.075014 7.419107 L 3.075014 8.748109 L 3.075014 10.077111 L 5.954518 10.077111 C 8.213821 10.077111 8.834022 10.210011 8.834022 10.741612 C 8.834022 11.273212 8.125221 11.406112 5.290017 11.406112 L 1.746012 11.406112 L 1.746012 6.533106 Z" transform="scale(1.000000,1.000000) translate(258.000000,24.000000)" opacity="1.000000"></path>
        <path d="M 1.606024 6.533106 L 1.606024 1.660099 L 5.150029 1.660099 C 7.985233 1.660099 8.694034 1.793000 8.694034 2.324600 C 8.694034 2.856201 8.073833 2.989101 5.814530 2.989101 L 2.935026 2.989101 L 2.935026 4.539603 L 2.935026 6.090105 L 5.593030 6.090105 C 7.675132 6.090105 8.251033 6.223006 8.251033 6.754606 C 8.251033 7.286207 7.675132 7.419107 5.593030 7.419107 L 2.935026 7.419107 L 2.935026 8.748109 L 2.935026 10.077111 L 5.814530 10.077111 C 8.073833 10.077111 8.694034 10.210011 8.694034 10.741612 C 8.694034 11.273212 7.985233 11.406112 5.150029 11.406112 L 1.606024 11.406112 L 1.606024 6.533106 Z" transform="scale(1.000000,1.000000) translate(267.000000,24.000000)" opacity="1.000000"></path>
        <path d="M 1.580035 10.741612 C 1.580035 10.298611 2.067336 10.077111 3.130537 10.077111 L 4.681039 10.077111 L 4.681039 5.868605 C 4.681039 2.413200 4.813939 1.660099 5.345540 1.660099 C 5.877141 1.660099 6.010041 2.413200 6.010041 5.868605 L 6.010041 10.077111 L 7.560543 10.077111 C 8.623744 10.077111 9.111045 10.298611 9.111045 10.741612 C 9.111045 11.273212 8.402244 11.406112 5.345540 11.406112 C 2.288836 11.406112 1.580035 11.273212 1.580035 10.741612 Z" transform="scale(1.000000,1.000000) translate(275.000000,24.000000)" opacity="1.000000"></path>
        <path d="M 1.883047 6.533106 C 1.883047 2.501800 2.015947 1.660099 2.547548 1.660099 C 3.079149 1.660099 3.212049 2.501801 3.212049 6.533106 C 3.212049 10.564411 3.079149 11.406112 2.547548 11.406112 C 2.015947 11.406112 1.883047 10.564411 1.883047 6.533106 Z" transform="scale(1.000000,1.000000) translate(284.000000,24.000000)" opacity="1.000000"></path>
        <path d="M 1.984051 6.533106 C 1.984051 2.546101 2.116952 1.660099 2.648552 1.660099 C 3.135853 1.660099 3.313053 2.457500 3.401653 5.292704 L 3.534553 8.925309 L 5.926757 5.292704 C 7.211458 3.299202 8.584760 1.660099 8.894861 1.660099 C 9.382161 1.660099 9.515061 2.679001 9.515061 6.533106 C 9.515061 10.564411 9.382161 11.406112 8.850561 11.406112 C 8.318960 11.406112 8.186060 10.697311 8.186060 7.773508 L 8.186060 4.185203 L 5.882457 7.773508 C 2.515652 12.956615 1.984051 12.779414 1.984051 6.533106 Z" transform="scale(1.000000,1.000000) translate(287.000000,24.000000)" opacity="1.000000"></path>
        <path d="M 3.369172 10.520111 C 1.862970 9.324010 1.242769 7.020407 1.774370 4.982604 C 2.616071 2.014500 6.160076 0.729798 9.261080 2.324600 C 10.412881 2.900501 10.590081 3.254902 10.590081 4.761104 L 10.590081 6.533106 L 8.375079 6.533106 C 6.691676 6.533106 6.160076 6.355906 6.160076 5.868605 C 6.160076 5.381304 6.647376 5.204104 7.754878 5.204104 C 8.995279 5.204104 9.305380 5.026904 9.172480 4.451003 C 8.995279 3.565002 6.913177 2.811901 5.495575 3.166301 C 3.856472 3.565002 3.059071 4.672503 3.059071 6.488806 C 3.059071 8.659509 3.812172 9.589810 5.761375 9.899910 C 7.046077 10.121411 7.577677 9.988510 8.330778 9.235409 C 8.818079 8.748109 9.482580 8.305108 9.704080 8.305108 C 10.545781 8.305108 10.147081 9.589810 8.995279 10.475811 C 7.444777 11.671913 4.875374 11.671913 3.369172 10.520111 Z" transform="scale(1.000000,1.000000) translate(297.000000,24.000000)" opacity="1.000000"></path>
        <path d="M 2.805079 10.520111 C 0.944477 8.659509 2.450679 6.488806 5.906083 5.912905 C 7.412285 5.691405 7.678086 5.469905 7.678086 4.539603 C 7.678086 2.634701 4.222681 2.457501 3.248080 4.362403 C 2.805079 5.115504 1.476077 5.602805 1.476077 4.982604 C 1.476077 4.273803 2.849379 2.191700 3.469580 1.925900 C 5.640283 1.128499 8.386887 1.925900 8.962787 3.565002 C 9.582988 5.292705 8.652687 6.488806 6.038983 7.241907 C 3.425280 7.995008 2.937979 8.482309 3.691080 9.412610 C 4.399881 10.254311 6.526284 10.254311 7.235085 9.412610 C 7.855286 8.659509 9.007087 8.526609 9.007087 9.191110 C 9.007087 10.254311 7.190785 11.406113 5.463082 11.406113 C 4.266981 11.406113 3.380980 11.096012 2.805079 10.520112 Z" transform="scale(1.000000,1.000000) translate(307.000000,24.000000)" opacity="1.000000"></path>
        <path d="M 4.024217 14.539603 C 7.479622 11.305699 14.479031 6.521292 19.617838 3.951889 C 21.877141 2.844388 23.782043 1.914087 23.914944 1.914087 C 24.003544 1.914087 25.111045 4.306290 26.351447 7.230094 L 28.655050 12.590401 L 27.724749 13.742203 C 27.237448 14.362403 26.838748 15.115504 26.838748 15.425605 C 26.838748 16.134406 23.028942 16.444506 10.669226 16.754607 L 1.366214 17.020407 L 4.024217 14.539604 Z" transform="scale(1.000000,1.000000) translate(34.000000,14.000000)" fill="#1b58a8" opacity="1.000000"></path>
        <path d="M 11.959834 15.533106 C 8.415829 15.355906 5.004725 15.178705 4.340224 15.134405 C 3.631423 15.134405 3.099822 14.824305 3.099822 14.469905 C 3.099822 14.159804 2.701121 13.362403 2.169521 12.697902 L 1.239220 11.501801 L 3.365623 6.540194 C 4.517424 3.793590 5.624925 1.401387 5.802126 1.179887 C 6.200826 0.736886 14.219137 4.901092 18.294743 7.647696 C 21.351447 9.685498 26.933254 14.159804 27.863556 15.267306 C 28.395156 15.931807 27.996456 15.976107 23.433550 15.887507 C 20.642646 15.843207 15.503839 15.666007 11.959835 15.533106 Z" transform="scale(1.000000,1.000000) translate(114.000000,15.000000)" fill="#1b58a8" opacity="1.000000"></path>
        <path d="M 7.243353 17.925903 C 5.338451 17.438602 5.338451 17.438602 3.123448 12.388395 C 1.927346 9.597491 1.085645 7.160988 1.262845 6.983788 C 2.148846 6.186387 12.204960 3.351183 16.812165 2.598082 C 23.147074 1.579181 27.621379 1.224781 27.444179 1.756381 C 27.222679 2.332282 9.857056 18.546104 9.458356 18.501803 C 9.281156 18.457503 8.306555 18.236003 7.243353 17.925902 Z" transform="scale(1.000000,1.000000) translate(59.000000,8.000000)" fill="#1b58a8" opacity="1.000000"></path>
        <path d="M 9.955694 10.040484 C 4.994088 5.388978 1.007082 1.490573 1.095682 1.446273 C 1.405783 1.136172 10.885995 2.287974 14.695801 3.041075 C 18.815706 3.927076 27.011217 6.407879 27.631418 6.939480 C 27.808619 7.116680 26.922617 9.553183 25.726516 12.388387 C 23.644413 17.217094 23.422913 17.571494 22.093911 17.792994 C 21.296510 17.970195 20.277609 18.147395 19.790308 18.280295 C 19.125807 18.457495 16.866504 16.552593 9.955694 10.040484 Z" transform="scale(1.000000,1.000000) translate(90.000000,8.000000)" fill="#1b58a8" opacity="1.000000"></path>
    </g>
</svg>