<?xml version="1.0" encoding="UTF-8" standalone="no"?>
<svg
   xmlns:dc="http://purl.org/dc/elements/1.1/"
   xmlns:cc="http://creativecommons.org/ns#"
   xmlns:rdf="http://www.w3.org/1999/02/22-rdf-syntax-ns#"
   xmlns:svg="http://www.w3.org/2000/svg"
   xmlns="http://www.w3.org/2000/svg"
   viewBox="0 0 864.89331 347.51999"
   height="347.51999"
   width="864.89331"
   xml:space="preserve"
   id="svg2"
   version="1.1"><metadata
     id="metadata8"><rdf:RDF><cc:Work
         rdf:about=""><dc:format>image/svg+xml</dc:format><dc:type
           rdf:resource="http://purl.org/dc/dcmitype/StillImage" /></cc:Work></rdf:RDF></metadata><defs
     id="defs6" /><g
     transform="matrix(1.3333333,0,0,-1.3333333,0,347.52)"
     id="g10"><g
       transform="scale(0.1)"
       id="g12"><path
         id="path14"
         style="fill:none;stroke:#918f90;stroke-width:46.3280983;stroke-linecap:butt;stroke-linejoin:miter;stroke-miterlimit:4;stroke-dasharray:none;stroke-opacity:1"
         d="M 3107.4,2588.93 V 17.4492" /><path
         id="path16"
         style="fill:#918f90;fill-opacity:1;fill-rule:nonzero;stroke:none"
         d="m 4124.83,2234.5 c 104.35,0 207.36,-22.27 295,-64 v -154.47 c -73.73,47.32 -172.56,72.36 -272.74,72.36 -190.62,0 -382.63,-104.36 -382.63,-359 0,-278.3 201.76,-360.4 378.49,-360.4 54.26,0 107.13,9.72 146.08,27.82 v 368.75 h 154.49 v -475.91 c -93.24,-41.73 -203.2,-65.38 -310.33,-65.38 -269.94,0 -531.56,141.92 -531.56,505.12 0,343.7 261.62,505.11 523.2,505.11" /><path
         id="path18"
         style="fill:#918f90;fill-opacity:1;fill-rule:nonzero;stroke:none"
         d="M 5291.92,2216.41 V 2071.7 h -512.09 v -265.79 h 470.33 V 1661.2 h -470.33 v -274.13 h 520.43 v -144.72 h -679.08 v 974.06 h 670.74" /><path
         id="path20"
         style="fill:#918f90;fill-opacity:1;fill-rule:nonzero;stroke:none"
         d="m 6477.84,2216.41 v -974.06 h -158.62 v 681.83 L 6011.7,1462.22 h -94.64 l -307.52,463.37 v -683.24 h -158.62 v 974.06 h 143.32 l 370.16,-557.99 370.14,557.99 h 143.3" /><path
         id="path22"
         style="fill:#918f90;fill-opacity:1;fill-rule:nonzero;stroke:none"
         d="m 3788.54,1004.37 c 26.05,0 51.76,-5.589 73.67,-16.018 v -38.551 c -18.42,11.789 -43.12,18.039 -68.12,18.039 -47.62,0 -95.57,-26.07 -95.57,-89.629 0,-69.5 50.37,-90.039 94.51,-90.039 13.56,0 26.78,2.457 36.51,6.957 v 92.109 h 38.55 V 768.359 c -23.28,-10.41 -50.72,-16.32 -77.46,-16.32 -67.46,0 -132.77,35.449 -132.77,126.172 0,85.809 65.31,126.159 130.68,126.159" /><path
         id="path24"
         style="fill:#918f90;fill-opacity:1;fill-rule:nonzero;stroke:none"
         d="m 4023.5,865.328 h -65.68 v -74 h 60.13 c 27.11,0 55.94,3.102 55.94,36.844 0,32.277 -28.49,37.156 -50.39,37.156 z m -6.6,100.121 h -59.08 v -66.41 l 64.67,-0.34 c 22.91,0 41.68,9.742 41.68,33.36 0,24.32 -18.09,33.39 -47.27,33.39 z m 4.18,34.379 c 50.76,0 83.4,-20.18 83.4,-61.508 0,-29.539 -17.72,-46.922 -38.23,-53.531 21.9,-6.25 47.99,-22.93 47.99,-60.82 0,-55.27 -53.88,-67.399 -92.5,-67.399 h -103.51 v 243.258 h 102.85" /><path
         id="path26"
         style="fill:#918f90;fill-opacity:1;fill-rule:nonzero;stroke:none"
         d="m 4269.61,1004.37 c 24.36,0 48.34,-5.589 69.18,-16.018 v -38.551 c -17.05,11.789 -39.62,18.039 -62.57,18.039 -46.57,0 -94.87,-27.442 -95.22,-91.731 0,-59.769 49.36,-87.589 95.9,-87.589 25.04,0 47.66,6.609 63.61,18.769 v -39.25 c -20.47,-10.09 -44.84,-16 -70.52,-16 -62.91,0 -129.65,40.981 -129.3,124.07 0,86.539 65,128.261 128.92,128.261" /><path
         id="path28"
         style="fill:#918f90;fill-opacity:1;fill-rule:nonzero;stroke:none"
         d="M 4632.86,999.828 V 963.68 H 4505 v -66.391 h 117.45 V 861.16 H 4505 v -68.469 h 129.97 V 756.57 h -169.59 v 243.258 h 167.48" /><path
         id="path30"
         style="fill:#918f90;fill-opacity:1;fill-rule:nonzero;stroke:none"
         d="m 4763.5,927.891 c 42.05,0 68.83,-28.512 68.83,-68.141 V 756.57 h -37.21 v 98.321 c 0,27.121 -16.68,39.988 -38.9,39.988 -21.22,0 -37.21,-14.25 -46.61,-27.82 V 756.57 h -37.14 v 166.801 h 33 v -22.93 c 12.17,14.61 32.64,27.45 58.03,27.45" /><path
         id="path32"
         style="fill:#918f90;fill-opacity:1;fill-rule:nonzero;stroke:none"
         d="M 5030.53,923.371 4958.95,756.57 h -39.3 l -71.23,166.801 h 40.32 l 50.72,-126.531 50.43,126.531 h 40.64" /><path
         id="path34"
         style="fill:#918f90;fill-opacity:1;fill-rule:nonzero;stroke:none"
         d="m 5056.43,756.57 v 166.801 h 37.19 V 756.57 Z m 18.77,198.739 c -12.15,0 -22.95,7.011 -22.95,22.261 0,14.598 10.8,21.93 22.95,21.93 12.15,0 22.58,-7.332 22.58,-21.93 0,-15.25 -10.43,-22.261 -22.58,-22.261" /><path
         id="path36"
         style="fill:#918f90;fill-opacity:1;fill-rule:nonzero;stroke:none"
         d="m 5241.29,926.852 v -36.5 c -29.9,4.136 -55.97,-9.043 -66.07,-32.672 V 756.57 h -37.17 v 166.801 h 33.03 V 895.91 c 12.85,20.508 39.96,33.731 70.21,30.942" /><path
         id="path38"
         style="fill:#918f90;fill-opacity:1;fill-rule:nonzero;stroke:none"
         d="m 5346.9,893.828 c -31.29,0 -52.81,-21.199 -52.81,-53.887 0,-32.652 21.52,-53.851 52.81,-53.851 30.94,0 52.5,21.199 52.5,53.851 0,32.688 -21.56,53.887 -52.5,53.887 z m 0,34.063 c 46.95,0 90.39,-30.223 90.39,-87.95 0,-57.679 -43.44,-87.902 -90.39,-87.902 -46.56,0 -90.33,30.223 -90.33,87.902 0,57.727 43.77,87.95 90.33,87.95" /><path
         id="path40"
         style="fill:#918f90;fill-opacity:1;fill-rule:nonzero;stroke:none"
         d="m 5563.17,927.891 c 42.05,0 68.81,-28.512 68.81,-68.141 V 756.57 h -37.15 v 98.321 c 0,27.121 -16.72,39.988 -38.97,39.988 -21.21,0 -37.18,-14.25 -46.54,-27.82 V 756.57 h -37.21 v 166.801 h 32.99 v -22.93 c 12.19,14.61 32.7,27.45 58.07,27.45" /><path
         id="path42"
         style="fill:#918f90;fill-opacity:1;fill-rule:nonzero;stroke:none"
         d="m 5674.97,756.57 v 166.801 h 33 v -20.84 c 9.07,10.047 28.5,25.36 55.65,25.36 25,0 42.4,-10.43 52.13,-26.782 14.59,14.59 34.08,26.782 58.36,26.782 44.16,0 63.26,-32.672 63.26,-67.051 V 756.57 h -37.17 v 103.18 c 0,21.559 -12.85,35.129 -33.01,35.129 -18.42,0 -32.67,-12.16 -41.36,-22.598 0.37,-3.863 0.7,-7.633 0.7,-11.441 V 756.57 h -37.19 v 103.18 c 0,21.559 -12.87,35.129 -33.03,35.129 -20.17,0 -35.45,-14.598 -44.14,-25.731 V 756.57 h -37.2" /><path
         id="path44"
         style="fill:#918f90;fill-opacity:1;fill-rule:nonzero;stroke:none"
         d="m 6057.35,896.969 c -25.02,0 -47.62,-14.957 -49.01,-43.129 h 92.5 c 2.06,14.578 -7.01,43.129 -43.49,43.129 z m -1.72,30.922 c 66.41,0 89.32,-53.52 78.54,-101.813 h -125.49 c 4.2,-29.906 33.38,-42.43 63.96,-42.43 20.18,0 38.58,4.872 52.85,11.832 V 763.5 c -15.31,-7.32 -36.5,-11.461 -59.8,-11.461 -51.08,0 -94.53,29.16 -94.53,87.902 0,60.5 45.9,87.95 84.47,87.95" /><path
         id="path46"
         style="fill:#918f90;fill-opacity:1;fill-rule:nonzero;stroke:none"
         d="m 6262.37,927.891 c 42.03,0 68.79,-28.512 68.79,-68.141 V 756.57 h -37.15 v 98.321 c 0,27.121 -16.7,39.988 -38.97,39.988 -21.17,0 -37.16,-14.25 -46.56,-27.82 V 756.57 h -37.15 v 166.801 h 32.99 v -22.93 c 12.15,14.61 32.66,27.45 58.05,27.45" /><path
         id="path48"
         style="fill:#918f90;fill-opacity:1;fill-rule:nonzero;stroke:none"
         d="m 6421.33,982.82 v -59.449 h 60.49 v -32.672 h -60.49 v -76.48 c 0,-21.86 10.1,-29.188 31.62,-29.188 12.23,0 23.32,2.457 33.73,6.598 V 759.68 c -12.5,-4.539 -28.47,-7.328 -44.78,-7.328 -32.38,0 -57.38,16.007 -57.38,54.937 v 83.41 h -29.91 v 32.672 h 29.91 v 50.391 l 36.81,9.058" /><path
         id="path50"
         style="fill:#918f90;fill-opacity:1;fill-rule:nonzero;stroke:none"
         d="M 3688.58,371.672 V 505.82 h -30.25 v 32.668 h 30.25 v 18.442 c 0,48.308 31.62,62.55 62.21,62.55 15.27,0 29.9,-3.109 41.34,-7.32 v -32.629 c -8.32,4.149 -20.48,7.27 -32.3,7.27 -18.09,0 -34.08,-5.199 -34.08,-31.25 v -17.063 h 57.03 V 505.82 h -57.03 V 371.672 h -37.17" /><path
         id="path52"
         style="fill:#918f90;fill-opacity:1;fill-rule:nonzero;stroke:none"
         d="m 3887.88,508.969 c -31.29,0 -52.84,-21.207 -52.84,-53.879 0,-32.668 21.55,-53.86 52.84,-53.86 30.95,0 52.5,21.192 52.5,53.86 0,32.672 -21.55,53.879 -52.5,53.879 z m 0,34.043 c 46.91,0 90.37,-30.203 90.37,-87.922 0,-57.699 -43.46,-87.918 -90.37,-87.918 -46.57,0 -90.36,30.219 -90.36,87.918 0,57.719 43.79,87.922 90.36,87.922" /><path
         id="path54"
         style="fill:#918f90;fill-opacity:1;fill-rule:nonzero;stroke:none"
         d="m 4116.29,541.98 v -36.492 c -29.86,4.16 -55.93,-9.027 -66.03,-32.668 V 371.672 h -37.17 v 166.816 h 33.03 v -27.449 c 12.85,20.531 39.92,33.731 70.17,30.941" /><path
         id="path56"
         style="fill:#918f90;fill-opacity:1;fill-rule:nonzero;stroke:none"
         d="M 4489.26,614.93 V 371.672 h -39.63 V 541.98 l -76.79,-115.359 h -23.62 l -76.83,115.707 V 371.672 H 4232.8 V 614.93 h 35.78 l 92.46,-139.34 92.44,139.34 h 35.78" /><path
         id="path58"
         style="fill:#918f90;fill-opacity:1;fill-rule:nonzero;stroke:none"
         d="m 4616.35,512.102 c -25,0 -47.61,-14.961 -48.98,-43.122 h 92.42 c 2.07,14.61 -6.91,43.122 -43.44,43.122 z m -1.72,30.91 c 66.39,0 89.3,-53.5 78.54,-101.793 h -125.45 c 4.12,-29.91 33.36,-42.41 63.95,-42.41 20.13,0 38.57,4.839 52.81,11.8 v -31.961 c -15.28,-7.328 -36.49,-11.476 -59.77,-11.476 -51.07,0 -94.53,29.168 -94.53,87.918 0,60.488 45.86,87.922 84.45,87.922" /><path
         id="path60"
         style="fill:#918f90;fill-opacity:1;fill-rule:nonzero;stroke:none"
         d="m 4806.35,512.102 c -25.04,0 -47.65,-14.961 -49,-43.122 h 92.42 c 2.11,14.61 -6.93,43.122 -43.42,43.122 z m -1.76,30.91 c 66.39,0 89.3,-53.5 78.56,-101.793 h -125.47 c 4.18,-29.91 33.36,-42.41 63.95,-42.41 20.15,0 38.57,4.839 52.81,11.8 v -31.961 c -15.26,-7.328 -36.49,-11.476 -59.77,-11.476 -51.09,0 -94.53,29.168 -94.53,87.918 0,60.488 45.86,87.922 84.45,87.922" /><path
         id="path62"
         style="fill:#918f90;fill-opacity:1;fill-rule:nonzero;stroke:none"
         d="m 4969.75,597.949 v -59.461 h 60.45 V 505.82 h -60.45 v -76.449 c 0,-21.883 10.06,-29.191 31.6,-29.191 12.15,0 23.3,2.449 33.71,6.609 v -31.98 c -12.52,-4.528 -28.49,-7.309 -44.84,-7.309 -32.3,0 -57.32,16 -57.32,54.922 v 83.398 h -29.93 v 32.668 h 29.93 v 50.383 l 36.85,9.078" /><path
         id="path64"
         style="fill:#918f90;fill-opacity:1;fill-rule:nonzero;stroke:none"
         d="m 5062.31,371.672 v 166.816 h 37.19 V 371.672 Z m 18.75,198.789 c -12.17,0 -22.91,6.988 -22.91,22.269 0,14.579 10.74,21.899 22.91,21.899 12.19,0 22.6,-7.32 22.6,-21.899 0,-15.281 -10.41,-22.269 -22.6,-22.269" /><path
         id="path66"
         style="fill:#918f90;fill-opacity:1;fill-rule:nonzero;stroke:none"
         d="m 5234.95,543.012 c 42.07,0 68.84,-28.5 68.84,-68.121 V 371.672 h -37.18 v 98.348 c 0,27.121 -16.68,40.011 -38.95,40.011 -21.17,0 -37.17,-14.293 -46.54,-27.84 V 371.672 h -37.21 v 166.816 h 33.03 v -22.91 c 12.19,14.582 32.67,27.434 58.01,27.434" /><path
         id="path68"
         style="fill:#918f90;fill-opacity:1;fill-rule:nonzero;stroke:none"
         d="m 5426.35,510.32 c -29.88,0 -51.77,-22.558 -51.77,-55.23 0,-32.668 21.89,-55.25 51.77,-55.25 26.04,0 45.18,15.64 53.17,32.68 v 43.07 c -7.99,18.07 -27.13,34.73 -53.17,34.73 z m -6.6,32.692 c 31.27,0 51.08,-14.582 63.95,-30.614 v 26.09 h 33.38 V 373.77 c 0,-60.122 -45.92,-83.071 -93.52,-83.071 -25.39,0 -48.98,5.571 -68.83,15.641 v 34.039 c 19.12,-11.09 41.39,-17 64.01,-17 32.96,0 61.11,11.82 61.11,49.371 v 21.199 c -11.47,-13.597 -30.92,-26.777 -60.1,-26.777 -50.43,0 -82.71,39.969 -82.71,87.918 0,47.98 32.28,87.922 82.71,87.922" /><path
         id="path70"
         style="fill:#918f90;fill-opacity:1;fill-rule:nonzero;stroke:none"
         d="m 5621.1,543.012 c 22.95,0 43.79,-5.903 60.14,-14.242 v -32.692 c -13.91,9.41 -37.91,16.32 -57.72,16.32 -14.94,0 -30.92,-4.449 -30.92,-18.019 0,-32.348 100.45,-17.379 100.45,-78.207 0,-36.813 -34.08,-49 -71.95,-49 -24.34,0 -49.01,5.898 -65.33,16 v 33 c 17.38,-11.473 42.75,-17.731 63.61,-17.731 20.82,0 36.13,3.489 36.13,17.039 0,30.93 -100.82,18.079 -100.82,77.86 0,36.469 33.38,49.672 66.41,49.672" /><path
         id="path72"
         style="fill:#3872c1;fill-opacity:1;fill-rule:nonzero;stroke:none"
         d="m 276.078,1693.53 c 0,6.7 0.992,13.13 2.481,19.4 L 93.7383,1790.46 C 36.4805,1648.48 3.57813,1494.18 0,1332.53 l 292.18,312 c -10.028,13.8 -16.102,30.64 -16.102,49 z M 995.141,2247 c 0,-9.27 -1.864,-18.01 -4.637,-26.34 l 245.646,-134.52 c 15.34,19.4 38.81,32.09 65.46,32.11 26.45,-0.02 49.76,-12.53 65.11,-31.66 l 244.8,134.07 c -2.77,8.33 -4.64,17.09 -4.64,26.34 0,15.67 4.58,30.16 12.07,42.71 L 1301,2587.46 983.074,2289.71 c 7.489,-12.55 12.067,-27.04 12.067,-42.71 z M 292.063,864.031 106.098,786 C 166.746,645.809 251.367,518.52 354.684,408.988 l -7.426,421.422 c -22.695,3.442 -42.336,15.801 -55.195,33.621 z m -15.985,48.879 c 0,18.352 6.074,35.192 16.09,49 L 0,1273.9 C 3.57031,1112.3 36.4492,957.961 93.707,815.988 l 184.844,77.532 c -1.481,6.261 -2.473,12.671 -2.473,19.39 z m 245.801,323.68 c -18.852,15.38 -31.133,38.47 -31.141,64.69 0.008,26.91 12.914,50.58 32.625,65.92 l -135.636,247.67 c -8.762,-3.1 -18.047,-5.11 -27.868,-5.11 -16.16,0 -31.109,4.8 -43.914,12.71 L 16.9648,1303.22 315.941,983.949 c 12.797,7.949 27.75,12.742 43.918,12.742 9.821,0 19.106,-2.023 27.868,-5.121 z M 893.66,2328.82 c 5.711,1.24 11.613,1.96 17.703,1.96 18.848,0 36.043,-6.44 50.032,-16.94 l 312.235,292.4 c -161.82,-3.6 -316.181,-36.92 -458.263,-94.29 z m -29.773,-12.87 -78.809,183.5 c -144.57,-62.68 -275.64,-150.62 -387.402,-258.57 l 431.023,17.25 c 3.215,23.95 16.203,44.74 35.188,57.82 z M 433.328,1733 l 269.57,78.14 c -0.144,2 -0.597,3.9 -0.597,5.94 0.008,46.26 37.504,83.76 83.773,83.76 3.035,0 5.93,-0.58 8.875,-0.89 l 79.297,272.31 c -21.355,10.62 -37.398,29.94 -43.601,53.47 l -443.332,-17.72 -7.618,-433.32 c 23.309,-5.68 42.535,-21.08 53.633,-41.69 z m -86.043,43.06 7.399,421.31 C 251.383,2087.86 166.777,1960.6 106.121,1820.45 l 185.957,-78.02 c 12.871,17.8 32.512,30.17 55.207,33.63 z M 2168.69,873.441 1899.13,795.301 c 0.14,-2.012 0.59,-3.91 0.59,-5.942 -0.01,-46.281 -37.5,-83.757 -83.78,-83.781 -3.05,0 -5.95,0.582 -8.93,0.91 l -79.24,-272.297 c 21.35,-10.632 37.39,-29.941 43.6,-53.472 l 443.34,17.703 7.6,433.34 c -23.3,5.687 -42.54,21.078 -53.62,41.679 z m 416.35,429.789 -298.99,319.24 c -12.79,-7.91 -27.73,-12.71 -43.89,-12.71 -9.83,0 -19.12,2.01 -27.88,5.11 L 2078.65,1367.2 c 19.72,-15.33 32.63,-39.01 32.63,-65.92 0,-26.23 -12.31,-49.37 -31.18,-64.71 l 134.18,-245.011 c 8.76,3.109 18.05,5.132 27.88,5.132 16.17,0 31.11,-4.793 43.91,-12.73 z M 874.258,434.191 794.98,706.488 c -2.964,-0.328 -5.859,-0.91 -8.906,-0.91 -46.269,0.024 -83.765,37.5 -83.773,83.781 0,2.032 0.453,3.93 0.597,5.942 l -269.57,78.14 C 422.23,852.82 402.973,837.41 379.668,831.75 l 7.629,-433.309 443.348,-17.722 c 6.21,23.531 22.253,42.84 43.613,53.472 z m 1380.482,396.2 -7.48,-425.789 c 104.85,110.136 190.69,238.468 252.12,379.929 l -189.44,79.5 c -12.87,-17.82 -32.51,-30.179 -55.2,-33.64 z m 71.2,82.519 c 0,-6.719 -0.99,-13.148 -2.49,-19.39 l 188.39,-79.032 c 58.16,143.731 91.35,300.112 94.41,463.962 l -296.4,-316.559 c 10.01,-13.789 16.09,-30.629 16.09,-48.981 z m -587.83,-622.441 78.15,-182.328 c 0.49,-1.121 0.5,-2.262 0.71,-3.43 146.4,62.879 278.82,151.879 391.74,261.019 l -435.39,-17.421 c -3.22,-23.918 -16.21,-44.739 -35.21,-57.84 z M 911.363,275.68 c -6.09,0 -11.992,0.711 -17.703,1.941 L 815.574,95.3906 v -0.0312 l -29.808,12.7816 78.129,182.347 c -18.993,13.102 -31.981,33.903 -35.196,57.821 l -431.105,17.23 C 625.57,145.34 933.496,7.66016 1273.69,0.109375 L 961.391,292.578 C 947.398,282.109 930.199,275.68 911.363,275.68 Z m 796.987,1.941 c -5.71,-1.23 -11.61,-1.941 -17.69,-1.941 -18.84,0 -36.05,6.429 -50.04,16.922 L 1328.16,0 c 162.28,3.08984 317.24,35.7305 459.81,92.9414 -0.52,0.7774 -1.12,1.5274 -1.52,2.4492 z m -101.47,81.809 c 0,9.261 1.87,18.039 4.65,26.359 L 1365.88,520.32 c -15.37,-18.55 -38.3,-30.621 -64.27,-30.64 -26.2,0.019 -49.3,12.281 -64.66,31.101 L 990.484,385.828 c 2.793,-8.34 4.657,-17.117 4.657,-26.398 0,-15.668 -4.571,-30.16 -12.055,-42.692 L 1301.01,19 1618.94,316.738 c -7.48,12.532 -12.06,27.024 -12.06,42.692 z m -751.7,382.64 c -7.461,-10.879 -17.602,-19.601 -29.227,-25.941 L 905.59,442.621 c 1.945,0.129 3.797,0.59 5.773,0.59 25.317,0 47.739,-11.461 63.102,-29.199 l 247.285,135.449 c -2.3,7.629 -3.92,15.598 -3.92,24.008 0,5.883 0.63,11.609 1.78,17.14 z m 658.62,541.03 c -17.28,9.36 -70.73,12.07 -94.22,12.46 -11.2,0.19 -24.64,1.74 -32.85,-3.1 -17.2,-10.04 -46.49,-2.41 -59.63,-11.11 -15.37,-10.24 12.56,-40.67 17.1,-46.38 21.17,-25.99 37.31,-85.15 67.07,-73.82 0.78,2.3 -31.12,61.83 -34.11,69.17 13.24,-5.21 84.56,-35.46 91.23,-12.56 l -42.33,27.26 c 6.09,4.45 31.5,2.1 38.08,1.34 14.3,-1.63 26.38,-2.79 40.96,-2.21 12.09,0.47 27.46,5.12 38.28,-0.4 5.03,-2.6 7.15,-7.24 3.96,-13.34 -2.98,-5.59 -6.28,-6.75 -11.6,-10.51 20.5,-12.18 54.23,22.31 -21.94,63.2 z m -268.84,413.42 c 13.42,11.41 32.36,20.8 50.25,26.11 13.62,4.05 27.35,6.37 42.71,7.82 15.46,1.44 44.56,-0.4 49.29,0.48 -2.31,7.93 -28.6,19.05 -40.11,21.07 -48.22,8.51 -110.07,-28.31 -115.48,-67.45 4.44,2.22 8.7,8.12 13.34,11.97 z m 382.6,-1282.508 c 15.36,17.738 37.78,29.199 63.1,29.199 1.97,0 3.82,-0.461 5.76,-0.59 l 79.63,273.508 c -11.63,6.351 -21.74,15.062 -29.2,25.941 l -363.38,-151 c 1.21,-5.691 1.93,-11.558 1.93,-17.601 0,-8.641 -1.68,-16.789 -4.11,-24.598 z m -219.67,977.408 c -22.23,-5.31 -26.19,-18.26 -11.98,-33.91 8.5,-9.28 27.44,-18.65 40.39,-23.01 36.53,-12.17 47.17,-4.63 78.67,1.84 11.3,2.31 19.42,0.88 30.25,1.93 8.6,0.88 14.88,6 17.2,14.12 1.74,5.99 -1.06,8.89 -6.57,5.59 -4.25,-2.52 -3.48,-6.17 -8.02,-7.53 -8.12,-2.61 -20.1,1.07 -26.67,3.59 -22.53,8.69 -18.85,27.34 -71.42,19.89 -55.77,-7.82 -18.46,23.1 -41.85,17.49 z m 918.05,302.11 c 0,-18.36 -6.08,-35.2 -16.09,-49 l 296.4,-316.51 c -3.08,163.83 -36.28,320.23 -94.45,463.93 l -188.35,-79.02 c 1.5,-6.27 2.49,-12.69 2.49,-19.4 z m -598.2,478.72 79.28,-272.3 c 2.97,0.31 5.87,0.89 8.92,0.89 46.28,0 83.77,-37.5 83.78,-83.76 0,-2.04 -0.46,-3.96 -0.59,-5.96 l 269.56,-78.14 c 11.09,20.61 30.33,36.03 53.62,41.71 l -7.6,433.32 -443.33,17.74 c -6.2,-23.55 -22.26,-42.87 -43.64,-53.5 z m 582.19,-429.82 189.41,79.46 c -61.42,141.46 -147.25,269.75 -252.09,379.88 l 7.48,-425.71 c 22.69,-3.46 42.32,-15.83 55.2,-33.63 z M 2186.38,975.012 2051.47,1221.42 c -7.65,-2.29 -15.58,-3.91 -23.97,-3.91 -5.74,0 -11.35,0.59 -16.77,1.68 L 1861.25,859.668 c 12.59,-8.117 22.63,-19.578 29.36,-33.047 l 268.62,77.859 c -0.28,2.821 -0.85,5.532 -0.85,8.43 0,24.75 10.95,46.75 28,62.102 z M 974.473,2192.45 c -15.364,-17.76 -37.793,-29.22 -63.11,-29.24 -1.976,0 -3.84,0.45 -5.781,0.59 l -79.629,-273.48 c 11.637,-6.36 21.766,-15.08 29.227,-25.96 l 364.83,151.65 c -1.33,5.95 -2.18,12.1 -2.18,18.45 0,7.95 1.46,15.5 3.54,22.78 z m 716.187,138.33 c 6.08,0 11.98,-0.72 17.69,-1.96 l 78.1,182.23 v -0.03 c 0.4,0.93 1.11,1.57 1.64,2.38 -142.57,57.2 -297.53,89.87 -459.82,92.96 l 312.36,-292.52 c 13.99,10.5 31.2,16.94 50.03,16.94 z m 56.19,-466.42 c 7.46,10.88 17.57,19.6 29.2,25.95 l -79.59,273.49 c -1.95,-0.14 -3.81,-0.59 -5.8,-0.59 -25.33,0.02 -47.74,11.48 -63.11,29.24 l -245.87,-134.63 c 2.18,-7.46 3.72,-15.19 3.72,-23.36 0,-6.52 -0.92,-12.81 -2.33,-18.91 z m 411.53,-170.83 c 0,2.89 0.57,5.63 0.86,8.45 l -268.61,77.85 c -6.74,-13.47 -16.79,-24.92 -29.36,-33.06 l 151.02,-363.25 c 4.95,0.91 10,1.53 15.21,1.53 7.71,0 15.03,-1.38 22.12,-3.32 l 136.76,249.71 c -17.06,15.35 -28,37.34 -28,62.09 z M 415.641,1631.44 552.395,1381.73 c 7.085,1.94 14.414,3.32 22.117,3.32 5.215,0 10.269,-0.62 15.218,-1.53 l 150.985,363.28 c -12.555,8.13 -22.578,19.56 -29.313,33.03 l -268.609,-77.86 c 0.281,-2.83 0.852,-5.55 0.852,-8.44 0,-24.75 -10.95,-46.76 -28.004,-62.09 z M 711.402,826.621 c 6.735,13.449 16.758,24.918 29.321,33.027 L 591.289,1219.19 c -5.426,-1.09 -11.031,-1.68 -16.777,-1.68 -8.379,0 -16.305,1.6 -23.942,3.89 L 415.621,975.012 c 17.074,-15.352 28.024,-37.344 28.024,-62.102 0,-2.879 -0.571,-5.609 -0.852,-8.43 z m 596.558,685.129 c 3.87,7.45 19.62,13.14 29.1,16.32 14.49,5.03 22.7,-0.48 36.91,-2.98 12.66,-2.33 25.22,-4.27 35.76,-9.28 11.21,-5.33 16.24,-13.83 13.24,-30.54 -6.38,0.77 -18.46,24.15 -57.99,16.62 -8.31,-1.55 -25.9,-7.63 -33.53,-5.71 -8.99,2.23 -20.39,9.09 -23.49,15.57 z m 321.24,-362.3 c -8.22,-28.63 -17.58,-49.69 -37.4,-69.4 -5.61,-5.6 -12.08,-11.6 -18.75,-17.01 -9.76,-8.02 -20.01,-15.25 -29.37,-24.06 -2.71,-2.52 -7.35,-4.75 -7.15,-9.95 17.97,-3.77 46.47,17 63.19,6.09 11.61,-7.65 12.87,-42.042 -3.57,-54.03 -14.02,-10.238 -35.85,-15.942 -56.82,-18.66 -11.7,-1.539 -22.91,-2.321 -34.89,-2.981 -7.83,-0.488 -28.22,-0.39 -34.02,-2.328 3.48,-5.031 17.68,-10.141 25.41,-12.09 32.57,-7.929 66.88,0.789 96.84,8.418 -2.51,-6.187 -8.11,-12.758 -11.89,-17.769 -4.53,-5.821 -9.66,-10.282 -14.59,-14.899 -8.41,-7.922 -23.39,-16.812 -38.18,-19.812 -21.06,-4.16 -78.95,10.449 -98.27,16.633 -73.94,23.269 -130.48,66.57 -173.39,119.148 -27.64,33.82 -46.97,69.4 -61.56,113.25 -9.07,27.56 -49.38,163.63 -66.87,166.93 -9.57,-18.56 30.93,-161.5 38.66,-184.12 14.01,-41.18 26.76,-83.7 50.92,-119.25 8.22,-11.99 13.82,-14.591 19.81,-22.509 1.55,-2.031 3.1,-5.141 2.04,-7.551 -3.68,-8.211 -20.59,3.66 -23.87,5.891 -6.67,4.55 -11.03,9.668 -16.52,14.799 -6,5.39 -10.16,10.62 -15.28,16.91 -4.54,5.51 -8.99,11.51 -13.73,17.58 -9.18,12.18 -17.58,24.27 -26.46,36.93 -7.17,10.24 -19.62,27.33 -25.34,37.78 -13.04,-0.88 -4.24,-19.82 -1.06,-26.38 24.75,-51.8 64.76,-103.131 99.74,-148.639 15.94,-20.769 -8.89,-17.59 -29.57,-2.031 -4.74,3.48 -8.79,6.762 -13.83,10.14 -7.14,4.661 -22.7,13.258 -14.98,-2.98 1.27,-2.629 2.81,-5.699 3.97,-8.02 17.4,-32.089 32.67,-37.511 65.04,-51.808 8.21,-3.582 26.68,-11.012 28.89,-17.492 -3.47,-3.192 -10.72,-2.129 -15.16,-1.84 -30.64,2.23 -60.9,13.449 -85.73,30.051 -7.34,4.937 -12.27,8.597 -19.23,13.918 -8.02,6.293 -27.45,23.671 -34.5,31.8 -25.81,29.77 -49.67,61.561 -68.42,97.121 -15.76,29.97 -28.89,57.99 -41.458,91.04 -48.711,128.83 -74.512,316.02 -10.348,444.26 19.726,39.44 43.586,63.32 76.826,89.78 18.37,14.6 38.86,27.84 59.54,39.82 44.74,25.99 130.95,69.1 194.92,69.79 16.82,0.18 47.07,-0.11 62.43,-3.69 27.74,-6.37 61.28,-33.72 81.38,-51.02 11.89,-10.15 22.32,-21.75 32.17,-34.11 19.73,-24.75 37.31,-51.12 52.58,-79.83 15.08,-28.33 27.64,-61.17 36.34,-96.16 -3.1,1.75 -5.51,4.54 -9.56,6.95 -3.59,2.12 -6.87,3.29 -11.03,4.64 -8.21,2.63 -18.35,3.87 -27.25,2.33 -18.55,-3.2 -30.15,-10.73 -32.08,-30.53 22.71,-2.13 7.92,8.89 57.98,-0.69 9.28,-1.75 18.65,-3.38 24.26,-8.89 4.35,-4.16 8.51,-17.4 5.32,-25.04 -2.33,-2.89 -12.28,4.06 -15.76,5.43 -18.17,6.75 -41.17,8.02 -60.69,6.56 1.94,-5.6 8.7,-15.94 11.98,-20.29 5.71,-7.54 8.22,-10.14 15.85,-15.47 17.21,-11.88 32.09,-6.18 49.1,0.29 24.45,-129.2 16.91,-166.41 -33.15,-279.11 -2.89,-6.47 -6.09,-12.84 -9.18,-19.31 -7.34,-15.18 -28.8,-35.29 -48.52,-34.99 -6.76,0.18 -17.1,2.8 -24.15,4.05 -23.3,3.98 -48.62,6.58 -70.26,14.41 -29.96,10.72 -44.46,25.71 -58.08,54.12 -19.14,39.62 -37.11,87.65 -12.95,131.33 9.27,16.81 17.88,23.09 23.67,32.39 -32.86,-2.51 -50.64,-40.71 -59.82,-67.18 -3.77,-11.12 -5.89,-24.74 -8.89,-33.33 -3.1,4.63 -3.67,14.12 -5.22,19.9 -5.12,19.34 -16.43,41.17 -7.73,61.07 6.67,15.18 17.01,24.95 27.92,34.59 2.23,2.05 3.78,4.07 6,5.92 3.96,3.37 9.17,6.66 12.76,11.1 -4.65,20.58 -35.28,16.81 -44.65,23.87 4.73,8.89 11.79,17.99 17.59,26.39 5.12,7.43 2.51,7.62 13.05,8.97 6.27,0.8 12.65,2.05 18.93,2.52 -1.05,13.53 -8.4,9 -15.64,16.34 4.54,5.42 17.87,6.18 26.09,9.37 l -13.35,14.59 c 27.07,-6.95 49.39,-9.55 77.22,0.98 8.12,3.08 13.73,7.14 20.4,10.05 -3.97,-13.63 -17.21,-16.63 -28.42,-21.27 -8.99,-3.77 -8.7,-5.41 -14.49,-10.43 -6.58,-5.7 -9.96,-2.04 -10.24,-13.05 9.56,-0.96 53.44,7.45 66.77,8.89 -1.55,-7.83 -5.89,-22.03 -0.39,-28.02 3.48,-3.77 15.95,-9.47 21.55,-11.32 21.17,23.5 -1.83,123.33 -32.27,144.1 -21.55,14.7 -52.29,13.43 -78.86,5.52 -18.65,-5.52 -33.92,-14.8 -52.76,-18.95 -9.77,-2.23 -12.95,-0.49 -15.09,7.14 4.64,6.48 21.76,8.52 22.42,23.98 0.49,10.43 -10.63,24.25 -15.07,30.64 -10.63,15.07 -24.55,41.74 -33.34,58.66 -21.94,42.52 -26.86,13.62 -28.99,-20.88 -1.74,-28.41 -0.58,-61.57 0.68,-90.17 4.82,-107.36 17.29,-226.34 45.12,-322.98 24.17,-84.37 80.51,-190.67 177.15,-190.67 31.69,-0.1 64.74,12.09 79.34,35.57 3.38,5.31 7.44,6.86 11.12,11.89 18.84,25.88 19.42,25.31 43.2,48.89 12.95,12.86 28.69,37.11 37.87,54.01 2.42,4.46 13.26,29.11 18.86,27.27 10.43,-8.7 0.67,-47.84 -2.81,-59.81 z m 201.94,-277.841 149.69,360.121 c -22.37,15.04 -37.09,40.57 -37.1,69.55 0.01,29.51 15.35,55.33 38.4,70.26 l -150.99,363.28 c -4.94,-0.91 -9.99,-1.55 -15.2,-1.55 -46.26,0.02 -83.76,37.52 -83.77,83.81 0,5.99 0.68,11.83 1.88,17.47 l -364.3,151.44 c -15.19,-21.3 -39.97,-35.31 -68.14,-35.31 -28.34,0 -53.28,14.15 -68.46,35.69 L 867.965,1834.58 c 1.195,-5.65 1.894,-11.49 1.894,-17.5 -0.011,-46.29 -37.511,-83.79 -83.785,-83.81 -5.215,0 -10.269,0.64 -15.215,1.55 L 619.863,1371.55 c 23.075,-14.92 38.422,-40.74 38.43,-70.27 -0.008,-28.99 -14.734,-54.51 -37.109,-69.55 L 770.875,871.609 c 4.945,0.911 9.988,1.539 15.199,1.539 46.274,0 83.774,-37.507 83.785,-83.789 0,-5.988 -0.699,-11.847 -1.894,-17.48 l 364.305,-151.43 c 15.06,22.211 40.48,36.801 69.34,36.801 28.69,0 53.94,-14.449 69.04,-36.422 l 363.4,151.07 c -1.2,5.622 -1.88,11.473 -1.88,17.461 0.01,46.282 37.51,83.789 83.77,83.789 5.21,0 10.26,-0.628 15.2,-1.539 z m -57.82,1386.521 435.31,-17.4 c -112.91,109.08 -245.3,198.07 -391.68,260.92 -0.21,-1.13 -0.23,-2.28 -0.7,-3.37 l -78.14,-182.3 c 18.99,-13.11 31.99,-33.9 35.21,-57.85" /></g></g></svg>