<?xml version="1.0" encoding="UTF-8" standalone="yes"?>
<!DOCTYPE svg PUBLIC "-//W3C//DTD SVG 1.1//EN" "http://www.w3.org/Graphics/SVG/1.1/DTD/svg11.dtd">

<svg width="500" height="170" viewBox="0 0 500 170" xmlns="http://www.w3.org/2000/svg" xmlns:xlink="http://www.w3.org/1999/xlink" version="1.1" baseProfile="full">
    <g transform="scale(1,-1) translate(0,-170)">
        <path d="M 57.255999 110.112122 C 68.434839 110.112122 79.470128 107.726375 88.858854 103.255910 L 88.858854 86.707798 C 80.960282 91.777110 70.372791 94.459603 59.640676 94.459603 C 39.219876 94.459603 18.650166 83.279691 18.650166 56.000535 C 18.650166 26.186725 40.264375 17.391489 59.197163 17.391489 C 65.009946 17.391489 70.673820 18.432776 74.846469 20.371798 L 74.846469 59.875367 L 91.396724 59.875367 L 91.396724 8.891927 C 81.408079 4.421462 69.628249 1.887878 58.151593 1.887878 C 29.233373 1.887878 1.206462 17.091529 1.206462 56.000535 C 1.206462 92.820541 29.233373 110.112121 57.256002 110.112121 Z" transform="scale(1.000000,1.000000) translate(176.000000,29.000000)" fill="#7e7c7d" opacity="1.000000"></path>
        <path d="M 73.284376 106.174162 L 73.284376 90.671626 L 18.425030 90.671626 L 18.425030 62.197988 L 68.810693 62.197988 L 68.810693 46.695450 L 18.425030 46.695450 L 18.425030 17.328362 L 74.177822 17.328362 L 74.177822 1.824751 L 1.429119 1.824751 L 1.429119 106.174165 L 73.284369 106.174165 Z" transform="scale(1.000000,1.000000) translate(285.000000,31.000000)" fill="#7e7c7d" opacity="1.000000"></path>
        <path d="M 111.329987 106.174162 L 111.329987 1.824748 L 94.337294 1.824748 L 94.337294 74.868054 L 61.393229 25.379058 L 51.254605 25.379058 L 18.310504 75.019109 L 18.310504 1.824755 L 1.317810 1.824755 L 1.317810 106.174168 L 16.671442 106.174168 L 56.326062 46.397637 L 95.978541 106.174168 L 111.330030 106.174168 Z" transform="scale(1.000000,1.000000) translate(374.000000,31.000000)" fill="#7e7c7d" opacity="1.000000"></path>
        <path d="M 17.630253 99.566439 C 17.630253 99.953771 17.687601 100.325495 17.773682 100.687968 L 7.089054 105.170034 C 3.778936 96.962061 1.876824 88.041863 1.669970 78.696749 L 18.561122 96.733711 C 17.981395 97.531500 17.630253 98.505033 17.630253 99.566439 Z M 59.199842 131.562967 C 59.199842 131.027061 59.092082 130.521795 58.931773 130.040231 L 73.132758 122.263525 C 74.019576 123.385054 75.376395 124.118673 76.917052 124.119829 C 78.446147 124.118673 79.793716 123.395460 80.681111 122.289540 L 94.833189 130.040231 C 94.673053 130.521795 94.564947 131.028217 94.564947 131.562967 C 94.564947 132.468862 94.829720 133.306540 95.262723 134.032065 L 76.881788 151.245221 L 58.502238 134.032063 C 58.935183 133.306537 59.199841 132.468859 59.199841 131.562965 Z M 18.554358 51.612458 L 7.803578 47.101425 C 11.309686 38.996876 16.201691 31.638200 22.174526 25.306070 L 21.745223 49.668802 C 20.433208 49.867786 19.297747 50.582270 18.554358 51.612458 Z M 17.630252 54.438191 C 17.630252 55.499134 17.981395 56.472668 18.560428 57.270919 L 1.669970 75.307303 C 1.876372 65.965084 3.777126 57.042624 7.087244 48.835053 L 17.773219 53.317238 C 17.687601 53.679191 17.630253 54.049758 17.630253 54.438189 Z M 31.840198 73.150382 C 30.750350 74.039512 30.040375 75.374363 30.039913 76.890161 C 30.040375 78.445849 30.786481 79.814230 31.925989 80.701047 L 24.084767 95.019042 C 23.578229 94.839828 23.041456 94.723629 22.473696 94.723629 C 21.539474 94.723629 20.675261 95.001120 19.934994 95.458404 L 2.650718 77.002312 L 19.934764 58.545009 C 20.674569 59.004546 21.539013 59.281634 22.473698 59.281634 C 23.041458 59.281634 23.578231 59.164682 24.084769 58.985585 Z M 53.333145 136.293048 C 53.663303 136.364734 54.004502 136.406357 54.356569 136.406357 C 55.446187 136.406357 56.440243 136.034056 57.248958 135.427043 L 75.299505 152.330913 C 65.944565 152.122794 57.020836 150.196539 48.806965 146.879935 Z M 51.611945 135.549024 L 47.055936 146.157301 C 38.698232 142.533721 31.120973 137.449842 24.659926 131.209168 L 49.577700 132.206404 C 49.763561 133.590972 50.514408 134.792858 51.611945 135.549023 Z M 26.720998 101.848229 L 42.305048 106.365563 C 42.296724 106.481184 42.270535 106.591025 42.270535 106.708959 C 42.270998 109.383285 44.438671 111.551189 47.113518 111.551189 C 47.288973 111.551189 47.456335 111.517659 47.626588 111.499738 L 52.210809 127.242189 C 50.976260 127.856140 50.048802 128.973044 49.690201 130.333332 L 24.060835 129.308925 L 23.620433 104.258359 C 24.967944 103.929994 26.079414 103.039708 26.720998 101.848228 Z M 21.746785 104.337561 L 22.174527 128.693818 C 16.202616 122.362966 11.311477 115.005960 7.804907 106.903778 L 18.555226 102.393382 C 19.299308 103.422413 20.434770 104.137533 21.746785 104.337558 Z M 127.043615 52.156456 L 111.460147 47.639125 C 111.468240 47.522809 111.494255 47.413084 111.494255 47.295613 C 111.493677 44.620073 109.326351 42.453556 106.650868 42.452169 C 106.474546 42.452169 106.306894 42.485814 106.134618 42.504776 L 101.553693 26.763076 C 102.787953 26.148432 103.715237 25.032164 104.074242 23.671818 L 129.704071 24.695242 L 130.143433 49.746963 C 128.796442 50.075733 127.684162 50.965499 127.043619 52.156459 Z M 151.113132 77.002891 L 133.828289 95.458402 C 133.088889 95.001119 132.225196 94.723627 131.290974 94.723627 C 130.722694 94.723627 130.185632 94.839827 129.679210 95.019040 L 121.838331 80.701044 C 122.978359 79.814805 123.724697 78.445846 123.724697 76.890158 C 123.724697 75.373782 123.013046 74.036040 121.922157 73.149223 L 129.679206 58.984947 C 130.185628 59.164681 130.722690 59.281632 131.290970 59.281632 C 132.225771 59.281632 133.089464 59.004545 133.829441 58.545701 Z M 52.211502 26.763075 L 47.628378 42.504773 C 47.457027 42.485811 47.289665 42.452166 47.113516 42.452166 C 44.438669 42.453553 42.270996 44.620070 42.270534 47.295610 C 42.270534 47.413081 42.296722 47.522806 42.305047 47.639122 L 26.720996 52.156456 C 26.079414 50.964341 24.966151 50.073475 23.618871 49.746268 L 24.059910 24.696340 L 49.690200 23.671817 C 50.049205 25.032162 50.976664 26.148431 52.211502 26.763075 Z M 132.018239 49.667704 L 131.585814 25.052512 C 137.647274 31.419560 142.609751 38.838532 146.161067 47.016501 L 135.209393 51.612458 C 134.465369 50.582270 133.329965 49.867787 132.018238 49.667704 Z M 136.134366 54.438192 C 136.134366 54.049761 136.077133 53.678096 135.990417 53.317241 L 146.881389 48.748340 C 150.243663 57.057540 152.162403 66.098047 152.339304 75.570343 L 135.204191 57.269822 C 135.782877 56.472669 136.134366 55.499136 136.134366 54.438193 Z M 102.151457 18.454396 L 106.669369 7.913873 C 106.697697 7.849067 106.698275 7.783105 106.710415 7.715582 C 115.173912 11.350666 122.829216 16.495825 129.357207 22.805294 L 104.186973 21.798172 C 104.000823 20.415454 103.249861 19.211776 102.151456 18.454397 Z M 54.356570 17.599430 C 54.004502 17.599430 53.663303 17.640534 53.333146 17.711641 L 48.818933 7.176761 L 48.818933 7.174957 L 47.095710 7.913871 L 51.612408 18.455493 C 50.514407 19.212929 49.763561 20.415451 49.577700 21.798169 L 24.655185 22.794249 C 37.834657 10.064374 55.636095 2.104996 75.302972 1.668479 L 57.248728 18.576317 C 56.439783 17.971097 55.445493 17.599430 54.356570 17.599430 Z M 100.431005 17.711641 C 100.100906 17.640534 99.759822 17.599430 99.408333 17.599430 C 98.319178 17.599430 97.324254 17.971096 96.515482 18.577704 L 78.451930 1.662156 C 87.833463 1.840782 96.791820 3.727764 105.033903 7.035170 C 105.003841 7.080113 104.969154 7.123471 104.946030 7.176761 Z M 94.564946 22.441082 C 94.564946 22.976468 94.673052 23.483931 94.833766 23.964917 L 80.632551 31.742259 C 79.744000 30.669869 78.418398 29.972035 76.917053 29.970937 C 75.402410 29.972035 74.066982 30.680911 73.179008 31.768910 L 58.930618 23.967172 C 59.092083 23.485030 59.199843 22.977625 59.199843 22.441083 C 59.199843 21.535304 58.935590 20.697510 58.502934 19.973025 L 76.882366 2.760561 L 95.262142 19.973026 C 94.829717 20.697510 94.564944 21.535304 94.564944 22.441083 Z M 51.108586 44.561798 C 50.677260 43.932875 50.091001 43.428649 49.418951 43.062129 L 54.022831 27.250419 C 54.135273 27.257877 54.242338 27.284528 54.356573 27.284528 C 55.820168 27.284528 57.116401 26.621958 58.004548 25.596511 L 72.300286 33.426923 C 72.167321 33.867961 72.073667 34.328655 72.073667 34.814844 C 72.073667 35.154945 72.110088 35.485969 72.176571 35.805720 Z M 89.183918 75.839163 C 88.184948 76.380272 85.094962 76.536939 83.736987 76.559485 C 83.089506 76.570469 82.312529 76.660076 81.837903 76.380272 C 80.843558 75.799852 79.150280 76.240948 78.390646 75.737994 C 77.502095 75.146012 79.116750 73.386830 79.379211 73.056731 C 80.603065 71.554229 81.536131 68.134143 83.256579 68.789139 C 83.301672 68.922104 81.457508 72.363579 81.284654 72.787910 C 82.050068 72.486716 86.173133 70.737940 86.558731 72.061807 L 84.111601 73.637729 C 84.463668 73.894987 85.932640 73.759131 86.313035 73.715195 C 87.139729 73.620964 87.838083 73.553903 88.680964 73.587433 C 89.379897 73.614604 90.268448 73.883425 90.893961 73.564309 C 91.184749 73.414001 91.307308 73.145759 91.122892 72.793113 C 90.950615 72.469951 90.759840 72.402891 90.452287 72.185522 C 91.637407 71.481387 93.587365 73.475280 89.183918 75.839163 Z M 73.642070 99.739294 C 74.417890 100.398915 75.512826 100.941758 76.547061 101.248734 C 77.334444 101.482867 78.128186 101.616988 79.016159 101.700814 C 79.909914 101.784062 81.592207 101.677690 81.865652 101.728563 C 81.732110 102.187003 80.212264 102.829858 79.546862 102.946636 C 76.759227 103.438606 73.183630 101.310013 72.870874 99.047300 C 73.127554 99.175640 73.373827 99.516723 73.642069 99.739295 Z M 95.760472 25.596510 C 96.648446 26.621958 97.944563 27.284527 99.408332 27.284527 C 99.522219 27.284527 99.629169 27.257876 99.741322 27.250419 L 104.344794 43.062128 C 103.672455 43.429284 103.087988 43.932874 102.656719 44.561797 L 81.649440 35.832370 C 81.719391 35.503369 81.761015 35.164193 81.761015 34.814843 C 81.761015 34.315300 81.663893 33.844258 81.523412 33.392813 Z M 83.061180 82.101225 C 81.776046 81.794250 81.547115 81.045600 82.368607 80.140862 C 82.859998 79.604378 83.954934 79.062691 84.703584 78.810636 C 86.815411 78.107078 87.430518 78.542972 89.251557 78.917007 C 89.904819 79.050550 90.374243 78.967881 91.000333 79.028582 C 91.497506 79.079456 91.860558 79.375447 91.994679 79.844870 C 92.095269 80.191157 91.933399 80.358808 91.614862 80.168033 C 91.369166 80.022349 91.413680 79.811340 91.151219 79.732717 C 90.681796 79.581831 89.989223 79.794575 89.609406 79.940258 C 88.306929 80.442634 88.519673 81.520805 85.480561 81.090114 C 82.256454 80.638034 84.413374 82.425543 83.061180 82.101225 Z M 136.134361 99.566437 C 136.134361 98.505031 135.782871 97.531498 135.204185 96.733709 L 152.339298 78.436020 C 152.161241 87.907160 150.241924 96.948765 146.879071 105.256173 L 135.990411 100.687965 C 136.077127 100.325492 136.134360 99.954347 136.134360 99.566436 Z M 101.551955 127.241611 L 106.135193 111.499738 C 106.306891 111.517659 106.474542 111.551190 106.650865 111.551190 C 109.326347 111.551190 111.493673 109.383286 111.494251 106.708959 C 111.494251 106.591025 111.467658 106.480028 111.460143 106.364407 L 127.043615 101.847073 C 127.684737 103.038553 128.797016 103.929995 130.143429 104.258360 L 129.704067 129.308926 L 104.074817 130.334489 C 103.716390 128.973045 102.787949 127.856141 101.551955 127.241612 Z M 135.208810 102.393384 L 146.158749 106.987028 C 142.608011 115.164940 137.646112 122.581484 131.585231 128.948185 L 132.017655 104.337561 C 133.329382 104.137536 134.464207 103.422416 135.208810 102.393384 Z M 128.066285 58.028357 L 120.267038 72.273395 C 119.824786 72.141008 119.366346 72.047355 118.881314 72.047355 C 118.549480 72.047355 118.225162 72.081463 117.911827 72.144477 L 109.270274 51.360231 C 109.998112 50.890981 110.578532 50.228412 110.967599 49.449758 L 126.496729 53.950847 C 126.480542 54.113932 126.447589 54.270657 126.447589 54.438192 C 126.447589 55.869009 127.080617 57.140846 128.066291 58.028357 Z M 58.005010 128.409386 C 57.116806 127.382667 55.820168 126.720155 54.356572 126.718999 C 54.242338 126.718999 54.134579 126.745014 54.022368 126.753108 L 49.418954 110.943016 C 50.091698 110.575340 50.677263 110.071230 51.108590 109.442249 L 72.199694 118.209252 C 72.122805 118.553226 72.073666 118.908763 72.073666 119.275861 C 72.073666 119.735457 72.158070 120.171928 72.278316 120.592791 Z M 99.408336 136.406351 C 99.759826 136.406351 100.100909 136.364727 100.431009 136.293042 L 104.946030 146.827899 L 104.946030 146.826165 C 104.969155 146.879929 105.010200 146.916927 105.040840 146.963754 C 96.798757 150.270531 87.840400 152.159209 78.458289 152.337844 L 96.516062 135.427037 C 97.324835 136.034050 98.319758 136.406351 99.408335 136.406351 Z M 102.656724 109.442249 C 103.087992 110.071230 103.672459 110.575340 104.344798 110.942438 L 99.743639 126.753106 C 99.630908 126.745013 99.523380 126.718998 99.408336 126.718998 C 97.943989 126.720154 96.648450 127.382666 95.759898 128.409385 L 81.545963 120.626320 C 81.671991 120.195052 81.761020 119.748175 81.761020 119.275860 C 81.761020 118.898934 81.707834 118.535304 81.626320 118.182659 Z M 126.447592 99.566434 C 126.447592 99.733507 126.480544 99.891908 126.497309 100.054935 L 110.968757 104.555504 C 110.579113 103.776792 109.998115 103.114859 109.271433 102.644279 L 118.002017 81.644515 C 118.288180 81.697123 118.580124 81.732966 118.881318 81.732966 C 119.327039 81.732966 119.750214 81.653187 120.160093 81.541034 L 128.066294 95.976963 C 127.080042 96.864358 126.447592 98.135617 126.447592 99.566434 Z M 25.698498 95.976963 L 33.604354 81.541037 C 34.013943 81.653190 34.437638 81.732968 34.882955 81.732968 C 35.184438 81.732968 35.476614 81.697126 35.762719 81.644518 L 44.491279 102.646016 C 43.765465 103.116018 43.186028 103.776795 42.796672 104.555506 L 27.268177 100.054359 C 27.284422 99.890755 27.317432 99.733509 27.317432 99.566436 C 27.317432 98.135619 26.684404 96.863204 25.698499 95.976965 Z M 42.796669 49.449755 C 43.186025 50.227252 43.765462 50.890284 44.491739 51.359071 L 35.852845 72.144471 C 35.539164 72.081457 35.215135 72.047349 34.882954 72.047349 C 34.398557 72.047349 33.940349 72.139846 33.498848 72.272233 L 25.697342 58.028357 C 26.684403 57.140846 27.317431 55.869471 27.317431 54.438192 C 27.317431 54.271755 27.284421 54.113931 27.268176 53.950847 Z M 77.284149 89.057595 C 77.507876 89.488285 78.418396 89.817228 78.966442 90.001067 C 79.804120 90.291855 80.278747 89.973317 81.100238 89.828790 C 81.832122 89.694091 82.558225 89.581938 83.167551 89.292307 C 83.815610 88.984175 84.106398 88.492784 83.932966 87.526765 C 83.564133 87.571280 82.865779 88.922896 80.580519 88.487581 C 80.100111 88.397974 79.083220 88.046484 78.642123 88.157481 C 78.122405 88.286399 77.463362 88.682981 77.284148 89.057595 Z M 95.855281 68.112752 C 95.380077 66.457629 94.838968 65.240135 93.693158 64.100684 C 93.368840 63.776944 92.994804 63.430079 92.609206 63.117323 C 92.044973 62.653680 91.452412 62.235708 90.911304 61.726395 C 90.754636 61.580712 90.486394 61.451794 90.497957 61.151178 C 91.536816 60.933232 93.184423 62.133961 94.151019 61.503246 C 94.822202 61.060993 94.895044 59.072765 93.944635 58.379730 C 93.134128 57.787863 91.872119 57.458110 90.659827 57.300981 C 89.983441 57.212010 89.335382 57.166802 88.642809 57.128647 C 88.190150 57.100435 87.011389 57.106101 86.676086 56.994063 C 86.877268 56.703217 87.698181 56.407804 88.145058 56.295131 C 90.027955 55.836749 92.011442 56.340744 93.743453 56.781782 C 93.598348 56.424107 93.274608 56.044232 93.056083 55.754543 C 92.794200 55.418026 92.497631 55.160132 92.212624 54.893220 C 91.726435 54.435243 90.860430 53.921305 90.005408 53.747873 C 88.787914 53.507380 85.441248 54.351938 84.324344 54.709439 C 80.049815 56.054638 76.781194 58.557903 74.300534 61.597478 C 72.702644 63.552638 71.585161 65.609546 70.741702 68.144548 C 70.217359 69.737813 67.887006 77.604125 66.875896 77.794900 C 66.322647 76.721932 68.663983 68.458460 69.110860 67.150781 C 69.920789 64.770133 70.657876 62.312019 72.054585 60.256846 C 72.529789 59.563695 72.853530 59.413329 73.199816 58.955583 C 73.289423 58.838169 73.379029 58.658378 73.317750 58.519054 C 73.105006 58.044369 72.127426 58.730641 71.937807 58.859617 C 71.552209 59.122656 71.300154 59.418532 70.982773 59.715159 C 70.635908 60.026759 70.395415 60.329109 70.099424 60.692739 C 69.836963 61.011276 69.579705 61.358141 69.305682 61.709052 C 68.774979 62.413188 68.289369 63.112120 67.776009 63.844004 C 67.361506 64.435987 66.641762 65.423973 66.311084 66.028095 C 65.557232 65.977222 66.065967 64.882286 66.249805 64.503047 C 67.680621 61.508449 69.993631 58.540964 72.015851 55.910111 C 72.937355 54.709439 71.501914 54.893219 70.306387 55.792697 C 70.032364 55.993879 69.798230 56.183614 69.506864 56.378898 C 69.094095 56.648354 68.194559 57.145354 68.640858 56.206622 C 68.714278 56.054638 68.803307 55.877159 68.870367 55.742980 C 69.876275 53.887890 70.759045 53.574440 72.630380 52.747919 C 73.105006 52.540841 74.172771 52.111307 74.300533 51.736693 C 74.099930 51.552161 73.680802 51.613614 73.424122 51.630321 C 71.652800 51.759239 69.903446 52.407819 68.468004 53.367593 C 68.043673 53.653005 67.758666 53.864592 67.356303 54.172203 C 66.892660 54.536007 65.769397 55.540642 65.361831 56.010586 C 63.869735 57.731613 62.490370 59.569475 61.406418 61.625226 C 60.495320 63.357815 59.736265 64.977673 59.009699 66.888319 C 56.193678 74.336082 54.702102 85.157680 58.411473 92.571335 C 59.551848 94.851392 60.931213 96.231913 62.852843 97.761586 C 63.914827 98.605623 65.099370 99.371038 66.294897 100.063611 C 68.881351 101.566113 73.865218 104.058335 77.563373 104.098225 C 78.535750 104.108631 80.284526 104.091866 81.172500 103.884903 C 82.776171 103.516649 84.715144 101.935524 85.877140 100.935397 C 86.564511 100.348618 87.167477 99.678013 87.736913 98.963472 C 88.877519 97.532655 89.893833 96.008185 90.776604 94.348438 C 91.648390 92.710658 92.374493 90.812153 92.877447 88.789353 C 92.698234 88.890522 92.558910 89.051814 92.324776 89.191138 C 92.117235 89.313697 91.927616 89.381336 91.687123 89.459380 C 91.212497 89.611423 90.626295 89.683108 90.111780 89.594079 C 89.039390 89.409085 88.368785 88.973770 88.257210 87.829116 C 89.570093 87.705979 88.715071 88.343054 91.609079 87.789227 C 92.145563 87.688058 92.687249 87.593826 93.011568 87.275289 C 93.263045 87.034796 93.503538 86.269382 93.319121 85.827707 C 93.184422 85.660634 92.609205 86.062419 92.408023 86.141620 C 91.357602 86.531842 90.027954 86.605262 88.899488 86.520858 C 89.011641 86.197118 89.402441 85.599355 89.592061 85.347878 C 89.922160 84.911984 90.067265 84.761676 90.508361 84.453545 C 91.503285 83.766753 92.363509 84.096274 93.346870 84.470310 C 94.760344 77.001158 94.324451 74.850019 91.430443 68.334746 C 91.263370 67.960710 91.078376 67.592455 90.899740 67.218420 C 90.475409 66.340852 89.234790 65.178277 88.094761 65.195621 C 87.703961 65.206027 87.106197 65.357491 86.698631 65.429754 C 85.351640 65.659841 83.887871 65.810149 82.636846 66.262807 C 80.904835 66.882539 80.066579 67.749122 79.279196 69.391527 C 78.172698 71.681989 77.133838 74.458641 78.530547 76.983816 C 79.066453 77.955615 79.564203 78.318666 79.898928 78.856307 C 77.999266 78.711202 76.971390 76.502830 76.440687 74.972579 C 76.222741 74.329723 76.100182 73.542340 75.926749 73.045746 C 75.747536 73.313409 75.714584 73.862034 75.624977 74.196180 C 75.328986 75.314240 74.675146 76.576249 75.178100 77.726684 C 75.563698 78.604252 76.161461 79.169063 76.792177 79.726359 C 76.921095 79.844871 77.010701 79.961648 77.139041 80.068598 C 77.367972 80.263421 77.669166 80.453618 77.876707 80.710298 C 77.607887 81.900044 75.837143 81.682097 75.295456 82.090241 C 75.568901 82.604179 75.977045 83.130257 76.312347 83.615868 C 76.608338 84.045402 76.457452 84.056386 77.066778 84.134430 C 77.429251 84.180679 77.798084 84.252942 78.161136 84.280113 C 78.100435 85.062293 77.675525 84.800410 77.256975 85.224741 C 77.519436 85.538076 78.290054 85.582012 78.765258 85.766428 L 77.993485 86.609888 C 79.558422 86.208103 80.848759 86.057795 82.457633 86.666542 C 82.927056 86.844599 83.251375 87.079311 83.636972 87.247540 C 83.407464 86.459580 82.642049 86.286147 81.993990 86.017905 C 81.474271 85.799959 81.491036 85.705149 81.156312 85.414939 C 80.775917 85.085417 80.580517 85.297005 80.564330 84.660508 C 81.117001 84.605010 83.653737 85.091199 84.424355 85.174446 C 84.334748 84.721788 84.083850 83.900875 84.401809 83.554588 C 84.602990 83.336642 85.323891 83.007120 85.647631 82.900170 C 86.871485 84.258723 85.541837 90.029973 83.782077 91.230703 C 82.536255 92.080522 80.759152 92.007102 79.223119 91.549819 C 78.144949 91.230703 77.262178 90.694219 76.173023 90.454304 C 75.608212 90.325386 75.424374 90.425977 75.300659 90.867073 C 75.568900 91.241687 76.558621 91.359621 76.596776 92.253376 C 76.625103 92.856342 75.982248 93.655287 75.725568 94.024698 C 75.111039 94.895906 74.306313 96.437720 73.798156 97.415878 C 72.529788 99.873992 72.245359 98.203261 72.122222 96.208789 C 72.021631 94.566385 72.088692 92.649380 72.161533 90.995991 C 72.440181 84.789427 73.161082 77.911101 74.769956 72.324267 C 76.167242 67.446772 79.424301 61.301487 85.011134 61.301487 C 86.843157 61.295705 88.753803 62.000419 89.597841 63.357816 C 89.793241 63.664791 90.027953 63.754398 90.240696 64.045186 C 91.329851 65.541329 91.363382 65.508377 92.738122 66.871555 C 93.486771 67.615001 94.396713 69.016913 94.927416 69.993914 C 95.067318 70.251751 95.693987 71.676786 96.017727 71.570414 C 96.620694 71.067461 96.056460 68.804747 95.855279 68.112752 Z M 107.529589 52.050548 L 116.183284 72.869422 C 114.890057 73.738896 114.039082 75.214805 114.038504 76.890162 C 114.039083 78.596158 114.925900 80.088832 116.258438 80.951947 L 107.529589 101.953445 C 107.244004 101.900837 106.952060 101.863838 106.650865 101.863838 C 103.976539 101.864995 101.808635 104.032899 101.808057 106.708959 C 101.808057 107.055246 101.847368 107.392861 101.916741 107.718913 L 80.856277 116.473777 C 79.978131 115.242408 78.545580 114.432479 76.917051 114.432479 C 75.278693 114.432479 73.836893 115.250501 72.959325 116.495745 L 51.847701 107.720645 C 51.916784 107.394014 51.957194 107.056399 51.957194 106.708956 C 51.956558 104.032895 49.788654 101.864991 47.113518 101.863835 C 46.812035 101.863835 46.519859 101.900834 46.233927 101.953442 L 37.504729 80.952527 C 38.838712 80.089990 39.725934 78.597316 39.726397 76.890164 C 39.725934 75.214230 38.874613 73.738899 37.581097 72.869425 L 46.234851 52.050548 C 46.520725 52.103214 46.812265 52.139519 47.113517 52.139519 C 49.788653 52.139519 51.956557 49.971210 51.957193 47.295612 C 51.957193 46.949441 51.916783 46.610728 51.847699 46.285080 L 72.908453 37.530794 C 73.779083 38.814830 75.248633 39.658289 76.917052 39.658289 C 78.575643 39.658289 80.035365 38.822981 80.908308 37.552705 L 101.916743 46.286179 C 101.847370 46.611191 101.808059 46.949442 101.808059 47.295613 C 101.808637 49.971211 103.976541 52.139520 106.650867 52.139520 C 106.952061 52.139520 107.244006 52.103215 107.529591 52.050549 Z M 104.186970 132.206401 L 129.352578 131.200494 C 122.825164 137.506493 115.171595 142.651074 106.709255 146.284482 C 106.697114 146.219155 106.695958 146.152673 106.668787 146.089659 L 102.151453 135.550755 C 103.249280 134.792856 104.000820 133.590970 104.186970 132.206402 Z" transform="scale(1.000000,1.000000) translate(13.000000,8.000000)" fill="#2b5bb3" opacity="1.000000"></path>
    </g>
</svg>